<svg width="550" height="210" viewBox="0 0 301 110" fill="none" xmlns="http://www.w3.org/2000/svg">
<g filter="url(#filter0_d_3520_265565)">
<path d="M44.45 106V88.9H2V68.2L48.95 9.40002H76.7V62.95H85.1V88.9H76.7V106H44.45ZM33.05 64.3H50.3V44.2L33.05 64.3Z" fill="#2A878B"/>
<path d="M254.268 106V88.9H211.818V68.2L258.768 9.40002H286.518V62.95H294.918V88.9H286.518V106H254.268ZM242.868 64.3H260.118V44.2L242.868 64.3Z" fill="#2A878B"/>
</g>
<g clip-path="url(#clip0_3520_265565)">
<g filter="url(#filter1_d_3520_265565)">
<path d="M149.688 91.875C126.733 91.875 108.125 73.2668 108.125 50.3125C108.125 27.3582 126.733 8.75 149.688 8.75C172.642 8.75 191.25 27.3582 191.25 50.3125C191.25 73.2668 172.642 91.875 149.688 91.875Z" stroke="#6A6A6A" stroke-width="10" stroke-linecap="round" stroke-linejoin="round"/>
<path d="M103.75 96.25L112.5 87.5" stroke="#6A6A6A" stroke-width="10" stroke-linecap="round" stroke-linejoin="round"/>
</g>
</g>
<path d="M126.04 57.2C123.947 57.2 122.353 56.6667 121.26 55.6C120.167 54.5333 119.62 52.8733 119.62 50.62C119.62 48.2333 120.167 46.52 121.26 45.48C122.353 44.44 123.947 43.92 126.04 43.92C128.133 43.92 129.727 44.44 130.82 45.48C131.913 46.52 132.46 48.2333 132.46 50.62C132.46 52.8733 131.913 54.5333 130.82 55.6C129.727 56.6667 128.133 57.2 126.04 57.2ZM126.04 54.46C127.12 54.46 127.907 54.1533 128.4 53.54C128.907 52.9133 129.16 51.94 129.16 50.62C129.16 49.18 128.907 48.1667 128.4 47.58C127.907 46.98 127.12 46.68 126.04 46.68C124.947 46.68 124.147 46.98 123.64 47.58C123.147 48.1667 122.9 49.18 122.9 50.62C122.9 51.94 123.147 52.9133 123.64 53.54C124.147 54.1533 124.947 54.46 126.04 54.46ZM139.142 57.2C137.315 57.2 135.969 56.78 135.102 55.94C134.235 55.0867 133.802 53.86 133.802 52.26C133.802 50.6733 134.235 49.4533 135.102 48.6C135.982 47.7467 137.329 47.32 139.142 47.32C140.969 47.32 142.315 47.7467 143.182 48.6C144.062 49.4533 144.502 50.6733 144.502 52.26C144.502 53.86 144.069 55.0867 143.202 55.94C142.335 56.78 140.982 57.2 139.142 57.2ZM139.142 54.68C139.889 54.68 140.422 54.4933 140.742 54.12C141.062 53.7467 141.222 53.1267 141.222 52.26C141.222 51.3933 141.062 50.7733 140.742 50.4C140.422 50.0267 139.889 49.84 139.142 49.84C138.409 49.84 137.882 50.0267 137.562 50.4C137.242 50.7733 137.082 51.3933 137.082 52.26C137.082 53.1267 137.242 53.7467 137.562 54.12C137.882 54.4933 138.409 54.68 139.142 54.68ZM146.236 61.32V47.52H149.036L149.196 48.34C149.582 48.02 150.016 47.7733 150.496 47.6C150.976 47.4133 151.536 47.32 152.176 47.32C153.522 47.32 154.589 47.6867 155.376 48.42C156.162 49.14 156.556 50.3533 156.556 52.06C156.556 53.7533 156.149 55.0333 155.336 55.9C154.536 56.7667 153.429 57.2 152.016 57.2C151.016 57.2 150.162 56.9933 149.456 56.58V61.32H146.236ZM151.196 54.84C152.582 54.84 153.276 53.8933 153.276 52C153.276 51.0933 153.116 50.48 152.796 50.16C152.476 49.84 151.962 49.68 151.256 49.68C150.576 49.68 149.976 49.92 149.456 50.4V54.24C149.709 54.4267 149.962 54.5733 150.216 54.68C150.482 54.7867 150.809 54.84 151.196 54.84ZM161.711 57.2C160.951 57.2 160.231 57.1467 159.551 57.04C158.871 56.9333 158.331 56.8 157.931 56.64V54.18C158.398 54.38 158.938 54.5333 159.551 54.64C160.164 54.7467 160.711 54.8 161.191 54.8C161.764 54.8 162.178 54.7733 162.431 54.72C162.698 54.6667 162.831 54.52 162.831 54.28C162.831 54.0133 162.618 53.8133 162.191 53.68C161.764 53.5467 161.178 53.3533 160.431 53.1C159.564 52.7933 158.904 52.44 158.451 52.04C158.011 51.6267 157.791 51.02 157.791 50.22C157.791 49.2867 158.138 48.5733 158.831 48.08C159.538 47.5733 160.658 47.32 162.191 47.32C162.791 47.32 163.384 47.3667 163.971 47.46C164.558 47.5533 165.038 47.66 165.411 47.78V50.2C165.038 50.0267 164.611 49.9 164.131 49.82C163.651 49.74 163.218 49.7 162.831 49.7C162.338 49.7 161.918 49.7333 161.571 49.8C161.238 49.8533 161.071 49.9933 161.071 50.22C161.071 50.4733 161.258 50.6533 161.631 50.76C162.004 50.8533 162.544 51.0133 163.251 51.24C163.998 51.4667 164.578 51.7133 164.991 51.98C165.404 52.2333 165.698 52.54 165.871 52.9C166.044 53.26 166.131 53.7133 166.131 54.26C166.131 55.2067 165.758 55.9333 165.011 56.44C164.264 56.9467 163.164 57.2 161.711 57.2ZM172.058 53.48L171.938 47.5V44.12H175.158V47.5L175.038 53.48H172.058ZM171.858 57V54.68H175.238V57H171.858Z" fill="#CECECE"/>
<defs>
<filter id="filter0_d_3520_265565" x="0" y="5.40002" width="300.918" height="104.6" filterUnits="userSpaceOnUse" color-interpolation-filters="sRGB">
<feFlood flood-opacity="0" result="BackgroundImageFix"/>
<feColorMatrix in="SourceAlpha" type="matrix" values="0 0 0 0 0 0 0 0 0 0 0 0 0 0 0 0 0 0 127 0" result="hardAlpha"/>
<feOffset dx="2"/>
<feGaussianBlur stdDeviation="2"/>
<feComposite in2="hardAlpha" operator="out"/>
<feColorMatrix type="matrix" values="0 0 0 0 0 0 0 0 0 0 0 0 0 0 0 0 0 0 0.25 0"/>
<feBlend mode="normal" in2="BackgroundImageFix" result="effect1_dropShadow_3520_265565"/>
<feBlend mode="normal" in="SourceGraphic" in2="effect1_dropShadow_3520_265565" result="shape"/>
</filter>
<filter id="filter1_d_3520_265565" x="98.75" y="3.75" width="101.5" height="101.5" filterUnits="userSpaceOnUse" color-interpolation-filters="sRGB">
<feFlood flood-opacity="0" result="BackgroundImageFix"/>
<feColorMatrix in="SourceAlpha" type="matrix" values="0 0 0 0 0 0 0 0 0 0 0 0 0 0 0 0 0 0 127 0" result="hardAlpha"/>
<feOffset dx="2" dy="2"/>
<feGaussianBlur stdDeviation="1"/>
<feComposite in2="hardAlpha" operator="out"/>
<feColorMatrix type="matrix" values="0 0 0 0 0 0 0 0 0 0 0 0 0 0 0 0 0 0 0.25 0"/>
<feBlend mode="normal" in2="BackgroundImageFix" result="effect1_dropShadow_3520_265565"/>
<feBlend mode="normal" in="SourceGraphic" in2="effect1_dropShadow_3520_265565" result="shape"/>
</filter>
<clipPath id="clip0_3520_265565">
<rect width="105" height="105" fill="white" transform="matrix(-1 0 0 1 200 0)"/>
</clipPath>
</defs>
</svg>
