<svg width="67" height="66" viewBox="0 0 67 66" fill="none" xmlns="http://www.w3.org/2000/svg">
<mask id="mask0_5902_321081" style="mask-type:alpha" maskUnits="userSpaceOnUse" x="0" y="0" width="67" height="66">
<rect x="0.5" width="66" height="66" fill="#D9D9D9"/>
</mask>
<g mask="url(#mask0_5902_321081)">
<path d="M32.125 42.8365V19.049L25.7154 25.4587L23.7692 23.4808L33.5 13.75L43.2308 23.4808L41.2846 25.4587L34.875 19.049V42.8365H32.125ZM18.6923 52.25C17.4266 52.25 16.3698 51.826 15.5219 50.9781C14.674 50.1302 14.25 49.0734 14.25 47.8077V41.1443H17V47.8077C17 48.2308 17.1763 48.6186 17.5288 48.9712C17.8814 49.3237 18.2692 49.5 18.6923 49.5H48.3077C48.7308 49.5 49.1186 49.3237 49.4712 48.9712C49.8237 48.6186 50 48.2308 50 47.8077V41.1443H52.75V47.8077C52.75 49.0734 52.326 50.1302 51.4781 50.9781C50.6302 51.826 49.5734 52.25 48.3077 52.25H18.6923Z" fill="#101225"/>
</g>
</svg>
