<svg width="24" height="24" viewBox="0 0 24 24" fill="none" xmlns="http://www.w3.org/2000/svg">
<mask id="mask0_7007_1191" style="mask-type:alpha" maskUnits="userSpaceOnUse" x="0" y="0" width="24" height="24">
<rect width="24" height="24" fill="#D9D9D9"/>
</mask>
<g mask="url(#mask0_7007_1191)">
<path d="M4.62025 17.1463C4.49075 17.1463 4.38066 17.1008 4.29 17.01C4.19916 16.9192 4.15375 16.8089 4.15375 16.6793C4.15375 16.5559 4.19916 16.4491 4.29 16.3588C4.38066 16.2683 4.49075 16.223 4.62025 16.223H19.3895C19.5125 16.223 19.6193 16.2684 19.71 16.3593C19.8008 16.4501 19.8462 16.5572 19.8462 16.6805C19.8462 16.8102 19.8008 16.9202 19.71 17.0105C19.6193 17.101 19.5125 17.1463 19.3895 17.1463H4.62025ZM4.62025 12.4538C4.49075 12.4538 4.38066 12.4083 4.29 12.3175C4.19916 12.2267 4.15375 12.1164 4.15375 11.9868C4.15375 11.8636 4.19916 11.7568 4.29 11.6663C4.38066 11.5759 4.49075 11.5308 4.62025 11.5308H19.3895C19.5125 11.5308 19.6193 11.5762 19.71 11.667C19.8008 11.7578 19.8462 11.8649 19.8462 11.9883C19.8462 12.1179 19.8008 12.2279 19.71 12.3183C19.6193 12.4086 19.5125 12.4538 19.3895 12.4538H4.62025ZM4.62025 7.7615C4.49075 7.7615 4.38066 7.71609 4.29 7.62525C4.19916 7.53442 4.15375 7.42417 4.15375 7.2945C4.15375 7.17117 4.19916 7.06434 4.29 6.974C4.38066 6.88367 4.49075 6.8385 4.62025 6.8385H19.3895C19.5125 6.8385 19.6193 6.88392 19.71 6.97475C19.8008 7.06558 19.8462 7.17259 19.8462 7.29575C19.8462 7.42559 19.8008 7.53567 19.71 7.626C19.6193 7.71633 19.5125 7.7615 19.3895 7.7615H4.62025Z" fill="white"/>
</g>
</svg>
