<svg width="24" height="24" viewBox="0 0 24 24" fill="none" xmlns="http://www.w3.org/2000/svg">
<mask id="mask0_6781_699370" style="mask-type:alpha" maskUnits="userSpaceOnUse" x="0" y="0" width="24" height="24">
<rect width="24" height="24" fill="#D9D9D9"/>
</mask>
<g mask="url(#mask0_6781_699370)">
<path d="M4.62031 17.1461C4.49081 17.1461 4.38073 17.1007 4.29006 17.0099C4.19923 16.919 4.15381 16.8088 4.15381 16.6791C4.15381 16.5558 4.19923 16.449 4.29006 16.3586C4.38073 16.2681 4.49081 16.2229 4.62031 16.2229H19.3896C19.5126 16.2229 19.6194 16.2683 19.7101 16.3591C19.8009 16.45 19.8463 16.557 19.8463 16.6804C19.8463 16.81 19.8009 16.92 19.7101 17.0104C19.6194 17.1009 19.5126 17.1461 19.3896 17.1461H4.62031ZM4.62031 12.4536C4.49081 12.4536 4.38073 12.4082 4.29006 12.3174C4.19923 12.2265 4.15381 12.1163 4.15381 11.9866C4.15381 11.8635 4.19923 11.7566 4.29006 11.6661C4.38073 11.5758 4.49081 11.5306 4.62031 11.5306H19.3896C19.5126 11.5306 19.6194 11.576 19.7101 11.6669C19.8009 11.7577 19.8463 11.8648 19.8463 11.9881C19.8463 12.1178 19.8009 12.2278 19.7101 12.3181C19.6194 12.4085 19.5126 12.4536 19.3896 12.4536H4.62031ZM4.62031 7.76138C4.49081 7.76138 4.38073 7.71596 4.29006 7.62513C4.19923 7.5343 4.15381 7.42405 4.15381 7.29438C4.15381 7.17105 4.19923 7.06421 4.29006 6.97388C4.38073 6.88355 4.49081 6.83838 4.62031 6.83838H19.3896C19.5126 6.83838 19.6194 6.8838 19.7101 6.97463C19.8009 7.06546 19.8463 7.17246 19.8463 7.29563C19.8463 7.42546 19.8009 7.53555 19.7101 7.62588C19.6194 7.71621 19.5126 7.76138 19.3896 7.76138H4.62031Z" fill="black"/>
</g>
</svg>
