<svg width="24" height="16" viewBox="0 0 24 16" fill="none" xmlns="http://www.w3.org/2000/svg">
<g clip-path="url(#clip0_103_202)">
<path d="M0 0H24V16H0V0Z" fill="#D80027"/>
<path d="M10.6102 11.1908L10.1564 10.461L9.31898 10.6668L9.87571 10.0072L9.4219 9.27737L10.2219 9.60017L10.774 8.94052L10.7131 9.80134L11.5131 10.1241L10.6757 10.33L10.6102 11.1908ZM13.595 3.83643L13.1225 4.5569L13.6652 5.2259L12.8371 5.00134L12.3646 5.72649L12.3178 4.86567L11.4897 4.64111L12.2944 4.33234L12.2476 3.47152L12.7903 4.14052L13.595 3.83643ZM11.05 1.18848L10.9564 2.04462L11.7424 2.40017L10.9003 2.57795L10.8067 3.43409L10.3763 2.68555L9.53886 2.86333L10.1143 2.22239L9.68389 1.47854L10.4699 1.82941L11.05 1.18848ZM13.6979 7.56976L13.0009 8.0797L13.2722 8.89842L12.5751 8.39315L11.878 8.90777L12.14 8.08438L11.443 7.5838L12.3038 7.57912L12.5658 6.75573L12.8371 7.57444L13.6979 7.56976ZM5.3798 2.16625L6.18916 4.66918H8.8184L6.69442 6.20836L7.50377 8.71128L5.3798 7.16742L3.25114 8.71128L4.06518 6.20836L1.93652 4.66918H4.57044L5.3798 2.16625Z" fill="#FFDA44"/>
</g>
<defs>
<clipPath id="clip0_103_202">
<rect width="24" height="16" fill="white"/>
</clipPath>
</defs>
</svg>
