<svg width="24" height="16" viewBox="0 0 24 16" fill="none" xmlns="http://www.w3.org/2000/svg">
<g clip-path="url(#clip0_103_171)">
<path d="M0 0H24V16.0002H0V0Z" fill="white"/>
<path d="M13.5 0H10.5V6.49997H0V9.49998H10.5V16H13.5V9.49998H24V6.49997H13.5V0Z" fill="#D80027"/>
<path d="M18.4584 10.7822L23.9997 13.8608V10.7822H18.4584ZM14.6084 10.7822L23.9997 15.9996V14.5243L17.2641 10.7822H14.6084ZM21.4982 15.9996L14.6084 12.1716V15.9996H21.4982Z" fill="#0052B4"/>
<path d="M14.6084 10.7822L23.9997 15.9996V14.5243L17.2641 10.7822H14.6084Z" fill="white"/>
<path d="M14.6084 10.7822L23.9997 15.9996V14.5243L17.2641 10.7822H14.6084Z" fill="#D80027"/>
<path d="M4.23473 10.7822L0 13.1349V10.7822H4.23473ZM9.39131 11.4457V15.9997H1.19489L9.39131 11.4457Z" fill="#0052B4"/>
<path d="M6.73561 10.7822L0 14.5243V15.9996L9.39131 10.7822H6.73561Z" fill="#D80027"/>
<path d="M5.54133 5.21738L0 2.13881V5.21738H5.54133ZM9.39131 5.21738L0 0V1.47535L6.73561 5.21738H9.39131ZM2.50153 0L9.39131 3.828V0H2.50153Z" fill="#0052B4"/>
<path d="M9.39131 5.21738L0 0V1.47535L6.73561 5.21738H9.39131Z" fill="white"/>
<path d="M9.39131 5.21738L0 0V1.47535L6.73561 5.21738H9.39131Z" fill="#D80027"/>
<path d="M19.765 5.21743L23.9997 2.86477V5.21743H19.765ZM14.6084 4.55396V0H22.8048L14.6084 4.55396Z" fill="#0052B4"/>
<path d="M17.2641 5.21738L23.9997 1.47535V0L14.6084 5.21738H17.2641Z" fill="#D80027"/>
</g>
<defs>
<clipPath id="clip0_103_171">
<rect width="24" height="16" fill="white"/>
</clipPath>
</defs>
</svg>
