<svg width="24" height="16" viewBox="0 0 24 16" fill="none" xmlns="http://www.w3.org/2000/svg">
<g clip-path="url(#clip0_103_195)">
<path d="M0 0H24V16H0V0Z" fill="white"/>
<path d="M0 0H24V1.23041H0V0ZM0 2.46082H24V3.69123H0V2.46082ZM0 4.92164H24V6.15205H0V4.92164ZM0 7.38246H24V8.61287H0V7.38246ZM0 9.84795H24V11.0784H0V9.84795ZM0 12.3088H24V13.5392H0V12.3088ZM0 14.7696H24V16H0V14.7696Z" fill="#D80027"/>
<path d="M0 0H12V8.61287H0V0Z" fill="#2E52B2"/>
<path d="M2.23611 6.49845L2.04898 5.89962L1.84313 6.49845H1.22559L1.72617 6.85869L1.53904 7.45752L2.04898 7.08793L2.54488 7.45752L2.35307 6.85869L2.86301 6.49845H2.23611ZM4.87003 6.49845L4.67822 5.89962L4.48173 6.49845H3.86418L4.36477 6.85869L4.17763 7.45752L4.67822 7.08793L5.18348 7.45752L4.99635 6.85869L5.49693 6.49845H4.87003ZM7.51331 6.49845L7.31214 5.89962L7.125 6.49845H6.49342L7.00804 6.85869L6.81155 7.45752L7.31214 7.08793L7.82676 7.45752L7.63026 6.85869L8.13085 6.49845H7.51331ZM10.1425 6.49845L9.95541 5.89962L9.75892 6.49845H9.1367L9.64196 6.85869L9.45483 7.45752L9.95541 7.08793L10.4607 7.45752L10.2595 6.85869L10.7741 6.49845H10.1425ZM4.67822 3.52301L4.48173 4.12184H3.86418L4.36477 4.49143L4.17763 5.08091L4.67822 4.716L5.18348 5.08091L4.99635 4.49143L5.49693 4.12184H4.87003L4.67822 3.52301ZM2.04898 3.52301L1.84313 4.12184H1.22559L1.72617 4.49143L1.53904 5.08091L2.04898 4.716L2.54488 5.08091L2.35307 4.49143L2.86301 4.12184H2.23611L2.04898 3.52301ZM7.31214 3.52301L7.125 4.12184H6.49342L7.00804 4.49143L6.81155 5.08091L7.31214 4.716L7.82676 5.08091L7.63026 4.49143L8.13085 4.12184H7.51331L7.31214 3.52301ZM9.95541 3.52301L9.75892 4.12184H9.1367L9.64196 4.49143L9.45483 5.08091L9.95541 4.716L10.4607 5.08091L10.2595 4.49143L10.7741 4.12184H10.1425L9.95541 3.52301ZM2.04898 1.15576L1.84313 1.74524H1.22559L1.72617 2.11483L1.53904 2.70898L2.04898 2.33939L2.54488 2.70898L2.35307 2.11483L2.86301 1.74524H2.23611L2.04898 1.15576ZM4.67822 1.15576L4.48173 1.74524H3.86418L4.36477 2.11483L4.17763 2.70898L4.67822 2.33939L5.18348 2.70898L4.99635 2.11483L5.49693 1.74524H4.87003L4.67822 1.15576ZM7.31214 1.15576L7.125 1.74524H6.49342L7.00804 2.11483L6.81155 2.70898L7.31214 2.33939L7.82676 2.70898L7.63026 2.11483L8.13085 1.74524H7.51331L7.31214 1.15576ZM9.95541 1.15576L9.75892 1.74524H9.1367L9.64196 2.11483L9.45483 2.70898L9.95541 2.33939L10.4607 2.70898L10.2595 2.11483L10.7741 1.74524H10.1425L9.95541 1.15576Z" fill="white"/>
</g>
<defs>
<clipPath id="clip0_103_195">
<rect width="24" height="16" fill="white"/>
</clipPath>
</defs>
</svg>
