<svg width="58" height="57" viewBox="0 0 58 57" fill="none" xmlns="http://www.w3.org/2000/svg">
<rect x="1" y="0.5" width="56" height="56" rx="28" stroke="#6A6A6A"/>
<mask id="mask0_6781_673288" style="mask-type:alpha" maskUnits="userSpaceOnUse" x="17" y="16" width="25" height="25">
<rect x="17.1523" y="16.5117" width="24" height="24" fill="#D9D9D9"/>
</mask>
<g mask="url(#mask0_6781_673288)">
<path d="M29.1523 37.454C28.751 37.454 28.3962 37.3482 28.0878 37.1367C27.7795 36.9251 27.5638 36.6475 27.4408 36.304H27.1523C26.7433 36.304 26.3911 36.1562 26.0956 35.8607C25.8001 35.5652 25.6523 35.213 25.6523 34.804V31.5232C24.6433 30.9117 23.8494 30.0919 23.2706 29.0637C22.6918 28.0354 22.4023 26.9347 22.4023 25.7617C22.4023 23.8797 23.0568 22.2842 24.3658 20.9752C25.6748 19.6662 27.2703 19.0117 29.1523 19.0117C31.0343 19.0117 32.6298 19.6662 33.9388 20.9752C35.2478 22.2842 35.9023 23.8797 35.9023 25.7617C35.9023 26.9552 35.6129 28.061 35.0341 29.079C34.4553 30.097 33.6613 30.9117 32.6523 31.5232V34.804C32.6523 35.213 32.5046 35.5652 32.2091 35.8607C31.9136 36.1562 31.5613 36.304 31.1523 36.304H30.8638C30.7408 36.6475 30.5252 36.9251 30.2168 37.1367C29.9085 37.3482 29.5537 37.454 29.1523 37.454ZM27.1523 34.804H31.1523V33.8655H27.1523V34.804ZM27.1523 32.981H31.1523V32.0117H27.1523V32.981ZM26.9523 30.5117H28.5561V27.6002L26.4138 25.458L27.2523 24.6195L29.1523 26.5195L31.0523 24.6195L31.8908 25.458L29.7486 27.6002V30.5117H31.3523C32.2523 30.0784 32.9857 29.4409 33.5523 28.5992C34.119 27.7576 34.4023 26.8117 34.4023 25.7617C34.4023 24.2951 33.894 23.0534 32.8773 22.0367C31.8607 21.0201 30.619 20.5117 29.1523 20.5117C27.6857 20.5117 26.444 21.0201 25.4273 22.0367C24.4107 23.0534 23.9023 24.2951 23.9023 25.7617C23.9023 26.8117 24.1857 27.7576 24.7523 28.5992C25.319 29.4409 26.0523 30.0784 26.9523 30.5117Z" fill="#2A878B"/>
</g>
</svg>
