<svg width="277" height="150" viewBox="0 0 277 150" fill="none" xmlns="http://www.w3.org/2000/svg">
<path d="M257.889 144.237H108.08V23.4224L257.889 7.31543V144.237Z" fill="#98DBAB"/>
<path opacity="0.13" d="M254.377 7.69189L108.08 23.4223V144.237H254.377V7.69189Z" fill="#03C75C"/>
<path opacity="0.13" d="M257.889 144.237H168.476V20.2134L257.889 3.67529V144.237Z" fill="#03C75C"/>
<path d="M257.889 144.237H180.757L180.869 15.3704L257.889 2.84058V144.237Z" fill="#D9F2D9"/>
<path d="M115.508 62.8071H7.99219V150H115.508V62.8071Z" fill="#D9F2D9"/>
<path d="M122.605 59.4209H0V67.4758H122.605V59.4209Z" fill="#569663"/>
<path opacity="0.19" d="M122.605 64.458H0V67.4759H122.605V64.458Z" fill="#2C245C"/>
<path d="M26.7899 76.89C27.7276 75.9523 27.7276 74.432 26.7899 73.4943C25.8522 72.5566 24.3319 72.5566 23.3942 73.4943C22.4565 74.432 22.4565 75.9523 23.3942 76.89C24.3319 77.8277 25.8522 77.8277 26.7899 76.89Z" fill="#EEC165"/>
<path opacity="0.81" d="M26.292 76.3931C25.629 77.0561 24.5539 77.0561 23.8908 76.3931C23.2278 75.73 23.2278 74.655 23.8908 73.9919C24.5539 73.3289 25.629 73.3289 26.292 73.9919C26.9551 74.655 26.9551 75.73 26.292 76.3931Z" fill="white"/>
<path d="M22.7129 75.7244V79.6918C22.7129 80.846 23.7661 81.7928 25.0513 81.7928C26.3365 81.7928 27.3897 80.8487 27.3897 79.6918V75.7244H22.7129Z" fill="#569663"/>
<path opacity="0.45" d="M25.0568 75.7244H22.7129V79.6918C22.7129 80.846 23.7661 81.7928 25.0513 81.7928C25.054 81.7928 25.054 81.7928 25.0568 81.7928V75.7244Z" fill="#5767BE"/>
<path d="M65.0155 75.7506C65.3202 74.46 64.521 73.1668 63.2305 72.862C61.9399 72.5573 60.6466 73.3565 60.3418 74.6471C60.0371 75.9377 60.8363 77.2309 62.1269 77.5357C63.4175 77.8404 64.7107 77.0412 65.0155 75.7506Z" fill="#EEC165"/>
<path opacity="0.81" d="M63.8789 76.3929C63.2159 77.0559 62.1408 77.0559 61.4778 76.3929C60.8147 75.7298 60.8147 74.6547 61.4778 73.9917C62.1408 73.3286 63.2159 73.3286 63.8789 73.9917C64.542 74.6547 64.542 75.7298 63.8789 76.3929Z" fill="white"/>
<path d="M60.2988 75.7241V79.6915C60.2988 80.8457 61.3521 81.7926 62.6372 81.7926C63.9224 81.7926 64.9757 80.8485 64.9757 79.6915V75.7241H60.2988Z" fill="#569663"/>
<path opacity="0.45" d="M62.6427 75.7241H60.2988V79.6915C60.2988 80.8457 61.3521 81.7926 62.6372 81.7926C62.64 81.7926 62.64 81.7926 62.6427 81.7926V75.7241Z" fill="#5767BE"/>
<path d="M101.964 76.8903C102.901 75.9526 102.901 74.4322 101.964 73.4945C101.026 72.5568 99.5057 72.5568 98.568 73.4945C97.6303 74.4322 97.6303 75.9526 98.568 76.8903C99.5057 77.828 101.026 77.828 101.964 76.8903Z" fill="#EEC165"/>
<path opacity="0.81" d="M101.467 76.3929C100.804 77.0559 99.7287 77.0559 99.0656 76.3929C98.4026 75.7298 98.4026 74.6547 99.0656 73.9917C99.7287 73.3286 100.804 73.3286 101.467 73.9917C102.13 74.6547 102.13 75.7298 101.467 76.3929Z" fill="white"/>
<path d="M97.8867 75.7241V79.6915C97.8867 80.8457 98.94 81.7926 100.225 81.7926C101.51 81.7926 102.564 80.8485 102.564 79.6915V75.7241H97.8867Z" fill="#569663"/>
<path opacity="0.45" d="M100.231 75.7241H97.8867V79.6915C97.8867 80.8457 98.94 81.7926 100.225 81.7926C100.228 81.7926 100.228 81.7926 100.231 81.7926V75.7241Z" fill="#5767BE"/>
<path d="M195.652 90.3187C195.957 89.0281 195.158 87.7349 193.867 87.4301C192.577 87.1254 191.283 87.9246 190.979 89.2152C190.674 90.5058 191.473 91.799 192.764 92.1038C194.054 92.4085 195.347 91.6093 195.652 90.3187Z" fill="#EEC165"/>
<path opacity="0.81" d="M194.509 90.9558C193.846 91.6189 192.771 91.6189 192.108 90.9558C191.445 90.2928 191.445 89.2177 192.108 88.5547C192.771 87.8916 193.846 87.8916 194.509 88.5547C195.172 89.2177 195.172 90.2928 194.509 90.9558Z" fill="white"/>
<path d="M190.932 90.2871V94.2545C190.932 95.4087 191.985 96.3555 193.27 96.3555C194.555 96.3555 195.608 95.4114 195.608 94.2545V90.2871H190.932Z" fill="#569663"/>
<path opacity="0.45" d="M193.276 90.2871H190.932V94.2545C190.932 95.4087 191.985 96.3555 193.27 96.3555C193.273 96.3555 193.273 96.3555 193.276 96.3555V90.2871Z" fill="#5767BE"/>
<path d="M249.639 90.3217C249.943 89.0311 249.144 87.7378 247.853 87.4331C246.563 87.1283 245.27 87.9275 244.965 89.2181C244.66 90.5087 245.459 91.802 246.75 92.1067C248.041 92.4115 249.334 91.6123 249.639 90.3217Z" fill="#EEC165"/>
<path opacity="0.81" d="M247.294 91.452C248.231 91.452 248.991 90.6922 248.991 89.7548C248.991 88.8175 248.231 88.0576 247.294 88.0576C246.357 88.0576 245.597 88.8175 245.597 89.7548C245.597 90.6922 246.357 91.452 247.294 91.452Z" fill="white"/>
<path d="M244.915 90.2871V94.2545C244.915 95.4087 245.968 96.3555 247.253 96.3555C248.539 96.3555 249.592 95.4114 249.592 94.2545V90.2871H244.915Z" fill="#569663"/>
<path opacity="0.45" d="M247.259 90.2871H244.915V94.2545C244.915 95.4087 245.968 96.3555 247.253 96.3555C247.256 96.3555 247.256 96.3555 247.259 96.3555V90.2871Z" fill="#5767BE"/>
<path d="M261.316 9.16541L102.399 30.7378L100.421 21.5724L259.338 0L261.316 9.16541Z" fill="#569663"/>
<path d="M162.814 88.2734H123.74V123.238H162.814V88.2734Z" fill="white"/>
<path opacity="0.1" d="M160.792 90.1096H125.517V121.401H160.792V90.1096Z" fill="#2C245C"/>
<path d="M160.429 90.1096H125.517V121.401H160.429V90.1096Z" fill="#ABEFF4"/>
<path d="M142.377 90.5735V90.1096H125.517V107.532C131.11 101.837 136.824 96.3336 142.377 90.5735Z" fill="#ABEFF4"/>
<path opacity="0.28" d="M134.398 108.642C137.083 105.911 139.738 103.133 142.374 100.326V93.5149C136.797 99.2368 131.091 104.754 125.517 110.481V117.371C128.518 114.528 131.476 111.617 134.398 108.642Z" fill="white"/>
<path opacity="0.28" d="M125.517 120.226V121.402H142.374V103.308C136.87 109.134 131.279 114.817 125.517 120.226Z" fill="white"/>
<path d="M160.356 90.5735V90.1096H143.845V107.532C149.324 101.837 154.917 96.3336 160.356 90.5735Z" fill="#ABEFF4"/>
<path opacity="0.28" d="M152.544 108.642C155.174 105.911 157.774 103.133 160.356 100.326V93.5149C154.893 99.2368 149.305 104.754 143.845 110.481V117.371C146.783 114.528 149.681 111.617 152.544 108.642Z" fill="white"/>
<path opacity="0.28" d="M143.845 120.226V121.402H160.356V103.308C154.964 109.134 149.487 114.817 143.845 120.226Z" fill="white"/>
<path d="M143.879 88.2732H142.067V122.725H143.879V88.2732Z" fill="white"/>
<path d="M134.311 88.2732H132.499V122.725H134.311V88.2732Z" fill="white"/>
<path d="M152.74 88.2732H150.928V122.725H152.74V88.2732Z" fill="white"/>
<path d="M162.208 100.099H124.545V101.641H162.208V100.099Z" fill="white"/>
<path opacity="0.1" d="M142.436 90.1096H141.967V121.401H142.436V90.1096Z" fill="#2C245C"/>
<path d="M138.543 37.4856H124.987V72.45H138.543V37.4856Z" fill="white"/>
<path opacity="0.1" d="M138.543 39.3193H126.21V70.6111H138.543V39.3193Z" fill="#2C245C"/>
<path d="M138.543 39.3193H126.21V70.6111H138.543V39.3193Z" fill="#ABEFF4"/>
<path d="M137.799 39.7832V39.3193H126.213V56.7415C130.055 51.0496 133.981 45.546 137.799 39.7832Z" fill="#ABEFF4"/>
<path opacity="0.28" d="M132.314 57.852C134.158 55.1207 135.984 52.343 137.796 49.5352V42.7246C133.962 48.4465 130.041 53.9638 126.21 59.6911V66.5809C128.273 63.7376 130.306 60.8262 132.314 57.852Z" fill="white"/>
<path opacity="0.28" d="M126.21 69.4377V70.6137H137.796V52.5203C134.014 58.3431 130.172 64.0268 126.21 69.4377Z" fill="white"/>
<path d="M138.72 37.4856H137.62V71.9371H138.72V37.4856Z" fill="white"/>
<path d="M132.256 37.4856H131.009V71.9371H132.256V37.4856Z" fill="white"/>
<path d="M138.543 49.3115H125.541V50.8532H138.543V49.3115Z" fill="white"/>
<path opacity="0.1" d="M137.84 39.3193H137.518V70.6111H137.84V39.3193Z" fill="#2C245C"/>
<path d="M161.541 37.4858H147.985V72.4503H161.541V37.4858Z" fill="white"/>
<path opacity="0.1" d="M161.541 39.3196H149.208V70.6113H161.541V39.3196Z" fill="#2C245C"/>
<path d="M161.541 39.3196H149.208V70.6113H161.541V39.3196Z" fill="#ABEFF4"/>
<path d="M160.794 39.7834V39.3196H149.208V56.7418C153.053 51.0499 156.979 45.5463 160.794 39.7834Z" fill="#ABEFF4"/>
<path opacity="0.28" d="M155.312 57.8523C157.156 55.1209 158.982 52.3432 160.794 49.5355V42.7249C156.96 48.4468 153.039 53.964 149.208 59.6914V66.5811C151.268 63.7379 153.304 60.8265 155.312 57.8523Z" fill="white"/>
<path opacity="0.28" d="M149.208 69.4379V70.6139H160.794V52.5205C157.012 58.3434 153.167 64.0271 149.208 69.4379Z" fill="white"/>
<path d="M161.716 37.4858H160.616V71.9373H161.716V37.4858Z" fill="white"/>
<path d="M155.251 37.4858H154.004V71.9373H155.251V37.4858Z" fill="white"/>
<path d="M161.541 49.3115H148.539V50.8532H161.541V49.3115Z" fill="white"/>
<path opacity="0.1" d="M160.835 39.3196H160.513V70.6113H160.835V39.3196Z" fill="#2C245C"/>
<path d="M246.691 30.3613H196.814V65.3258H246.691V30.3613Z" fill="white"/>
<path opacity="0.1" d="M244.113 32.1978H199.085V63.4895H244.113V32.1978Z" fill="#2C245C"/>
<path d="M243.651 32.1978H199.085V63.4895H243.651V32.1978Z" fill="#ABEFF4"/>
<path d="M220.603 32.6616V32.1978H199.085V49.6199C206.226 43.9253 213.517 38.4217 220.603 32.6616Z" fill="#ABEFF4"/>
<path opacity="0.28" d="M210.422 50.7305C213.849 47.9991 217.238 45.2214 220.603 42.4136V35.603C213.484 41.3249 206.198 46.8422 199.085 52.5695V59.4593C202.913 56.6161 206.692 53.7019 210.422 50.7305Z" fill="white"/>
<path opacity="0.28" d="M199.085 62.3134V63.4894H220.603V45.396C213.577 51.2216 206.439 56.9053 199.085 62.3134Z" fill="white"/>
<path d="M243.554 32.6616V32.1978H222.48V49.6199C229.474 43.9253 236.615 38.4217 243.554 32.6616Z" fill="#ABEFF4"/>
<path opacity="0.28" d="M233.583 50.7305C236.939 47.9991 240.257 45.2214 243.554 42.4136V35.603C236.582 41.3249 229.447 46.8422 222.48 52.5695V59.4593C226.23 56.6161 229.93 53.7019 233.583 50.7305Z" fill="white"/>
<path opacity="0.28" d="M222.48 62.3134V63.4894H243.554V45.396C236.675 51.2216 229.684 56.9053 222.48 62.3134Z" fill="white"/>
<path d="M222.524 30.3613H220.21V64.8128H222.524V30.3613Z" fill="white"/>
<path d="M210.31 30.3613H207.996V64.8128H210.31V30.3613Z" fill="white"/>
<path d="M233.836 30.3613H231.522V64.8128H233.836V30.3613Z" fill="white"/>
<path d="M245.918 42.187H197.843V43.7287H245.918V42.187Z" fill="white"/>
<path opacity="0.1" d="M220.681 32.1978H220.081V63.4895H220.681V32.1978Z" fill="#2C245C"/>
<mask id="mask0_8203_274464" style="mask-type:luminance" maskUnits="userSpaceOnUse" x="186" y="48" width="28" height="12">
<path d="M209.172 54.0486C208.267 54.0486 207.423 54.4388 206.706 55.11C205.511 51.2054 202.899 48.4958 199.868 48.4958C197.257 48.4958 194.956 50.5068 193.606 53.5602C192.861 52.8098 191.969 52.3705 191.008 52.3705C188.451 52.3705 186.375 55.4647 186.32 59.3148H192.348H195.696H204.64H207.391H213.705C213.17 56.2833 211.344 54.0486 209.172 54.0486Z" fill="white"/>
</mask>
<g mask="url(#mask0_8203_274464)">
<path d="M195.696 59.3149C195.641 55.4649 193.565 52.3706 191.008 52.3706C188.451 52.3706 186.375 55.4649 186.32 59.3149H195.696Z" fill="#569663"/>
</g>
<mask id="mask1_8203_274464" style="mask-type:luminance" maskUnits="userSpaceOnUse" x="186" y="48" width="28" height="12">
<path d="M209.172 54.0486C208.267 54.0486 207.423 54.4388 206.706 55.11C205.511 51.2054 202.899 48.4958 199.868 48.4958C197.257 48.4958 194.956 50.5068 193.606 53.5602C192.861 52.8098 191.969 52.3705 191.008 52.3705C188.451 52.3705 186.375 55.4647 186.32 59.3148H192.348H195.696H204.64H207.391H213.705C213.17 56.2833 211.344 54.0486 209.172 54.0486Z" fill="white"/>
</mask>
<g mask="url(#mask1_8203_274464)">
<path d="M213.705 59.3148C213.17 56.2833 211.345 54.0486 209.173 54.0486C207.001 54.0486 205.175 56.2833 204.641 59.3148H213.705Z" fill="#569663"/>
</g>
<mask id="mask2_8203_274464" style="mask-type:luminance" maskUnits="userSpaceOnUse" x="186" y="48" width="28" height="12">
<path d="M209.172 54.0486C208.267 54.0486 207.423 54.4388 206.706 55.11C205.511 51.2054 202.899 48.4958 199.868 48.4958C197.257 48.4958 194.956 50.5068 193.606 53.5602C192.861 52.8098 191.969 52.3705 191.008 52.3705C188.451 52.3705 186.375 55.4647 186.32 59.3148H192.348H195.696H204.64H207.391H213.705C213.17 56.2833 211.344 54.0486 209.172 54.0486Z" fill="white"/>
</mask>
<g mask="url(#mask2_8203_274464)">
<path d="M207.39 59.3148C207.191 53.2873 203.898 48.4958 199.868 48.4958C195.837 48.4958 192.547 53.29 192.345 59.3148H207.39Z" fill="#569663"/>
</g>
<mask id="mask3_8203_274464" style="mask-type:luminance" maskUnits="userSpaceOnUse" x="186" y="48" width="28" height="12">
<path d="M209.172 54.3523C208.267 54.3523 207.423 54.7425 206.706 55.4137C205.511 51.5091 202.899 48.7996 199.868 48.7996C197.257 48.7996 194.956 50.8105 193.606 53.8639C192.861 53.1135 191.969 52.6742 191.008 52.6742C188.451 52.6742 186.375 55.7684 186.32 59.6185H192.348H195.696H204.64H207.391H213.705C213.17 56.587 211.344 54.3523 209.172 54.3523Z" fill="white"/>
</mask>
<g mask="url(#mask3_8203_274464)">
<g opacity="0.44">
<path d="M190.981 57.3746C191.115 57.1372 191.846 55.6665 191.494 52.7168C191.481 52.6022 191.407 52.5258 191.333 52.5477C191.257 52.5695 191.208 52.6786 191.221 52.7905C191.576 55.7374 190.768 57.1099 190.76 57.1236V57.1263C190.714 57.0799 190.67 57.0335 190.621 56.9899C189.39 55.9257 189.077 53.399 189.074 53.3744C189.06 53.2598 188.989 53.1834 188.913 53.2053C188.837 53.2244 188.787 53.3335 188.801 53.4481C188.815 53.56 189.139 56.1904 190.482 57.3528C191.693 58.4005 191.655 60.4606 191.655 60.5452C191.653 60.6598 191.713 60.7581 191.789 60.7635C191.792 60.7635 191.792 60.7635 191.794 60.7635C191.868 60.7635 191.928 60.6762 191.934 60.5643C191.931 60.477 191.966 58.6052 190.981 57.3746Z" fill="white"/>
<path d="M205.632 52.9378C205.563 52.8887 205.482 52.9351 205.449 53.0388C205.241 53.7128 204.95 54.1384 204.578 54.3076C203.984 54.5777 203.334 54.1275 203.116 53.9529C203.476 52.8451 203.675 51.5299 203.539 49.9964C203.528 49.8818 203.46 49.8027 203.383 49.8163C203.307 49.8327 203.255 49.9364 203.266 50.051C203.435 51.9282 203.1 53.65 202.273 55.1889C202.267 55.1862 202.262 55.178 202.254 55.1753C201.023 54.7469 200.928 50.2338 200.996 48.5284C201.001 48.4138 200.941 48.3128 200.865 48.3074C200.788 48.3019 200.723 48.3892 200.717 48.5038C200.707 48.763 200.494 54.7005 202.076 55.53C201.975 55.6992 201.872 55.8656 201.76 56.0293C201.042 57.0717 200.281 57.6993 199.992 57.9175C199.743 56.676 199.38 55.399 198.851 54.4877C197.55 52.2475 197.948 49.3415 197.951 49.3115C197.967 49.1996 197.921 49.0878 197.844 49.0632C197.768 49.0386 197.697 49.1096 197.681 49.2242C197.664 49.3388 197.334 51.77 198.27 54.002C196.758 53.6473 195.713 50.7959 195.702 50.7659C195.667 50.6649 195.582 50.6267 195.514 50.6813C195.446 50.7358 195.421 50.8641 195.459 50.965C195.509 51.1042 196.693 54.3431 198.483 54.4549C198.535 54.5586 198.586 54.6623 198.644 54.7633C199.962 57.0335 200.221 61.9231 200.224 61.9723C200.229 62.0814 200.289 62.166 200.36 62.166C200.363 62.166 200.368 62.166 200.371 62.166C200.447 62.1578 200.505 62.0568 200.499 61.9422C200.494 61.8249 200.406 60.1659 200.071 58.3268C200.464 58.0349 202.093 56.7142 202.988 54.3185C203.179 54.474 203.648 54.8069 204.177 54.8069C204.333 54.8069 204.497 54.7769 204.655 54.706C205.105 54.5013 205.457 53.9993 205.7 53.2107C205.733 53.1125 205.703 52.9869 205.632 52.9378Z" fill="white"/>
<path d="M210.693 57.6691C210.652 57.6146 210.611 57.5545 210.57 57.4945C210.873 57.178 211.49 56.3239 211.233 54.7686C211.214 54.6567 211.141 54.5858 211.067 54.6158C210.993 54.6431 210.947 54.7577 210.966 54.8696C211.195 56.2666 210.611 56.9706 210.382 57.1862C209.703 55.9638 209.37 54.1983 209.367 54.1765C209.345 54.0646 209.269 54.0019 209.198 54.0319C209.124 54.0619 209.08 54.1792 209.102 54.2911C209.121 54.3893 209.561 56.7359 210.513 57.9857C211.378 59.1208 211.337 60.4823 211.334 60.5396C211.329 60.6542 211.389 60.7552 211.465 60.7606C211.468 60.7606 211.471 60.7606 211.473 60.7606C211.547 60.7606 211.607 60.6761 211.61 60.5642C211.613 60.5014 211.667 58.9461 210.693 57.6691Z" fill="white"/>
</g>
</g>
<path d="M236.251 83.2173H205.036V144.022H236.251V83.2173Z" fill="#569663"/>
<g opacity="0.44">
<path d="M219.43 110.7H208.895V92.4701C208.895 89.5668 211.258 87.2039 214.161 87.2039C217.064 87.2039 219.427 89.5668 219.427 92.4701V110.7H219.43ZM209.227 110.37H219.1V92.4701C219.1 89.7469 216.884 87.534 214.163 87.534C211.44 87.534 209.227 89.7497 209.227 92.4701V110.37Z" fill="white"/>
</g>
<g opacity="0.44">
<path d="M232.128 110.7H221.593V92.4698C221.593 89.5666 223.956 87.2036 226.862 87.2036C229.765 87.2036 232.128 89.5666 232.128 92.4698V110.7ZM221.923 110.37H231.798V92.4698C231.798 89.7467 229.582 87.5338 226.862 87.5338C224.141 87.5338 221.926 89.7494 221.926 92.4698V110.37H221.923Z" fill="white"/>
</g>
<g opacity="0.44">
<path d="M219.203 125.855H209.121V113.505H219.203V125.855ZM209.454 125.524H218.873V113.838H209.454V125.524Z" fill="white"/>
</g>
<g opacity="0.44">
<path d="M231.902 125.855H221.819V113.505H231.902V125.855ZM222.152 125.525H231.571V113.838H222.152V125.525Z" fill="white"/>
</g>
<g opacity="0.44">
<path d="M219.203 140.821H209.121V128.471H219.203V140.821ZM209.454 140.488H218.873V128.801H209.454V140.488Z" fill="white"/>
</g>
<g opacity="0.44">
<path d="M231.902 140.821H221.819V128.471H231.902V140.821ZM222.152 140.488H231.571V128.802H222.152V140.488Z" fill="white"/>
</g>
<path d="M218.092 109.131V93.6488C218.092 91.2449 216.278 89.2776 214.059 89.2776C211.841 89.2776 210.026 91.2449 210.026 93.6488V109.131H218.092Z" fill="#ABEFF4"/>
<path d="M230.691 109.131V93.6488C230.691 91.2449 228.876 89.2776 226.658 89.2776C224.44 89.2776 222.625 91.2449 222.625 93.6488V109.131H230.691Z" fill="#ABEFF4"/>
<path d="M217.477 115.379H210.521V124.449H217.477V115.379Z" fill="#ABEFF4"/>
<path d="M230.295 115.12H223.34V124.19H230.295V115.12Z" fill="#ABEFF4"/>
<path d="M217.477 130.152H210.521V139.222H217.477V130.152Z" fill="#ABEFF4"/>
<path d="M230.295 129.893H223.34V138.963H230.295V129.893Z" fill="#ABEFF4"/>
<path d="M218.024 105.737C218.046 105.712 218.07 105.687 218.092 105.663V93.6488C218.092 91.2449 216.278 89.2776 214.059 89.2776C211.841 89.2776 210.026 91.2449 210.026 93.6488V109.131H214.845C215.904 107.999 216.963 106.863 218.024 105.737Z" fill="#ABEFF4"/>
<path d="M230.611 92.7782C230.237 90.7863 228.603 89.2747 226.66 89.2747C224.441 89.2747 222.627 91.242 222.627 93.6459V100.901C225.263 98.1699 227.926 95.4659 230.611 92.7782Z" fill="#ABEFF4"/>
<path opacity="0.28" d="M230.69 104.378V99.2861C227.975 102.042 225.29 104.825 222.627 107.633V109.134H225.937L230.69 104.378Z" fill="white"/>
<path opacity="0.28" d="M217.477 117.592V115.379H215.337C213.76 117.044 212.161 118.689 210.521 120.291V124.452H210.62L217.477 117.592Z" fill="white"/>
<path opacity="0.28" d="M229.815 117.18C228.562 118.384 227.332 119.609 226.104 120.837C225.869 121.115 225.634 121.393 225.402 121.672C224.709 122.498 224.025 123.333 223.337 124.171V124.193H230.292V116.725C230.134 116.875 229.973 117.027 229.815 117.18Z" fill="white"/>
<path opacity="0.28" d="M210.521 139.124V139.222H217.477V131.328C215.239 134.008 212.947 136.635 210.521 139.124Z" fill="white"/>
<path opacity="0.28" d="M230.295 129.893H223.34V138.963H230.295V129.893Z" fill="white"/>
<path d="M209.184 115.227C209.184 114.141 208.302 113.259 207.216 113.259C206.13 113.259 205.249 114.141 205.249 115.227C205.249 116.064 205.776 116.779 206.512 117.06V121.827C206.512 122.215 206.829 122.528 207.214 122.528C207.601 122.528 207.915 122.212 207.915 121.827V117.06C208.66 116.779 209.184 116.067 209.184 115.227Z" fill="#2C245C"/>
<path d="M103.837 95.3704H18.5381V148.737H103.837V95.3704Z" fill="#569663"/>
<path opacity="0.46" d="M20.6113 97.8342V148.365H21.0861V148.002H101.288V148.505H101.763V97.8342H20.6113ZM101.288 98.2299V102.047H21.0861V98.2299H101.288ZM21.0861 140.597V137.489H101.288V140.597H21.0861ZM101.288 140.993V144.101H21.0861V140.993H101.288ZM21.0861 137.094V133.986H101.288V137.094H21.0861ZM21.0861 133.587V130.479H101.288V133.587H21.0861ZM21.0861 130.084V126.976H101.288V130.084H21.0861ZM21.0861 126.58V123.47H101.288V126.577H21.0861V126.58ZM21.0861 123.074V119.966H101.288V123.074H21.0861ZM21.0861 119.57V116.462H101.288V119.57H21.0861ZM21.0861 116.067V112.959H101.288V116.067H21.0861ZM21.0861 112.561V109.453H101.288V112.561H21.0861ZM21.0861 109.057V105.949H101.288V109.057H21.0861ZM21.0861 105.553V102.446H101.288V105.553H21.0861ZM21.0861 147.607V144.499H101.288V147.607H21.0861Z" fill="white"/>
<path d="M137.757 124.75C137.967 124.002 138.081 123.216 138.081 122.4C138.081 119.68 136.829 117.254 134.87 115.663C135.571 114.618 135.983 113.358 135.983 112.004C135.983 108.372 133.039 105.428 129.407 105.428C125.775 105.428 122.831 108.372 122.831 112.004C122.831 113.358 123.24 114.618 123.944 115.663C121.985 117.254 120.733 119.68 120.733 122.4C120.733 123.216 120.847 124.002 121.058 124.75C119.134 126.799 117.955 129.552 117.955 132.583C117.955 138.908 123.082 144.038 129.41 144.038C135.735 144.038 140.865 138.911 140.865 132.583C140.859 129.555 139.678 126.799 137.757 124.75Z" fill="#86C598"/>
<path opacity="0.38" d="M129.202 105.439C125.663 105.548 122.828 108.443 122.828 112.007C122.828 113.36 123.237 114.621 123.941 115.666C121.982 117.257 120.73 119.683 120.73 122.403C120.73 123.219 120.844 124.005 121.055 124.752C119.131 126.802 117.952 129.555 117.952 132.586C117.952 138.843 122.97 143.926 129.202 144.035V105.439Z" fill="#569663"/>
<path opacity="0.38" d="M131.685 109.055C131.488 109.543 131.052 109.827 130.711 109.691C130.37 109.554 130.25 109.047 130.446 108.558C130.643 108.07 131.42 107.922 131.42 107.922C131.42 107.922 131.879 108.566 131.685 109.055Z" fill="#569663"/>
<path opacity="0.38" d="M131.265 116.561C131.069 117.049 130.632 117.333 130.291 117.197C129.95 117.06 129.83 116.553 130.026 116.064C130.223 115.576 131 115.428 131 115.428C131 115.428 131.459 116.072 131.265 116.561Z" fill="#569663"/>
<path opacity="0.38" d="M131.961 112.544C131.765 113.033 131.328 113.317 130.987 113.18C130.646 113.044 130.526 112.536 130.722 112.048C130.919 111.559 131.697 111.412 131.697 111.412C131.697 111.412 132.158 112.056 131.961 112.544Z" fill="#569663"/>
<path opacity="0.38" d="M134.045 110.261C133.849 110.749 133.412 111.033 133.071 110.896C132.73 110.76 132.61 110.252 132.806 109.764C133.003 109.276 133.781 109.128 133.781 109.128C133.781 109.128 134.242 109.772 134.045 110.261Z" fill="#569663"/>
<path opacity="0.38" d="M133.994 117.715C133.798 118.204 133.361 118.487 133.02 118.351C132.679 118.214 132.559 117.707 132.756 117.219C132.952 116.73 133.73 116.583 133.73 116.583C133.73 116.583 134.191 117.227 133.994 117.715Z" fill="#569663"/>
<path opacity="0.38" d="M131.84 125.904C131.644 126.392 131.207 126.676 130.866 126.539C130.525 126.403 130.405 125.895 130.601 125.407C130.798 124.919 131.575 124.771 131.575 124.771C131.575 124.771 132.037 125.415 131.84 125.904Z" fill="#569663"/>
<path opacity="0.38" d="M134.414 123.175C134.218 123.664 133.781 123.947 133.44 123.811C133.099 123.674 132.979 123.167 133.176 122.678C133.372 122.19 134.15 122.043 134.15 122.043C134.15 122.043 134.611 122.687 134.414 123.175Z" fill="#569663"/>
<path opacity="0.38" d="M131.961 131.863C131.765 132.352 131.328 132.635 130.987 132.499C130.646 132.362 130.526 131.855 130.722 131.366C130.919 130.878 131.697 130.731 131.697 130.731C131.697 130.731 132.158 131.375 131.961 131.863Z" fill="#569663"/>
<path opacity="0.38" d="M134.308 128.632C134.111 129.121 133.675 129.405 133.334 129.268C132.993 129.132 132.873 128.624 133.069 128.136C133.266 127.647 134.043 127.5 134.043 127.5C134.043 127.5 134.504 128.144 134.308 128.632Z" fill="#569663"/>
<path opacity="0.38" d="M135.636 133.227C135.44 133.716 135.003 134 134.662 133.863C134.321 133.727 134.201 133.219 134.397 132.731C134.594 132.242 135.371 132.095 135.371 132.095C135.371 132.095 135.83 132.739 135.636 133.227Z" fill="#569663"/>
<path opacity="0.38" d="M134.375 140.103C134.179 140.592 133.742 140.876 133.401 140.739C133.06 140.603 132.94 140.095 133.137 139.607C133.333 139.118 134.111 138.971 134.111 138.971C134.111 138.971 134.572 139.615 134.375 140.103Z" fill="#569663"/>
<path opacity="0.38" d="M137.735 137.217C137.538 137.705 137.102 137.989 136.761 137.852C136.419 137.716 136.299 137.208 136.496 136.72C136.692 136.232 137.47 136.084 137.47 136.084C137.47 136.084 137.931 136.728 137.735 137.217Z" fill="#569663"/>
<path opacity="0.38" d="M132.591 136.273C132.395 136.761 131.958 137.045 131.617 136.908C131.276 136.772 131.156 136.264 131.352 135.776C131.549 135.287 132.326 135.14 132.326 135.14C132.326 135.14 132.788 135.784 132.591 136.273Z" fill="#569663"/>
<path opacity="0.38" d="M131.557 141.337C131.36 141.825 130.924 142.109 130.583 141.973C130.242 141.836 130.122 141.329 130.318 140.84C130.515 140.352 131.292 140.205 131.292 140.205C131.292 140.205 131.753 140.849 131.557 141.337Z" fill="#569663"/>
<path opacity="0.38" d="M134.638 113.805C134.442 114.294 134.005 114.577 133.664 114.441C133.323 114.305 133.203 113.797 133.399 113.309C133.596 112.82 134.373 112.673 134.373 112.673C134.373 112.673 134.834 113.317 134.638 113.805Z" fill="#569663"/>
<path opacity="0.38" d="M131.592 120.788C131.396 121.276 130.959 121.56 130.618 121.423C130.277 121.287 130.157 120.779 130.353 120.291C130.55 119.803 131.327 119.655 131.327 119.655C131.327 119.655 131.789 120.299 131.592 120.788Z" fill="#569663"/>
<path opacity="0.38" d="M136.319 120.051C136.122 120.539 135.686 120.823 135.345 120.687C135.003 120.55 134.883 120.043 135.08 119.554C135.276 119.066 136.054 118.919 136.054 118.919C136.054 118.919 136.515 119.563 136.319 120.051Z" fill="#569663"/>
<path opacity="0.38" d="M137.001 125.459C136.805 125.947 136.368 126.231 136.027 126.095C135.686 125.958 135.566 125.451 135.763 124.962C135.959 124.474 136.737 124.327 136.737 124.327C136.737 124.327 137.198 124.971 137.001 125.459Z" fill="#569663"/>
<path opacity="0.38" d="M138.313 129.238C138.116 129.727 137.68 130.01 137.339 129.874C136.998 129.737 136.878 129.23 137.074 128.741C137.27 128.253 138.048 128.106 138.048 128.106C138.048 128.106 138.509 128.75 138.313 129.238Z" fill="#569663"/>
<path opacity="0.38" d="M139.781 133.386C139.584 133.874 139.148 134.158 138.806 134.021C138.465 133.885 138.345 133.377 138.542 132.889C138.738 132.401 139.516 132.253 139.516 132.253C139.516 132.253 139.977 132.897 139.781 133.386Z" fill="#569663"/>
<path d="M126.951 108.004C127.148 108.492 127.584 108.776 127.925 108.64C128.266 108.503 128.386 107.996 128.19 107.507C127.993 107.019 127.216 106.872 127.216 106.872C127.216 106.872 126.755 107.516 126.951 108.004Z" fill="#86C598"/>
<path d="M127.368 115.51C127.565 115.999 128.001 116.283 128.342 116.146C128.683 116.01 128.803 115.502 128.607 115.014C128.41 114.525 127.633 114.378 127.633 114.378C127.633 114.378 127.174 115.022 127.368 115.51Z" fill="#86C598"/>
<path d="M126.673 111.497C126.869 111.985 127.306 112.269 127.647 112.132C127.988 111.996 128.108 111.488 127.912 111C127.715 110.512 126.937 110.364 126.937 110.364C126.937 110.364 126.476 111.008 126.673 111.497Z" fill="#86C598"/>
<path d="M124.588 109.21C124.784 109.698 125.221 109.982 125.562 109.846C125.903 109.709 126.023 109.202 125.827 108.713C125.63 108.225 124.852 108.078 124.852 108.078C124.852 108.078 124.391 108.722 124.588 109.21Z" fill="#86C598"/>
<path d="M124.641 116.665C124.837 117.153 125.274 117.437 125.615 117.3C125.956 117.164 126.076 116.656 125.879 116.168C125.683 115.68 124.905 115.532 124.905 115.532C124.905 115.532 124.444 116.176 124.641 116.665Z" fill="#86C598"/>
<path d="M126.793 124.853C126.989 125.341 127.426 125.625 127.767 125.489C128.108 125.352 128.228 124.845 128.032 124.356C127.835 123.868 127.058 123.721 127.058 123.721C127.058 123.721 126.596 124.365 126.793 124.853Z" fill="#86C598"/>
<path d="M124.22 122.125C124.416 122.613 124.853 122.897 125.194 122.76C125.535 122.624 125.655 122.116 125.458 121.628C125.262 121.14 124.484 120.992 124.484 120.992C124.484 120.992 124.023 121.636 124.22 122.125Z" fill="#86C598"/>
<path d="M126.673 130.813C126.869 131.301 127.306 131.585 127.647 131.448C127.988 131.312 128.108 130.804 127.912 130.316C127.715 129.828 126.937 129.68 126.937 129.68C126.937 129.68 126.476 130.324 126.673 130.813Z" fill="#86C598"/>
<path d="M124.326 127.585C124.523 128.073 124.959 128.357 125.3 128.22C125.641 128.084 125.761 127.576 125.565 127.088C125.368 126.599 124.591 126.452 124.591 126.452C124.591 126.452 124.13 127.096 124.326 127.585Z" fill="#86C598"/>
<path d="M122.998 132.177C123.194 132.665 123.631 132.949 123.972 132.813C124.313 132.676 124.433 132.169 124.237 131.68C124.04 131.192 123.263 131.044 123.263 131.044C123.263 131.044 122.804 131.688 122.998 132.177Z" fill="#86C598"/>
<path d="M124.259 139.053C124.455 139.541 124.892 139.825 125.233 139.689C125.574 139.552 125.694 139.045 125.497 138.556C125.301 138.068 124.523 137.921 124.523 137.921C124.523 137.921 124.062 138.565 124.259 139.053Z" fill="#86C598"/>
<path d="M120.899 136.166C121.096 136.654 121.532 136.938 121.873 136.802C122.215 136.665 122.335 136.158 122.138 135.669C121.942 135.181 121.164 135.034 121.164 135.034C121.164 135.034 120.703 135.678 120.899 136.166Z" fill="#86C598"/>
<path d="M126.042 135.222C126.238 135.71 126.675 135.994 127.016 135.858C127.357 135.721 127.477 135.214 127.281 134.725C127.084 134.237 126.307 134.09 126.307 134.09C126.307 134.09 125.845 134.734 126.042 135.222Z" fill="#86C598"/>
<path d="M127.077 140.286C127.274 140.775 127.71 141.058 128.051 140.922C128.392 140.786 128.512 140.278 128.316 139.79C128.119 139.301 127.342 139.154 127.342 139.154C127.342 139.154 126.881 139.798 127.077 140.286Z" fill="#86C598"/>
<path d="M123.996 112.754C124.192 113.243 124.629 113.527 124.97 113.39C125.311 113.254 125.431 112.746 125.235 112.258C125.038 111.769 124.261 111.622 124.261 111.622C124.261 111.622 123.8 112.266 123.996 112.754Z" fill="#86C598"/>
<path d="M127.041 119.737C127.237 120.226 127.674 120.509 128.015 120.373C128.356 120.236 128.476 119.729 128.28 119.24C128.083 118.752 127.306 118.605 127.306 118.605C127.306 118.605 126.844 119.249 127.041 119.737Z" fill="#86C598"/>
<path d="M122.315 119.003C122.512 119.491 122.948 119.775 123.289 119.639C123.631 119.502 123.751 118.995 123.554 118.506C123.358 118.018 122.58 117.871 122.58 117.871C122.58 117.871 122.122 118.515 122.315 119.003Z" fill="#86C598"/>
<path d="M121.634 124.408C121.83 124.897 122.267 125.181 122.608 125.044C122.949 124.908 123.069 124.4 122.872 123.912C122.676 123.423 121.898 123.276 121.898 123.276C121.898 123.276 121.437 123.92 121.634 124.408Z" fill="#86C598"/>
<path d="M120.321 128.188C120.518 128.676 120.954 128.96 121.295 128.823C121.636 128.687 121.756 128.179 121.56 127.691C121.364 127.203 120.586 127.055 120.586 127.055C120.586 127.055 120.125 127.699 120.321 128.188Z" fill="#86C598"/>
<path d="M118.852 132.335C119.049 132.823 119.485 133.107 119.827 132.971C120.168 132.834 120.288 132.327 120.091 131.838C119.895 131.35 119.117 131.203 119.117 131.203C119.117 131.203 118.656 131.847 118.852 132.335Z" fill="#86C598"/>
<path d="M143.593 135.533H114.763V145.869H143.593V135.533Z" fill="#569663"/>
<path opacity="0.25" d="M129.336 135.533H114.763V145.869H129.336V135.533Z" fill="#5767BE"/>
<g opacity="0.46">
<path d="M141.523 144.598H116.385V136.805H141.523V144.598ZM116.707 144.278H141.204V137.127H116.707V144.278Z" fill="white"/>
</g>
<path d="M270.383 124.75C270.593 124.002 270.707 123.216 270.707 122.4C270.707 119.68 269.455 117.254 267.496 115.663C268.197 114.618 268.609 113.358 268.609 112.004C268.609 108.372 265.665 105.428 262.033 105.428C258.401 105.428 255.457 108.372 255.457 112.004C255.457 113.358 255.866 114.618 256.57 115.663C254.611 117.254 253.359 119.68 253.359 122.4C253.359 123.216 253.473 124.002 253.683 124.75C251.76 126.799 250.581 129.552 250.581 132.583C250.581 138.908 255.708 144.038 262.036 144.038C268.361 144.038 273.49 138.911 273.49 132.583C273.485 129.555 272.304 126.799 270.383 124.75Z" fill="#86C598"/>
<path opacity="0.38" d="M261.828 105.439C258.289 105.548 255.454 108.443 255.454 112.007C255.454 113.36 255.863 114.621 256.567 115.666C254.608 117.257 253.356 119.683 253.356 122.403C253.356 123.219 253.47 124.005 253.681 124.752C251.757 126.802 250.578 129.555 250.578 132.586C250.578 138.843 255.596 143.926 261.828 144.035V105.439Z" fill="#569663"/>
<path opacity="0.38" d="M264.311 109.055C264.114 109.543 263.678 109.827 263.337 109.691C262.996 109.554 262.876 109.047 263.072 108.558C263.269 108.07 264.046 107.922 264.046 107.922C264.046 107.922 264.505 108.566 264.311 109.055Z" fill="#569663"/>
<path opacity="0.38" d="M263.891 116.561C263.694 117.049 263.258 117.333 262.917 117.197C262.576 117.06 262.456 116.553 262.652 116.064C262.849 115.576 263.626 115.428 263.626 115.428C263.626 115.428 264.085 116.072 263.891 116.561Z" fill="#569663"/>
<path opacity="0.38" d="M264.587 112.544C264.391 113.033 263.954 113.317 263.613 113.18C263.272 113.044 263.152 112.536 263.348 112.048C263.545 111.559 264.323 111.412 264.323 111.412C264.323 111.412 264.784 112.056 264.587 112.544Z" fill="#569663"/>
<path opacity="0.38" d="M266.671 110.261C266.475 110.749 266.038 111.033 265.697 110.896C265.356 110.76 265.236 110.252 265.432 109.764C265.629 109.276 266.407 109.128 266.407 109.128C266.407 109.128 266.868 109.772 266.671 110.261Z" fill="#569663"/>
<path opacity="0.38" d="M266.62 117.715C266.424 118.204 265.987 118.487 265.646 118.351C265.305 118.214 265.185 117.707 265.382 117.219C265.578 116.73 266.356 116.583 266.356 116.583C266.356 116.583 266.817 117.227 266.62 117.715Z" fill="#569663"/>
<path opacity="0.38" d="M264.466 125.904C264.27 126.392 263.833 126.676 263.492 126.539C263.151 126.403 263.031 125.895 263.227 125.407C263.424 124.919 264.201 124.771 264.201 124.771C264.201 124.771 264.663 125.415 264.466 125.904Z" fill="#569663"/>
<path opacity="0.38" d="M267.04 123.175C266.844 123.664 266.407 123.947 266.066 123.811C265.725 123.674 265.605 123.167 265.802 122.678C265.998 122.19 266.776 122.043 266.776 122.043C266.776 122.043 267.237 122.687 267.04 123.175Z" fill="#569663"/>
<path opacity="0.38" d="M264.587 131.863C264.391 132.352 263.954 132.635 263.613 132.499C263.272 132.362 263.152 131.855 263.348 131.366C263.545 130.878 264.323 130.731 264.323 130.731C264.323 130.731 264.784 131.375 264.587 131.863Z" fill="#569663"/>
<path opacity="0.38" d="M266.934 128.632C266.737 129.121 266.301 129.405 265.96 129.268C265.619 129.132 265.499 128.624 265.695 128.136C265.892 127.647 266.669 127.5 266.669 127.5C266.669 127.5 267.13 128.144 266.934 128.632Z" fill="#569663"/>
<path opacity="0.38" d="M268.262 133.227C268.066 133.716 267.629 134 267.288 133.863C266.947 133.727 266.827 133.219 267.023 132.731C267.22 132.242 267.997 132.095 267.997 132.095C267.997 132.095 268.456 132.739 268.262 133.227Z" fill="#569663"/>
<path opacity="0.38" d="M267.001 140.103C266.805 140.592 266.368 140.876 266.027 140.739C265.686 140.603 265.566 140.095 265.762 139.607C265.959 139.118 266.737 138.971 266.737 138.971C266.737 138.971 267.198 139.615 267.001 140.103Z" fill="#569663"/>
<path opacity="0.38" d="M270.361 137.217C270.164 137.705 269.728 137.989 269.387 137.852C269.045 137.716 268.925 137.208 269.122 136.72C269.318 136.232 270.096 136.084 270.096 136.084C270.096 136.084 270.557 136.728 270.361 137.217Z" fill="#569663"/>
<path opacity="0.38" d="M265.217 136.273C265.021 136.761 264.584 137.045 264.243 136.908C263.902 136.772 263.782 136.264 263.978 135.776C264.175 135.287 264.952 135.14 264.952 135.14C264.952 135.14 265.414 135.784 265.217 136.273Z" fill="#569663"/>
<path opacity="0.38" d="M264.183 141.337C263.986 141.825 263.55 142.109 263.209 141.973C262.868 141.836 262.748 141.329 262.944 140.84C263.141 140.352 263.918 140.205 263.918 140.205C263.918 140.205 264.379 140.849 264.183 141.337Z" fill="#569663"/>
<path opacity="0.38" d="M267.264 113.805C267.068 114.294 266.631 114.577 266.29 114.441C265.949 114.305 265.829 113.797 266.025 113.309C266.222 112.82 266.999 112.673 266.999 112.673C266.999 112.673 267.46 113.317 267.264 113.805Z" fill="#569663"/>
<path opacity="0.38" d="M264.218 120.788C264.022 121.276 263.585 121.56 263.244 121.423C262.903 121.287 262.783 120.779 262.979 120.291C263.176 119.803 263.953 119.655 263.953 119.655C263.953 119.655 264.415 120.299 264.218 120.788Z" fill="#569663"/>
<path opacity="0.38" d="M268.945 120.051C268.748 120.539 268.312 120.823 267.971 120.687C267.629 120.55 267.509 120.043 267.706 119.554C267.902 119.066 268.68 118.919 268.68 118.919C268.68 118.919 269.141 119.563 268.945 120.051Z" fill="#569663"/>
<path opacity="0.38" d="M269.626 125.459C269.43 125.947 268.993 126.231 268.652 126.095C268.311 125.958 268.191 125.451 268.387 124.962C268.584 124.474 269.362 124.327 269.362 124.327C269.362 124.327 269.823 124.971 269.626 125.459Z" fill="#569663"/>
<path opacity="0.38" d="M270.939 129.238C270.742 129.727 270.306 130.01 269.965 129.874C269.624 129.737 269.504 129.23 269.7 128.741C269.896 128.253 270.674 128.106 270.674 128.106C270.674 128.106 271.135 128.75 270.939 129.238Z" fill="#569663"/>
<path opacity="0.38" d="M272.407 133.386C272.21 133.874 271.774 134.158 271.432 134.021C271.091 133.885 270.971 133.377 271.168 132.889C271.364 132.401 272.142 132.253 272.142 132.253C272.142 132.253 272.603 132.897 272.407 133.386Z" fill="#569663"/>
<path d="M259.577 108.004C259.774 108.492 260.21 108.776 260.551 108.64C260.892 108.503 261.012 107.996 260.816 107.507C260.619 107.019 259.842 106.872 259.842 106.872C259.842 106.872 259.381 107.516 259.577 108.004Z" fill="#86C598"/>
<path d="M259.994 115.51C260.19 115.999 260.627 116.283 260.968 116.146C261.309 116.01 261.429 115.502 261.233 115.014C261.036 114.525 260.259 114.378 260.259 114.378C260.259 114.378 259.8 115.022 259.994 115.51Z" fill="#86C598"/>
<path d="M259.299 111.497C259.495 111.985 259.932 112.269 260.273 112.132C260.614 111.996 260.734 111.488 260.538 111C260.341 110.512 259.563 110.364 259.563 110.364C259.563 110.364 259.102 111.008 259.299 111.497Z" fill="#86C598"/>
<path d="M257.214 109.21C257.41 109.698 257.847 109.982 258.188 109.846C258.529 109.709 258.649 109.202 258.453 108.713C258.256 108.225 257.478 108.078 257.478 108.078C257.478 108.078 257.017 108.722 257.214 109.21Z" fill="#86C598"/>
<path d="M257.266 116.665C257.463 117.153 257.9 117.437 258.241 117.3C258.582 117.164 258.702 116.656 258.505 116.168C258.309 115.68 257.531 115.532 257.531 115.532C257.531 115.532 257.07 116.176 257.266 116.665Z" fill="#86C598"/>
<path d="M259.419 124.853C259.615 125.341 260.052 125.625 260.393 125.489C260.734 125.352 260.854 124.845 260.658 124.356C260.461 123.868 259.684 123.721 259.684 123.721C259.684 123.721 259.222 124.365 259.419 124.853Z" fill="#86C598"/>
<path d="M256.846 122.125C257.042 122.613 257.479 122.897 257.82 122.76C258.161 122.624 258.281 122.116 258.084 121.628C257.888 121.14 257.11 120.992 257.11 120.992C257.11 120.992 256.649 121.636 256.846 122.125Z" fill="#86C598"/>
<path d="M259.299 130.813C259.495 131.301 259.932 131.585 260.273 131.448C260.614 131.312 260.734 130.804 260.538 130.316C260.341 129.828 259.563 129.68 259.563 129.68C259.563 129.68 259.102 130.324 259.299 130.813Z" fill="#86C598"/>
<path d="M256.952 127.585C257.149 128.073 257.585 128.357 257.926 128.22C258.267 128.084 258.387 127.576 258.191 127.088C257.994 126.599 257.217 126.452 257.217 126.452C257.217 126.452 256.756 127.096 256.952 127.585Z" fill="#86C598"/>
<path d="M255.623 132.177C255.819 132.665 256.256 132.949 256.597 132.813C256.938 132.676 257.058 132.169 256.862 131.68C256.665 131.192 255.888 131.044 255.888 131.044C255.888 131.044 255.429 131.688 255.623 132.177Z" fill="#86C598"/>
<path d="M256.884 139.053C257.08 139.541 257.517 139.825 257.858 139.689C258.199 139.552 258.319 139.045 258.122 138.556C257.926 138.068 257.148 137.921 257.148 137.921C257.148 137.921 256.687 138.565 256.884 139.053Z" fill="#86C598"/>
<path d="M253.525 136.166C253.722 136.654 254.158 136.938 254.499 136.802C254.84 136.665 254.961 136.158 254.764 135.669C254.568 135.181 253.79 135.034 253.79 135.034C253.79 135.034 253.329 135.678 253.525 136.166Z" fill="#86C598"/>
<path d="M258.668 135.222C258.864 135.71 259.301 135.994 259.642 135.858C259.983 135.721 260.103 135.214 259.907 134.725C259.71 134.237 258.933 134.09 258.933 134.09C258.933 134.09 258.471 134.734 258.668 135.222Z" fill="#86C598"/>
<path d="M259.703 140.286C259.899 140.775 260.336 141.058 260.677 140.922C261.018 140.786 261.138 140.278 260.942 139.79C260.745 139.301 259.968 139.154 259.968 139.154C259.968 139.154 259.507 139.798 259.703 140.286Z" fill="#86C598"/>
<path d="M256.622 112.754C256.818 113.243 257.255 113.527 257.596 113.39C257.937 113.254 258.057 112.746 257.861 112.258C257.664 111.769 256.887 111.622 256.887 111.622C256.887 111.622 256.426 112.266 256.622 112.754Z" fill="#86C598"/>
<path d="M259.667 119.737C259.863 120.226 260.3 120.509 260.641 120.373C260.982 120.236 261.102 119.729 260.906 119.24C260.709 118.752 259.932 118.605 259.932 118.605C259.932 118.605 259.47 119.249 259.667 119.737Z" fill="#86C598"/>
<path d="M254.941 119.003C255.138 119.491 255.574 119.775 255.915 119.639C256.256 119.502 256.377 118.995 256.18 118.506C255.984 118.018 255.206 117.871 255.206 117.871C255.206 117.871 254.748 118.515 254.941 119.003Z" fill="#86C598"/>
<path d="M254.259 124.408C254.455 124.897 254.892 125.181 255.233 125.044C255.574 124.908 255.694 124.4 255.497 123.912C255.301 123.423 254.523 123.276 254.523 123.276C254.523 123.276 254.062 123.92 254.259 124.408Z" fill="#86C598"/>
<path d="M252.946 128.188C253.143 128.676 253.579 128.96 253.92 128.823C254.261 128.687 254.381 128.179 254.185 127.691C253.989 127.203 253.211 127.055 253.211 127.055C253.211 127.055 252.752 127.699 252.946 128.188Z" fill="#86C598"/>
<path d="M251.478 132.335C251.675 132.823 252.111 133.107 252.453 132.971C252.794 132.834 252.914 132.327 252.717 131.838C252.521 131.35 251.743 131.203 251.743 131.203C251.743 131.203 251.282 131.847 251.478 132.335Z" fill="#86C598"/>
<path d="M276.222 135.533H247.392V145.869H276.222V135.533Z" fill="#569663"/>
<path opacity="0.25" d="M261.965 135.533H247.392V145.869H261.965V135.533Z" fill="#5767BE"/>
<g opacity="0.46">
<path d="M274.151 144.598H249.013V136.805H274.151V144.598ZM249.332 144.278H273.829V137.127H249.332V144.278Z" fill="white"/>
</g>
<path d="M215.94 62.9117C215.94 62.9117 209.542 53.7135 212.076 52.7312C214.614 51.7516 216.581 60.4996 215.94 62.9117Z" fill="#86C598"/>
<path d="M215.897 62.7725C215.897 62.7725 222.295 53.5716 219.76 52.592C217.223 51.6125 215.255 60.3604 215.897 62.7725Z" fill="#86C598"/>
<path d="M216.101 60.827C216.101 60.827 212.786 50.1227 215.501 49.9562C218.213 49.7871 217.441 58.7233 216.101 60.827Z" fill="#86C598"/>
<path d="M251.417 59.3499H186.031V69.7268H251.417V59.3499Z" fill="#569663"/>
<g opacity="0.5">
<path d="M118.96 63.1919H2.04395V63.7103H118.96V63.1919Z" fill="#2C245C"/>
</g>
<g opacity="0.5">
<path d="M257.854 2.60068L104.647 25.3059L104.723 25.816L257.929 3.11082L257.854 2.60068Z" fill="#2C245C"/>
</g>
</svg>
