<svg width="30" height="31" viewBox="0 0 30 31" fill="none" xmlns="http://www.w3.org/2000/svg">
<circle cx="15" cy="15.8243" r="15" fill="#E1EEEE"/>
<mask id="mask0_6781_882844" style="mask-type:alpha" maskUnits="userSpaceOnUse" x="5" y="5" width="20" height="21">
<rect x="5" y="5.82434" width="20" height="20" fill="#D9D9D9"/>
</mask>
<g mask="url(#mask0_6781_882844)">
<path d="M21.625 23.3243C19.8889 23.3243 18.1736 22.9459 16.4792 22.1889C14.7847 21.432 13.2431 20.3591 11.8542 18.9702C10.4653 17.5813 9.39236 16.0396 8.63542 14.3452C7.87847 12.6507 7.5 10.9355 7.5 9.19934C7.5 8.94934 7.58333 8.74101 7.75 8.57434C7.91667 8.40767 8.125 8.32434 8.375 8.32434H11.75C11.9444 8.32434 12.1181 8.39031 12.2708 8.52226C12.4236 8.6542 12.5139 8.81045 12.5417 8.99101L13.0833 11.9077C13.1111 12.1299 13.1042 12.3174 13.0625 12.4702C13.0208 12.623 12.9444 12.7549 12.8333 12.866L10.8125 14.9077C11.0903 15.4216 11.4201 15.9181 11.8021 16.3973C12.184 16.8764 12.6042 17.3382 13.0625 17.7827C13.4931 18.2132 13.9444 18.6125 14.4167 18.9806C14.8889 19.3486 15.3889 19.6855 15.9167 19.991L17.875 18.0327C18 17.9077 18.1632 17.8139 18.3646 17.7514C18.566 17.6889 18.7639 17.6716 18.9583 17.6993L21.8333 18.2827C22.0278 18.3382 22.1875 18.4389 22.3125 18.5848C22.4375 18.7306 22.5 18.8938 22.5 19.0743V22.4493C22.5 22.6993 22.4167 22.9077 22.25 23.0743C22.0833 23.241 21.875 23.3243 21.625 23.3243Z" fill="#2A878B"/>
</g>
</svg>
