<svg width="40" height="41" viewBox="0 0 40 41" fill="none" xmlns="http://www.w3.org/2000/svg">
<path d="M20.0002 3.32091C10.3486 3.32091 2.49695 11.1728 2.49695 20.824C2.49695 30.4756 10.3486 38.3278 20.0002 38.3278C29.6512 38.3278 37.5035 30.4756 37.5035 20.824C37.5035 11.1728 29.6512 3.32091 20.0002 3.32091ZM24.9471 14.3703C24.9471 14.4532 24.9142 14.5326 24.8556 14.5913C24.797 14.6499 24.7175 14.6828 24.6346 14.6828L22.6449 14.684C21.3321 14.684 21.0921 15.1953 21.0921 16.2022V18.2909H24.5046C24.5943 18.2909 24.6799 18.3297 24.739 18.3972C24.7981 18.4647 24.8256 18.5543 24.8146 18.6434L24.3287 22.4037C24.319 22.4791 24.2821 22.5483 24.2251 22.5984C24.168 22.6486 24.0946 22.6762 24.0187 22.6762H21.0921V32.0134C21.0921 32.0963 21.0592 32.1758 21.0006 32.2344C20.942 32.293 20.8625 32.3259 20.7796 32.3259H16.8971C16.8142 32.3259 16.7347 32.293 16.6761 32.2344C16.6175 32.1758 16.5846 32.0963 16.5846 32.0134V22.6762H13.6486C13.5657 22.6762 13.4862 22.6433 13.4276 22.5847C13.369 22.5261 13.3361 22.4466 13.3361 22.3637V18.6034C13.3361 18.5205 13.369 18.441 13.4276 18.3824C13.4862 18.3238 13.5657 18.2909 13.6486 18.2909H16.5846V15.83C16.5846 12.5706 18.5571 10.5462 21.733 10.5462C23.0984 10.5462 24.3049 10.6478 24.6756 10.6968C24.7507 10.7068 24.8196 10.7436 24.8696 10.8006C24.9195 10.8576 24.9471 10.9308 24.9471 11.0065V14.3703Z" fill="#2A878B"/>
</svg>
