<svg width="40" height="41" viewBox="0 0 40 41" fill="none" xmlns="http://www.w3.org/2000/svg">
<circle cx="20.5" cy="21.3243" r="17.5" fill="#2A878B"/>
<path d="M11.3959 21.3243C11.3959 17.0326 11.3959 14.8867 12.7291 13.5534C14.0624 12.2202 16.2083 12.2202 20.5 12.2202C24.7917 12.2202 26.9376 12.2202 28.271 13.5534C29.6042 14.8867 29.6042 17.0326 29.6042 21.3243C29.6042 25.616 29.6042 27.7619 28.271 29.0953C26.9376 30.4285 24.7917 30.4285 20.5 30.4285C16.2083 30.4285 14.0624 30.4285 12.7291 29.0953C11.3959 27.7619 11.3959 25.616 11.3959 21.3243Z" stroke="white" stroke-width="1.5" stroke-linejoin="round"/>
<path d="M24.8125 21.3243C24.8125 23.7061 22.8817 25.6368 20.5 25.6368C18.1183 25.6368 16.1875 23.7061 16.1875 21.3243C16.1875 18.9426 18.1183 17.0118 20.5 17.0118C22.8817 17.0118 24.8125 18.9426 24.8125 21.3243Z" stroke="white" stroke-width="1.5"/>
<path d="M25.7799 16.0535H25.7709" stroke="white" stroke-width="2" stroke-linecap="round" stroke-linejoin="round"/>
</svg>
