<svg width="40" height="41" viewBox="0 0 40 41" fill="none" xmlns="http://www.w3.org/2000/svg">
<path d="M19.9905 4.15767C16.6942 4.15767 13.4718 5.13515 10.731 6.96651C7.9902 8.79787 5.854 11.4008 4.59253 14.4463C3.33107 17.4917 3.00102 20.8428 3.64411 24.0758C4.28719 27.3089 5.87454 30.2786 8.20541 32.6094C10.5363 34.9403 13.506 36.5277 16.739 37.1708C19.972 37.8138 23.3231 37.4838 26.3686 36.2223C29.414 34.9609 32.017 32.8247 33.8484 30.0838C35.6797 27.343 36.6572 24.1207 36.6572 20.8243C36.6574 18.6356 36.2264 16.4682 35.3889 14.4461C34.5514 12.4239 33.3237 10.5865 31.776 9.03882C30.2284 7.49114 28.391 6.26349 26.3688 5.42597C24.3466 4.58846 22.1793 4.15749 19.9905 4.15767ZM25.2897 29.4118C25.2273 29.5673 25.1324 29.7078 25.0113 29.8236C24.8902 29.9395 24.7458 30.0281 24.5876 30.0836C24.4295 30.1391 24.2613 30.1601 24.0944 30.1453C23.9274 30.1305 23.7656 30.0801 23.6197 29.9976L19.0953 26.482L16.1914 29.161C16.124 29.2108 16.0452 29.2428 15.9622 29.2542C15.8792 29.2655 15.7947 29.2558 15.7164 29.2259L16.2731 24.2451L16.2909 24.2593L16.3023 24.1609C16.3023 24.1609 24.4439 16.7484 24.7756 16.4326C25.1114 16.1176 25.0006 16.0493 25.0006 16.0493C25.0197 15.6651 24.3981 16.0493 24.3981 16.0493L13.6105 22.9893L9.11804 21.4593C9.11804 21.4593 8.42804 21.2118 8.36304 20.6677C8.29471 20.1277 9.14053 19.8343 9.14053 19.8343L27.0022 12.7385C27.0022 12.7385 28.4705 12.0843 28.4705 13.1677L25.2897 29.4118Z" fill="#2A878B"/>
</svg>
