<svg width="40" height="41" viewBox="0 0 40 41" fill="none" xmlns="http://www.w3.org/2000/svg">
<path d="M36.6667 10.491C35.4139 11.0345 34.0891 11.3938 32.7334 11.5577C34.1637 10.7032 35.2355 9.35898 35.75 7.77434C34.406 8.57444 32.9346 9.13817 31.4 9.44101C30.3743 8.32863 29.0083 7.58817 27.5164 7.33576C26.0245 7.08335 24.4909 7.33327 23.1564 8.04632C21.8218 8.75937 20.7616 9.89522 20.1421 11.2757C19.5226 12.6562 19.3789 14.2033 19.7334 15.6743C17.0158 15.5369 14.3574 14.8293 11.9311 13.5974C9.50482 12.3656 7.36478 10.6372 5.65004 8.52434C5.0486 9.57462 4.73257 10.764 4.73337 11.9743C4.73124 13.0983 5.00707 14.2054 5.5363 15.1969C6.06553 16.1885 6.83174 17.0339 7.76671 17.6577C6.68 17.6281 5.61652 17.3365 4.66671 16.8077V16.891C4.67485 18.4658 5.2267 19.9895 6.2289 21.2043C7.2311 22.4191 8.62213 23.2504 10.1667 23.5577C9.57213 23.7386 8.95483 23.834 8.33337 23.841C7.90319 23.836 7.47408 23.797 7.05004 23.7243C7.48989 25.079 8.34108 26.2629 9.48517 27.1113C10.6293 27.9596 12.0093 28.4303 13.4334 28.4577C11.0287 30.3498 8.05985 31.3824 5.00004 31.391C4.44293 31.3928 3.88627 31.3594 3.33337 31.291C6.45742 33.3081 10.0981 34.3789 13.8167 34.3743C16.3829 34.401 18.9286 33.916 21.3052 32.9478C23.6819 31.9796 25.8417 30.5475 27.6587 28.7352C29.4757 26.9229 30.9133 24.7667 31.8876 22.3925C32.862 20.0184 33.3534 17.4739 33.3334 14.9077C33.3334 14.6243 33.3334 14.3243 33.3334 14.0243C34.6412 13.049 35.7692 11.8534 36.6667 10.491Z" fill="#2A878B"/>
</svg>
