<svg width="316" height="206" viewBox="0 0 316 206" fill="none" xmlns="http://www.w3.org/2000/svg">
<path fill-rule="evenodd" clip-rule="evenodd" d="M312.127 18.6238V187.297C312.127 195.985 305.112 203 296.503 203H18.7035C10.0148 203 3 195.985 3 187.297V18.6238C3 10.0148 10.0148 3 18.7035 3H296.503C305.112 3 312.127 10.0148 312.127 18.6238Z" fill="white" stroke="#CDCDCD" stroke-width="6" stroke-miterlimit="10"/>
<path d="M124.107 53.4579V52.9579H123.607H34.0888H33.5888V53.4579V148.396L34.582 148.478C34.663 147.993 34.7338 147.746 34.7752 147.663L34.8037 147.606L34.817 147.544C35.3056 145.251 36.5815 143.729 37.7441 142.774C38.3259 142.296 38.8769 141.963 39.2806 141.75C39.4821 141.644 39.6461 141.568 39.7577 141.519C39.8134 141.495 39.856 141.478 39.8836 141.467L39.9135 141.455L39.9193 141.453L39.9195 141.453L39.9197 141.453L39.9199 141.453L39.9202 141.452L39.939 141.446L39.958 141.437L61.7196 131.393L61.7493 131.379L61.7769 131.362L66.9582 128.094L67.1772 127.956L67.1908 127.697C67.2711 126.17 67.2711 124.485 67.2711 122.976V122.968V122.804L67.1743 122.672C66.3141 121.499 65.539 120.257 64.9202 118.867C64.302 117.319 63.6731 114.89 63.1986 112.122L63.1359 111.756L62.7678 111.71C62.2883 111.65 61.7483 111.341 61.0509 110.722C60.7875 110.471 60.4538 109.937 60.0893 109.163C59.7313 108.402 59.3694 107.467 59.0344 106.476C58.3628 104.491 57.8144 102.33 57.6209 100.976L57.6204 100.972C57.5317 100.381 57.847 99.6255 58.3827 98.9583C58.6414 98.636 58.9304 98.362 59.2001 98.1682C59.4835 97.9644 59.6931 97.8868 59.7979 97.8781L60.3021 97.8361L60.2542 97.3324C60.2426 97.211 60.2306 97.0862 60.2183 96.9582C60.061 95.32 59.8514 93.1377 59.778 90.2725L59.7778 90.2685C59.6599 86.7705 60.0938 84.1634 61.0981 81.9637C62.1024 79.7638 63.6973 77.9268 65.9778 76.0001L65.9793 75.9989C68.8759 73.5329 71.4443 72.3278 74.0143 71.917C76.5932 71.5047 79.2239 71.8836 82.2671 72.6739C84.3284 73.229 85.3605 73.6868 85.9939 74.1794L86.1293 74.2847H86.3008H86.3009H86.3009H86.3009H86.301H86.301H86.301H86.3011H86.3011H86.3011H86.3012H86.3012H86.3013H86.3013H86.3014H86.3014H86.3015H86.3015H86.3016H86.3016H86.3017H86.3017H86.3017H86.3018H86.3018H86.3018H86.3019H86.3019H86.3019H86.302H86.302H86.302H86.3021H86.3021H86.3022H86.3022H86.3022H86.3023H86.3023H86.3024H86.3024H86.3025H86.3025H86.3025H86.3026H86.3026H86.3027H86.3027H86.3028H86.3028H86.3029H86.3029H86.303H86.303H86.3031H86.3031H86.3032H86.3032H86.3033H86.3034H86.3034H86.3035H86.3035H86.3036H86.3036H86.3037H86.3038H86.3038H86.3039H86.3039H86.304H86.3041H86.3041H86.3042H86.3043H86.3043H86.3044H86.3044H86.3045H86.3046H86.3046H86.3047H86.3048H86.3049H86.3049H86.305H86.3051H86.3051H86.3052H86.3053H86.3054H86.3054H86.3055H86.3056H86.3057H86.3057H86.3058H86.3059H86.306H86.3061H86.3061H86.3062H86.3063H86.3064H86.3065H86.3065H86.3066H86.3067H86.3068H86.3069H86.307H86.3071H86.3071H86.3072H86.3073H86.3074H86.3075H86.3076H86.3077H86.3078H86.3079H86.308H86.308H86.3081H86.3082H86.3083H86.3084H86.3085H86.3086H86.3087H86.3088H86.3089H86.309H86.3091H86.3092H86.3093H86.3094H86.3095H86.3096H86.3097H86.3098H86.3099H86.31H86.3102H86.3103H86.3104H86.3105H86.3106H86.3107H86.3108H86.3109H86.311H86.3111H86.3112H86.3114H86.3115H86.3116H86.3117H86.3118H86.3119H86.312H86.3122H86.3123H86.3124H86.3125H86.3126H86.3128H86.3129H86.313H86.3131H86.3132H86.3134H86.3135H86.3136H86.3137H86.3139H86.314H86.3141H86.3142H86.3144H86.3145H86.3146H86.3148H86.3149H86.315H86.3152H86.3153H86.3154H86.3156H86.3157H86.3158H86.316H86.3161H86.3162H86.3164H86.3165H86.3166H86.3168H86.3169H86.3171H86.3172H86.3173H86.3175H86.3176H86.3178H86.3179H86.3181H86.3182H86.3184H86.3185H86.3186H86.3188H86.3189H86.3191H86.3192H86.3194H86.3195H86.3197H86.3198H86.32H86.3201H86.3203H86.3205H86.3206H86.3208H86.3209H86.3211H86.3212H86.3214H86.3216H86.3217H86.3219H86.322H86.3222H86.3224H86.3225H86.3227H86.3228H86.323H86.3232H86.3233H86.3235H86.3237H86.3238H86.324H86.3242H86.3243H86.3245H86.3247H86.3248H86.325H86.3252H86.3254H86.3255H86.3257H86.3259H86.3261H86.3262H86.3264H86.3266H86.3268H86.3269H86.3271H86.3273H86.3275H86.3277H86.3278H86.328H86.3282H86.3284H86.3286H86.3288H86.3289H86.3291H86.3293H86.3295H86.3297H86.3299H86.3301H86.3302H86.3304H86.3306H86.3308H86.331H86.3312H86.3314H86.3316H86.3318H86.332H86.3322H86.3324H86.3326H86.3328H86.333H86.3332H86.3334H86.3336H86.3338H86.334H86.3342H86.3344H86.3346H86.3348H86.335H86.3352H86.3354H86.3356H86.3358H86.336H86.3362H86.3364H86.3366H86.3368H86.337H86.3372H86.3375H86.3377H86.3379H86.3381H86.3383H86.3385H86.3387H86.3389H86.3392H86.3394H86.3396H86.3398H86.34H86.3402H86.3405H86.3407H86.3409H86.3411H86.3414H86.3416H86.3418H86.342H86.3422H86.3425H86.3427H86.3429H86.3431H86.3434H86.3436H86.3438H86.3441H86.3443H86.3445H86.3447H86.345H86.3452H86.3454H86.3457H86.3459H86.3461H86.3464H86.3466H86.3469H86.3471H86.3473H86.3476H86.3478H86.348H86.3483H86.3485H86.3488H86.349H86.3493H86.3495H86.3497H86.35H86.3502H86.3505H86.3507H86.351H86.3512H86.3515H86.3517H86.352H86.3522H86.3525H86.3527H86.353H86.3532H86.3535H86.3537H86.354H86.3542H86.3545H86.3547H86.355H86.3552H86.3555H86.3558H86.356H86.3563H86.3565H86.3568H86.3571H86.3573H86.3576H86.3579H86.3581H86.3584H86.3586H86.3589H86.3592H86.3594H86.3597H86.36H86.3602H86.3605H86.3608H86.3611H86.3613H86.3616H86.3619H86.3621H86.3624H86.3627H86.363H86.3632H86.3635H86.3638H86.3641H86.3643H86.3646H86.3649H86.3652H86.3655H86.3657H86.366H86.3663H86.3666H86.3669H86.3672H86.3674H86.3677H86.368H86.3683H86.3686H86.3689H86.3692H86.3694H86.3697H86.37H86.3703H86.3706H86.3709H86.3712H86.3715H86.3718H86.3721H86.3724H86.3727H86.373H86.3733H86.3736H86.3739H86.3741H86.3744H86.3747H86.375H86.3753H86.3756H86.376H86.3763H86.3766H86.3769H86.3772H86.3775H86.3778H86.3781H86.3784H86.3787H86.379H86.3793H86.3796H86.3799H86.3802H86.3806H86.5141L86.6298 74.2182C88.0116 73.4237 89.8982 73.5531 91.8894 74.8331C93.8778 76.1114 95.9143 78.513 97.4802 82.1143C98.4787 84.4186 98.8342 87.1925 98.8539 89.9203C98.8735 92.6425 98.5588 95.2833 98.2421 97.3023L98.1594 97.8295L98.6908 97.8778C98.7594 97.884 98.9374 97.9512 99.1993 98.1625C99.4439 98.36 99.7081 98.64 99.9449 98.9679C100.436 99.6477 100.722 100.407 100.634 100.969L100.632 100.976C100.439 102.333 99.9092 104.495 99.2482 106.478C98.9182 107.468 98.5593 108.402 98.1986 109.161C97.8296 109.937 97.487 110.468 97.2097 110.715C96.5986 111.25 96.0266 111.595 95.5696 111.726L95.2747 111.81L95.2162 112.111C94.6621 114.961 93.9555 117.62 92.9473 119.796C92.2468 121.117 91.4718 122.278 90.5446 123.36L90.4242 123.5V123.685V123.693C90.4242 124.963 90.4242 126.331 90.5049 127.622L90.521 127.88L90.7412 128.016L96.1617 131.364L96.19 131.382L96.2204 131.395L117.982 141.12L118.016 141.136L118.049 141.145L118.05 141.145L118.051 141.145L118.051 141.145L118.052 141.146L118.052 141.146L118.071 141.152C118.09 141.158 118.121 141.168 118.163 141.184C118.246 141.215 118.373 141.266 118.532 141.343C118.852 141.498 119.305 141.757 119.815 142.169C120.832 142.99 122.092 144.429 122.977 146.891L122.987 146.919L123 146.946C123.028 147.003 123.071 147.12 123.121 147.322L124.107 147.2V53.4579ZM124.244 48.6172C126.514 48.6172 128.372 50.4621 128.447 52.7485V172.701C128.372 174.993 126.508 176.832 124.324 176.832H33.3714C31.0967 176.832 29.248 174.983 29.248 172.709V52.8202C29.248 50.4602 31.1023 48.6172 33.3714 48.6172H124.244Z" fill="#CDCDCD" stroke="#CDCDCD"/>
<path d="M289.628 77.0311H147.225V73.0889H289.628V77.0311Z" fill="#CDCDCD" stroke="#CDCDCD"/>
<path d="M289.628 103.858V107.801H147.225V103.858H289.628Z" fill="#CDCDCD" stroke="#CDCDCD"/>
<path d="M289.628 134.627V138.569H147.225V134.627H289.628Z" fill="#CDCDCD" stroke="#CDCDCD"/>
<path d="M289.628 165.396V169.339H147.225V165.396H289.628Z" fill="#CDCDCD" stroke="#CDCDCD"/>
</svg>
