<svg width="316" height="206" viewBox="0 0 316 206" fill="none" xmlns="http://www.w3.org/2000/svg">
<rect x="3.25391" y="3" width="309.13" height="200" rx="10" stroke="#CDCDCD" stroke-width="6"/>
<path fill-rule="evenodd" clip-rule="evenodd" d="M133.601 50.1869V107.787C133.601 110.754 131.205 113.149 128.265 113.149H33.3997C30.4326 113.149 28.0371 110.754 28.0371 107.787V50.1869C28.0371 47.247 30.4326 44.8516 33.3997 44.8516H128.265C131.205 44.8516 133.601 47.247 133.601 50.1869Z" fill="white" stroke="#CDCDCD" stroke-width="4" stroke-miterlimit="10"/>
<path d="M69.7232 62.0826V61.5826H69.2232H38.6539H38.1539V62.0826V94.503L39.1471 94.5852C39.1594 94.5111 39.1705 94.4571 39.1798 94.4201C39.1837 94.4047 39.1866 94.3944 39.1885 94.3884L39.2113 94.3429L39.2246 94.2805C39.372 93.5886 39.7556 93.1295 40.1111 92.8376C40.2894 92.6912 40.4582 92.5892 40.5805 92.5246C40.6414 92.4925 40.6899 92.4701 40.7212 92.4565C40.7368 92.4497 40.7481 92.4451 40.7544 92.4426L40.7575 92.4413L40.7579 92.4412L40.7582 92.441L40.7589 92.4408L40.7597 92.4405L40.7599 92.4404L40.7771 92.4342L40.7961 92.4254L48.2275 88.9955L48.2571 88.9818L48.2847 88.9644L50.0541 87.8484L50.273 87.7103L50.2866 87.4518C50.3146 86.9215 50.3146 86.3393 50.3146 85.8267V85.8194V85.6557L50.2178 85.5237C49.935 85.1381 49.6847 84.7365 49.4859 84.2912C49.2875 83.7921 49.0786 82.9905 48.9191 82.0601L48.8564 81.6944L48.4883 81.6484C48.4281 81.6409 48.3082 81.5932 48.0849 81.396C48.0422 81.3533 47.9512 81.2211 47.8307 80.9649C47.7155 80.7201 47.5964 80.4133 47.4844 80.0823C47.259 79.416 47.078 78.6988 47.0158 78.2629L47.0153 78.2594C47.0053 78.1931 47.0451 78.028 47.2067 77.8266C47.2784 77.7373 47.3559 77.665 47.4213 77.618C47.4555 77.5934 47.4773 77.5821 47.4868 77.5775L47.9648 77.5377L47.9168 77.034C47.9129 76.9926 47.9088 76.9501 47.9046 76.9066C47.851 76.3478 47.7804 75.6125 47.7556 74.6459L47.7556 74.6459L47.7555 74.6419C47.7163 73.4798 47.8615 72.6443 48.1768 71.9537C48.4921 71.2629 48.9979 70.6726 49.7561 70.032L49.7576 70.0308C50.712 69.2183 51.535 68.84 52.34 68.7113C53.1539 68.5812 53.9998 68.6976 55.022 68.9629C55.7184 69.1506 56.0157 69.2934 56.1768 69.4187L56.3122 69.524H56.4837H56.4837H56.4838H56.4838H56.4838H56.4838H56.4838H56.4839H56.4839H56.4839H56.4839H56.4839H56.4839H56.484H56.484H56.484H56.484H56.484H56.4841H56.4841H56.4841H56.4841H56.4842H56.4842H56.4842H56.4842H56.4843H56.4843H56.4843H56.4843H56.4843H56.4843H56.4844H56.4844H56.4844H56.4844H56.4844H56.4844H56.4845H56.4845H56.4845H56.4845H56.4845H56.4846H56.4846H56.4846H56.4846H56.4846H56.4846H56.4847H56.4847H56.4847H56.4847H56.4848H56.4848H56.4848H56.4848H56.4848H56.4849H56.4849H56.4849H56.4849H56.4849H56.485H56.485H56.485H56.485H56.4851H56.4851H56.4851H56.4851H56.4852H56.4852H56.4852H56.4852H56.4853H56.4853H56.4853H56.4853H56.4854H56.4854H56.4854H56.4854H56.4855H56.4855H56.4855H56.4855H56.4856H56.4856H56.4856H56.4857H56.4857H56.4857H56.4857H56.4858H56.4858H56.4858H56.4859H56.4859H56.4859H56.4859H56.486H56.486H56.486H56.4861H56.4861H56.4861H56.4862H56.4862H56.4862H56.4863H56.4863H56.4863H56.4864H56.4864H56.4864H56.4865H56.4865H56.4865H56.4866H56.4866H56.4866H56.4867H56.4867H56.4867H56.4868H56.4868H56.4868H56.4869H56.4869H56.4869H56.487H56.487H56.4871H56.4871H56.4871H56.4872H56.4872H56.4872H56.4873H56.4873H56.4874H56.4874H56.4874H56.4875H56.4875H56.4876H56.4876H56.4876H56.4877H56.4877H56.4878H56.4878H56.4878H56.4879H56.4879H56.488H56.488H56.4881H56.4881H56.4881H56.4882H56.4882H56.4883H56.4883H56.4884H56.4884H56.4884H56.4885H56.4885H56.4886H56.4886H56.4887H56.4887H56.4888H56.4888H56.4888H56.4889H56.4889H56.489H56.489H56.4891H56.4891H56.4892H56.4892H56.4893H56.4893H56.4894H56.4894H56.4895H56.4895H56.4896H56.4896H56.4897H56.4897H56.4898H56.4898H56.4899H56.4899H56.49H56.49H56.4901H56.4901H56.4902H56.4902H56.4903H56.4903H56.4904H56.4904H56.4905H56.4905H56.4906H56.4906H56.4907H56.4908H56.4908H56.4909H56.4909H56.491H56.491H56.4911H56.4911H56.4912H56.4912H56.4913H56.4914H56.4914H56.4915H56.4915H56.4916H56.4916H56.4917H56.4918H56.4918H56.4919H56.4919H56.492H56.4921H56.4921H56.4922H56.4922H56.4923H56.4923H56.4924H56.4925H56.4925H56.4926H56.4926H56.4927H56.4928H56.4928H56.4929H56.493H56.493H56.4931H56.4931H56.4932H56.4933H56.4933H56.4934H56.4935H56.4935H56.4936H56.4936H56.4937H56.4938H56.4938H56.4939H56.494H56.494H56.4941H56.4942H56.4942H56.4943H56.4944H56.4944H56.4945H56.4946H56.4946H56.4947H56.4948H56.4948H56.4949H56.495H56.495H56.4951H56.4952H56.4952H56.4953H56.4954H56.4955H56.4955H56.4956H56.4957H56.4957H56.4958H56.4959H56.496H56.496H56.4961H56.4962H56.4962H56.4963H56.4964H56.4965H56.4965H56.4966H56.4967H56.4967H56.4968H56.4969H56.497H56.497H56.4971H56.4972H56.4973H56.4973H56.4974H56.4975H56.4976H56.4976H56.4977H56.4978H56.4979H56.4979H56.498H56.4981H56.4982H56.4983H56.4983H56.4984H56.4985H56.4986H56.4986H56.4987H56.4988H56.4989H56.499H56.499H56.4991H56.4992H56.4993H56.4994H56.4994H56.4995H56.4996H56.4997H56.4998H56.4999H56.4999H56.5H56.5001H56.5002H56.5003H56.5003H56.5004H56.5005H56.5006H56.5007H56.5008H56.5009H56.5009H56.501H56.5011H56.5012H56.5013H56.5014H56.5014H56.5015H56.5016H56.5017H56.5018H56.5019H56.502H56.5021H56.5021H56.5022H56.5023H56.5024H56.5025H56.5026H56.5027H56.5028H56.5028H56.5029H56.503H56.5031H56.5032H56.5033H56.5034H56.5035H56.5036H56.5037H56.5037H56.5038H56.5039H56.504H56.5041H56.5042H56.5043H56.5044H56.5045H56.5046H56.5047H56.5048H56.5049H56.5049H56.505H56.5051H56.5052H56.5053H56.5054H56.5055H56.5056H56.5057H56.5058H56.5059H56.506H56.5061H56.5062H56.5063H56.5064H56.5065H56.5066H56.5067H56.5068H56.5069H56.507H56.5071H56.5072H56.5073H56.5074H56.5075H56.5076H56.5077H56.5078H56.5079H56.508H56.5081H56.5082H56.5083H56.5084H56.5085H56.5086H56.5087H56.5088H56.5089H56.509H56.5091H56.5092H56.5093H56.5094H56.5095H56.5096H56.5097H56.5098H56.5099H56.51H56.5101H56.5102H56.5103H56.5104H56.5105H56.5106H56.5107H56.5108H56.511H56.6445L56.7602 69.4574C57.0921 69.2666 57.6009 69.2647 58.2141 69.6589C58.8247 70.0514 59.4832 70.8127 59.9992 71.9993C60.3154 72.7289 60.4346 73.6263 60.4412 74.5365C60.4477 75.4412 60.343 76.3235 60.2363 77.004L60.1536 77.5311L60.6414 77.5754C60.6505 77.5813 60.6639 77.5906 60.6816 77.6049C60.7393 77.6515 60.8099 77.7248 60.8761 77.8165C60.9422 77.908 60.9938 78.0038 61.0244 78.0903C61.056 78.1796 61.0564 78.2337 61.053 78.2556L61.0529 78.2556L61.0519 78.2629C60.9892 78.7017 60.8142 79.4202 60.5928 80.0844C60.4826 80.4149 60.3648 80.7202 60.2493 80.9631C60.1259 81.2227 60.0326 81.351 59.9907 81.3889C59.8 81.5555 59.648 81.6382 59.5585 81.6638L59.2636 81.7481L59.205 82.0491C59.0184 83.0087 58.7843 83.8839 58.4584 84.5899C58.2304 85.0187 57.9803 85.3921 57.6829 85.739L57.5626 85.8795V86.0644V86.0721C57.5626 86.5026 57.5626 86.9783 57.5908 87.4294L57.6069 87.6877L57.827 87.8236L59.6781 88.9669L59.7064 88.9844L59.7368 88.998L67.1682 92.319L67.2021 92.3341L67.2317 92.3424L67.2318 92.3424C67.2321 92.3425 67.2323 92.3426 67.2326 92.3427C67.2339 92.3431 67.2358 92.3437 67.2384 92.3446C67.2413 92.3456 67.2451 92.347 67.2497 92.3487C67.269 92.3559 67.3025 92.3693 67.347 92.3908C67.4361 92.4339 67.569 92.5094 67.7216 92.6327C68.0234 92.8763 68.4172 93.3183 68.6982 94.1004L68.7083 94.1284L68.7189 94.1496C68.7195 94.1512 68.7204 94.1538 68.7217 94.1575C68.7257 94.1696 68.7313 94.1885 68.7382 94.2159L69.7232 94.0947V62.0826ZM69.441 60.7588C70.0307 60.7588 70.5244 61.2393 70.547 61.8461V102.797C70.5242 103.409 70.0255 103.884 69.4682 103.884H38.4089C37.814 103.884 37.3301 103.4 37.3301 102.805V61.8648C37.3301 61.2371 37.8195 60.7588 38.4089 60.7588H69.441Z" fill="#CDCDCD" stroke="#CDCDCD"/>
<path d="M125.588 69.8029H77.6172V69.1152H125.588V69.8029Z" fill="#CDCDCD" stroke="#CDCDCD"/>
<path d="M125.588 79.623V80.3108H77.6172V79.623H125.588Z" fill="#CDCDCD" stroke="#CDCDCD"/>
<path d="M125.588 90.1299V90.8176H77.6172V90.1299H125.588Z" fill="#CDCDCD" stroke="#CDCDCD"/>
<path d="M125.588 100.637V101.324H77.6172V100.637H125.588Z" fill="#CDCDCD" stroke="#CDCDCD"/>
<path d="M210.602 103C200.014 103 190.951 99.2302 183.411 91.6906C175.871 84.151 172.102 75.0875 172.102 64.5C172.102 53.9125 175.871 44.849 183.411 37.3094C190.951 29.7698 200.014 26 210.602 26C221.189 26 230.253 29.7698 237.792 37.3094C245.332 44.849 249.102 53.9125 249.102 64.5C249.102 75.0875 245.332 84.151 237.792 91.6906C230.253 99.2302 221.189 103 210.602 103ZM133.602 180V153.05C133.602 147.596 135.005 142.583 137.812 138.011C140.62 133.439 144.349 129.95 149.002 127.544C158.947 122.571 169.054 118.841 179.32 116.355C189.587 113.868 200.014 112.625 210.602 112.625C221.189 112.625 231.616 113.868 241.883 116.355C252.149 118.841 262.256 122.571 272.202 127.544C276.854 129.95 280.583 133.439 283.391 138.011C286.198 142.583 287.602 147.596 287.602 153.05V180H133.602Z" fill="#CDCDCD"/>
</svg>
