<svg width="138" height="132" viewBox="0 0 138 132" fill="none" xmlns="http://www.w3.org/2000/svg">
<path d="M47.75 131.625L35.875 111.625L13.375 106.625L15.5625 83.5L0.25 66L15.5625 48.5L13.375 25.375L35.875 20.375L47.75 0.375L69 9.4375L90.25 0.375L102.125 20.375L124.625 25.375L122.438 48.5L137.75 66L122.438 83.5L124.625 106.625L102.125 111.625L90.25 131.625L69 122.563L47.75 131.625ZM53.0625 115.688L69 108.812L85.25 115.688L94 100.688L111.188 96.625L109.625 79.125L121.188 66L109.625 52.5625L111.188 35.0625L94 31.3125L84.9375 16.3125L69 23.1875L52.75 16.3125L44 31.3125L26.8125 35.0625L28.375 52.5625L16.8125 66L28.375 79.125L26.8125 96.9375L44 100.688L53.0625 115.688ZM62.4375 88.1875L97.75 52.875L89 43.8125L62.4375 70.375L49 57.25L40.25 66L62.4375 88.1875Z" fill="#03C75C"/>
</svg>
