<svg width="151" height="148" viewBox="0 0 151 148" fill="none" xmlns="http://www.w3.org/2000/svg">
<path d="M134.965 90.5938C132.29 89.333 129.095 90.4831 127.834 93.1581C123.225 102.947 115.975 111.228 106.868 117.123C97.5223 123.163 86.6773 126.358 75.5 126.358C67.6878 126.358 60.1227 124.833 52.9921 121.817C46.1085 118.903 39.9235 114.737 34.616 109.421C29.2999 104.114 25.134 97.9289 22.2204 91.0453C19.2046 83.9147 17.6796 76.3496 17.6796 68.5374H21.5815C23.6857 68.5374 24.8784 66.135 23.6176 64.4652L14.3486 52.1889C13.3348 50.8343 11.3072 50.8343 10.2849 52.1889L1.01591 64.4652C-0.24494 66.135 0.94776 68.5374 3.05202 68.5374H6.95385C6.95385 77.7893 8.76846 86.7687 12.3466 95.2198C15.7969 103.381 20.7381 110.716 27.0338 117.004C33.3296 123.299 40.6561 128.241 48.8176 131.691C57.2687 135.269 66.2481 137.084 75.5 137.084C88.7475 137.084 101.612 133.292 112.695 126.128C123.481 119.142 132.068 109.328 137.529 97.733C138.79 95.0494 137.648 91.8632 134.965 90.5938Z" fill="#2A878B"/>
<path d="M147.947 68.5376H144.045C144.045 59.2857 142.231 50.3149 138.652 41.8552C135.202 33.6938 130.261 26.3672 123.965 20.0714C117.669 13.7757 110.343 8.8345 102.181 5.38419C93.7302 1.80609 84.7509 0 75.499 0C62.2515 0 49.3874 3.78256 38.3123 10.9558C27.5269 17.9331 18.9309 27.7473 13.4701 39.3506C12.2092 42.0256 13.3508 45.2204 16.0344 46.4812C18.7094 47.7421 21.9042 46.592 23.165 43.9169C27.774 34.1368 35.0324 25.8475 44.131 19.9522C53.4766 13.912 64.3217 10.7173 75.499 10.7173C83.3112 10.7173 90.8763 12.2422 98.0069 15.258C104.89 18.1716 111.076 22.3376 116.383 27.6536C121.699 32.9611 125.865 39.1461 128.779 46.0382C131.794 53.1603 133.319 60.734 133.319 68.5376H129.418C127.313 68.5376 126.121 70.9401 127.381 72.6184L136.65 84.8947C137.664 86.2407 139.692 86.2407 140.714 84.8947L149.983 72.6184C151.244 70.9401 150.051 68.5376 147.947 68.5376Z" fill="#2A878B"/>
<path d="M75.4992 27.7814C76.1381 27.7814 76.6663 27.2533 76.6663 26.6143V21.8946C76.6663 21.2472 76.1381 20.7275 75.4992 20.7275C74.8602 20.7275 74.332 21.2472 74.332 21.8946V26.6143C74.332 27.2533 74.8602 27.7814 75.4992 27.7814Z" fill="#A1B1C9"/>
<path d="M53.4017 31.8108C53.5465 32.0579 53.8021 32.2027 54.0747 32.2027C54.2025 32.2027 54.3388 32.1686 54.458 32.0919C54.8329 31.879 54.9607 31.4104 54.7477 31.0356L53.2653 28.4798C53.0524 28.1049 52.5753 27.9771 52.209 28.1901C51.8341 28.4031 51.7063 28.8802 51.9193 29.255L53.4017 31.8108Z" fill="#A1B1C9"/>
<path d="M35.4332 46.3025L37.9975 47.7848C38.1167 47.853 38.253 47.887 38.3808 47.887C38.6534 47.887 38.909 47.7507 39.0539 47.4952C39.2668 47.1288 39.1391 46.6518 38.7727 46.4388L36.2169 44.9649C35.8421 44.7434 35.365 44.8712 35.152 45.2461C34.939 45.6124 35.0668 46.0895 35.4332 46.3025Z" fill="#A1B1C9"/>
<path d="M35.152 91.8294C35.2969 92.085 35.5609 92.2213 35.825 92.2213C35.9614 92.2213 36.0891 92.1872 36.2169 92.1191L38.7727 90.6367C39.1391 90.4237 39.2668 89.9552 39.0539 89.5803C38.8409 89.2055 38.3638 89.0777 37.9975 89.2992L35.4332 90.773C35.0668 90.986 34.939 91.4631 35.152 91.8294Z" fill="#A1B1C9"/>
<path d="M52.209 108.885C52.3282 108.953 52.4645 108.987 52.5923 108.987C52.8649 108.987 53.1205 108.851 53.2653 108.604L54.7477 106.04C54.9607 105.673 54.8329 105.196 54.458 104.983C54.0917 104.77 53.6146 104.898 53.4017 105.264L51.9193 107.829C51.7063 108.195 51.8341 108.672 52.209 108.885Z" fill="#A1B1C9"/>
<path d="M96.5429 104.983C96.1681 105.196 96.0403 105.673 96.2533 106.04L97.7356 108.604C97.8805 108.851 98.1361 108.987 98.4087 108.987C98.5365 108.987 98.6728 108.953 98.792 108.885C99.1669 108.672 99.2947 108.195 99.0817 107.829L97.5993 105.264C97.3864 104.898 96.9093 104.77 96.5429 104.983Z" fill="#A1B1C9"/>
<path d="M112.226 90.6367L114.782 92.1191C114.91 92.1872 115.037 92.2213 115.174 92.2213C115.438 92.2213 115.702 92.085 115.847 91.8294C116.06 91.4631 115.932 90.986 115.566 90.773L113.001 89.2992C112.635 89.0777 112.158 89.2055 111.945 89.5803C111.732 89.9552 111.86 90.4237 112.226 90.6367Z" fill="#A1B1C9"/>
<path d="M112.618 47.887C112.746 47.887 112.882 47.853 113.001 47.7848L115.566 46.3025C115.932 46.0895 116.06 45.6124 115.847 45.2461C115.634 44.8712 115.157 44.7434 114.782 44.9649L112.226 46.4388C111.86 46.6518 111.732 47.1288 111.945 47.4952C112.09 47.7507 112.345 47.887 112.618 47.887Z" fill="#A1B1C9"/>
<path d="M96.9263 32.2027C97.1989 32.2027 97.4545 32.0579 97.5993 31.8108L99.0817 29.255C99.2947 28.8802 99.1669 28.4031 98.792 28.1901C98.4257 27.9771 97.9486 28.1049 97.7356 28.4798L96.2533 31.0356C96.0403 31.4104 96.1681 31.879 96.5429 32.0919C96.6622 32.1686 96.7985 32.2027 96.9263 32.2027Z" fill="#A1B1C9"/>
<path d="M33.5763 69.7047C34.2152 69.7047 34.7349 69.1851 34.7349 68.5376C34.7349 67.8986 34.2152 67.379 33.5763 67.379H28.8481C28.2091 67.379 27.6895 67.8986 27.6895 68.5376C27.6895 69.1851 28.2091 69.7047 28.8481 69.7047H33.5763Z" fill="#A1B1C9"/>
<path d="M74.332 110.461V115.189C74.332 115.828 74.8602 116.348 75.4992 116.348C76.1381 116.348 76.6663 115.828 76.6663 115.189V110.461C76.6663 109.822 76.1381 109.302 75.4992 109.302C74.8602 109.302 74.332 109.822 74.332 110.461Z" fill="#A1B1C9"/>
<path d="M117.424 69.7047H122.152C122.791 69.7047 123.311 69.1851 123.311 68.5376C123.311 67.8986 122.791 67.379 122.152 67.379H117.424C116.785 67.379 116.266 67.8986 116.266 68.5376C116.266 69.1851 116.785 69.7047 117.424 69.7047Z" fill="#A1B1C9"/>
<path d="M69.9121 68.5377C69.9121 71.6302 72.4083 74.1349 75.5008 74.1349C76.7446 74.1349 77.8947 73.726 78.8233 73.0359L97.8468 82.1686C98.375 82.4242 99.0225 82.2453 99.3377 81.7341C99.6785 81.1889 99.5166 80.4733 98.9714 80.1325L81.0809 68.9381C81.0866 68.8075 81.0894 68.674 81.0894 68.5377C81.0894 66.3142 79.7945 64.3974 77.9202 63.4943L76.6679 33.3957C76.6338 32.7994 76.1567 32.3138 75.5519 32.2882C74.9044 32.2541 74.3677 32.7568 74.3336 33.3957C74.3336 33.3957 73.4902 53.7738 73.0813 63.4943C71.207 64.3974 69.9121 66.3142 69.9121 68.5377Z" fill="#131C28"/>
<path d="M120.781 144.786C120.781 146.029 100.505 147.043 75.5007 147.043C50.4966 147.043 30.2207 146.029 30.2207 144.786C30.2207 143.533 50.4966 142.52 75.5007 142.52C100.505 142.52 120.781 143.533 120.781 144.786Z" fill="#D9DFE8"/>
</svg>
