<svg width="25" height="24" viewBox="0 0 25 24" fill="none" xmlns="http://www.w3.org/2000/svg">
<mask id="mask0_4396_236603" style="mask-type:alpha" maskUnits="userSpaceOnUse" x="0" y="0" width="25" height="24">
<rect x="0.731445" width="24" height="24" fill="#D9D9D9"/>
</mask>
<g mask="url(#mask0_4396_236603)">
<path d="M6.58145 17.1C7.43145 16.45 8.38145 15.9375 9.43145 15.5625C10.4814 15.1875 11.5814 15 12.7314 15C13.8814 15 14.9814 15.1875 16.0314 15.5625C17.0814 15.9375 18.0314 16.45 18.8814 17.1C19.4648 16.4167 19.9189 15.6417 20.2439 14.775C20.5689 13.9083 20.7314 12.9833 20.7314 12C20.7314 9.78333 19.9523 7.89583 18.3939 6.3375C16.8356 4.77917 14.9481 4 12.7314 4C10.5148 4 8.62728 4.77917 7.06895 6.3375C5.51061 7.89583 4.73145 9.78333 4.73145 12C4.73145 12.9833 4.89395 13.9083 5.21895 14.775C5.54395 15.6417 5.99811 16.4167 6.58145 17.1ZM12.7314 13C11.7481 13 10.9189 12.6625 10.2439 11.9875C9.56895 11.3125 9.23145 10.4833 9.23145 9.5C9.23145 8.51667 9.56895 7.6875 10.2439 7.0125C10.9189 6.3375 11.7481 6 12.7314 6C13.7148 6 14.5439 6.3375 15.2189 7.0125C15.8939 7.6875 16.2314 8.51667 16.2314 9.5C16.2314 10.4833 15.8939 11.3125 15.2189 11.9875C14.5439 12.6625 13.7148 13 12.7314 13ZM12.7314 22C11.3481 22 10.0481 21.7375 8.83145 21.2125C7.61478 20.6875 6.55645 19.975 5.65645 19.075C4.75645 18.175 4.04395 17.1167 3.51895 15.9C2.99395 14.6833 2.73145 13.3833 2.73145 12C2.73145 10.6167 2.99395 9.31667 3.51895 8.1C4.04395 6.88333 4.75645 5.825 5.65645 4.925C6.55645 4.025 7.61478 3.3125 8.83145 2.7875C10.0481 2.2625 11.3481 2 12.7314 2C14.1148 2 15.4148 2.2625 16.6314 2.7875C17.8481 3.3125 18.9064 4.025 19.8064 4.925C20.7064 5.825 21.4189 6.88333 21.9439 8.1C22.4689 9.31667 22.7314 10.6167 22.7314 12C22.7314 13.3833 22.4689 14.6833 21.9439 15.9C21.4189 17.1167 20.7064 18.175 19.8064 19.075C18.9064 19.975 17.8481 20.6875 16.6314 21.2125C15.4148 21.7375 14.1148 22 12.7314 22ZM12.7314 20C13.6148 20 14.4481 19.8708 15.2314 19.6125C16.0148 19.3542 16.7314 18.9833 17.3814 18.5C16.7314 18.0167 16.0148 17.6458 15.2314 17.3875C14.4481 17.1292 13.6148 17 12.7314 17C11.8481 17 11.0148 17.1292 10.2314 17.3875C9.44811 17.6458 8.73145 18.0167 8.08145 18.5C8.73145 18.9833 9.44811 19.3542 10.2314 19.6125C11.0148 19.8708 11.8481 20 12.7314 20ZM12.7314 11C13.1648 11 13.5231 10.8583 13.8064 10.575C14.0898 10.2917 14.2314 9.93333 14.2314 9.5C14.2314 9.06667 14.0898 8.70833 13.8064 8.425C13.5231 8.14167 13.1648 8 12.7314 8C12.2981 8 11.9398 8.14167 11.6564 8.425C11.3731 8.70833 11.2314 9.06667 11.2314 9.5C11.2314 9.93333 11.3731 10.2917 11.6564 10.575C11.9398 10.8583 12.2981 11 12.7314 11Z" fill="#2A878B"/>
</g>
</svg>
