<svg width="16" height="16" viewBox="0 0 16 16" fill="none" xmlns="http://www.w3.org/2000/svg">
<mask id="mask0_5986_26739" style="mask-type:alpha" maskUnits="userSpaceOnUse" x="0" y="0" width="16" height="16">
<rect width="16" height="16" fill="#D9D9D9"/>
</mask>
<g mask="url(#mask0_5986_26739)">
<path d="M11.3346 11.333C11.6124 11.333 11.8485 11.2358 12.043 11.0413C12.2374 10.8469 12.3346 10.6108 12.3346 10.333C12.3346 10.0552 12.2374 9.81912 12.043 9.62467C11.8485 9.43023 11.6124 9.33301 11.3346 9.33301C11.0569 9.33301 10.8207 9.43023 10.6263 9.62467C10.4319 9.81912 10.3346 10.0552 10.3346 10.333C10.3346 10.6108 10.4319 10.8469 10.6263 11.0413C10.8207 11.2358 11.0569 11.333 11.3346 11.333ZM11.3346 13.333C11.6791 13.333 11.9957 13.2525 12.2846 13.0913C12.5735 12.9302 12.8069 12.7163 12.9846 12.4497C12.7402 12.3052 12.4791 12.1941 12.2013 12.1163C11.9235 12.0386 11.6346 11.9997 11.3346 11.9997C11.0346 11.9997 10.7457 12.0386 10.468 12.1163C10.1902 12.1941 9.92908 12.3052 9.68464 12.4497C9.86241 12.7163 10.0957 12.9302 10.3846 13.0913C10.6735 13.2525 10.9902 13.333 11.3346 13.333ZM8.0013 14.6663C6.45686 14.2775 5.18186 13.3913 4.1763 12.008C3.17075 10.6247 2.66797 9.08856 2.66797 7.39967V3.33301L8.0013 1.33301L13.3346 3.33301V7.11634C13.1235 7.02745 12.9069 6.9469 12.6846 6.87467C12.4624 6.80245 12.2346 6.74967 12.0013 6.71634V4.26634L8.0013 2.76634L4.0013 4.26634V7.39967C4.0013 7.9219 4.07075 8.44412 4.20964 8.96634C4.34852 9.48856 4.54297 9.98579 4.79297 10.458C5.04297 10.9302 5.34575 11.3663 5.7013 11.7663C6.05686 12.1663 6.4513 12.4997 6.88464 12.7663C7.00686 13.1219 7.16797 13.4608 7.36797 13.783C7.56797 14.1052 7.79575 14.3941 8.0513 14.6497C8.04019 14.6497 8.03186 14.6525 8.0263 14.658C8.02075 14.6636 8.01241 14.6663 8.0013 14.6663ZM11.3346 14.6663C10.4124 14.6663 9.6263 14.3413 8.9763 13.6913C8.3263 13.0413 8.0013 12.2552 8.0013 11.333C8.0013 10.4108 8.3263 9.62467 8.9763 8.97467C9.6263 8.32467 10.4124 7.99967 11.3346 7.99967C12.2569 7.99967 13.043 8.32467 13.693 8.97467C14.343 9.62467 14.668 10.4108 14.668 11.333C14.668 12.2552 14.343 13.0413 13.693 13.6913C13.043 14.3413 12.2569 14.6663 11.3346 14.6663Z" fill="white"/>
</g>
</svg>
