<svg width="12" height="12" viewBox="0 0 12 12" fill="none" xmlns="http://www.w3.org/2000/svg">
<mask id="mask0_4098_461401" style="mask-type:alpha" maskUnits="userSpaceOnUse" x="0" y="0" width="12" height="12">
<rect x="0.5" y="0.5" width="11" height="11" fill="#D9D9D9" stroke="#484848"/>
</mask>
<g mask="url(#mask0_4098_461401)">
<path d="M2.5 10.0124H7.9875V10.9874H2.5C2.22834 10.9874 1.9961 10.8908 1.80259 10.6973C1.60908 10.5038 1.5125 10.2715 1.5125 9.99988V3.01238H2.4875V9.99988V10.0124H2.5ZM4.4875 7.99988V8.01238H4.5H9H9.0125V7.99988V1.99988V1.98738H9H4.5H4.4875V1.99988V7.99988ZM4.5 8.98738C4.22834 8.98738 3.9961 8.8908 3.80259 8.69729C3.60908 8.50378 3.5125 8.27154 3.5125 7.99988V1.99988C3.5125 1.72822 3.60908 1.49597 3.80259 1.30247C3.9961 1.10896 4.22834 1.01238 4.5 1.01238H9C9.27166 1.01238 9.5039 1.10896 9.69741 1.30247C9.89092 1.49597 9.9875 1.72822 9.9875 1.99988V7.99988C9.9875 8.27154 9.89092 8.50378 9.69741 8.69729C9.5039 8.8908 9.27166 8.98738 9 8.98738H4.5Z" fill="#505050" stroke="#484848" stroke-width="0.025"/>
</g>
</svg>
