<svg width="76" height="80" viewBox="0 0 76 80" fill="none" xmlns="http://www.w3.org/2000/svg">
<path d="M30.8751 75.5H13.1667C10.8751 75.5 8.91328 74.684 7.28133 73.0521C5.64939 71.4201 4.83341 69.4583 4.83341 67.1667V13H0.666748V4.66667H21.5001V0.5H46.5001V4.66667H67.3334V13H63.1667V30.9167C61.9862 30.5694 60.6147 30.2743 59.0522 30.0312C57.4897 29.7882 56.0834 29.6667 54.8334 29.6667V13H13.1667V67.1667H26.9167C27.3334 68.625 27.889 70.066 28.5834 71.4896C29.2779 72.9132 30.0417 74.25 30.8751 75.5ZM21.5001 58.8333H25.6667C25.6667 54.4583 26.3612 50.8646 27.7501 48.0521L29.8334 43.8333V21.3333H21.5001V58.8333ZM38.1667 34.875C39.3473 34.1111 40.6841 33.3472 42.1772 32.5833C43.6702 31.8194 45.1112 31.2639 46.5001 30.9167V21.3333H38.1667V34.875ZM54.8334 79.6667C49.0695 79.6667 44.1563 77.6354 40.0938 73.5729C36.0313 69.5104 34.0001 64.5972 34.0001 58.8333C34.0001 53.0694 36.0313 48.1562 40.0938 44.0938C44.1563 40.0312 49.0695 38 54.8334 38C60.5973 38 65.5105 40.0312 69.573 44.0938C73.6355 48.1562 75.6667 53.0694 75.6667 58.8333C75.6667 64.5972 73.6355 69.5104 69.573 73.5729C65.5105 77.6354 60.5973 79.6667 54.8334 79.6667ZM61.7084 68.625L64.6251 65.7083L56.9167 58V46.3333H52.7501V59.6667L61.7084 68.625Z" fill="#EF3340"/>
</svg>
