<svg width="26" height="26" viewBox="0 0 26 26" fill="none" xmlns="http://www.w3.org/2000/svg">
<path d="M13.75 7.75429H13C12.8011 7.75429 12.6103 7.67522 12.4697 7.53448C12.329 7.39374 12.25 7.20285 12.25 7.00382C12.25 6.9043 12.2105 6.80885 12.1402 6.73848C12.0698 6.66811 11.9745 6.62858 11.875 6.62858C11.7755 6.62858 11.6802 6.66811 11.6098 6.73848C11.5395 6.80885 11.5 6.9043 11.5 7.00382C11.5 7.40189 11.658 7.78367 11.9393 8.06515C12.2206 8.34663 12.6022 8.50477 13 8.50477V8.88001C13 8.97953 13.0395 9.07497 13.1098 9.14534C13.1802 9.21571 13.2755 9.25525 13.375 9.25525C13.4745 9.25525 13.5698 9.21571 13.6402 9.14534C13.7105 9.07497 13.75 8.97953 13.75 8.88001V8.50477C14.1478 8.50477 14.5294 8.34663 14.8107 8.06515C15.092 7.78367 15.25 7.40189 15.25 7.00382C15.25 6.60574 15.092 6.22396 14.8107 5.94248C14.5294 5.661 14.1478 5.50286 13.75 5.50286H13C12.8011 5.50286 12.6103 5.42379 12.4697 5.28305C12.329 5.14231 12.25 4.95142 12.25 4.75239C12.25 4.55335 12.329 4.36246 12.4697 4.22172C12.6103 4.08098 12.8011 4.00191 13 4.00191H13.75C13.9489 4.00191 14.1397 4.08098 14.2803 4.22172C14.421 4.36246 14.5 4.55335 14.5 4.75239C14.5 4.8519 14.5395 4.94735 14.6098 5.01772C14.6802 5.08809 14.7755 5.12762 14.875 5.12762C14.9745 5.12762 15.0698 5.08809 15.1402 5.01772C15.2105 4.94735 15.25 4.8519 15.25 4.75239C15.25 4.35431 15.092 3.97253 14.8107 3.69105C14.5294 3.40957 14.1478 3.25143 13.75 3.25143V2.87619C13.75 2.77667 13.7105 2.68123 13.6402 2.61086C13.5698 2.54049 13.4745 2.50096 13.375 2.50096C13.2755 2.50096 13.1802 2.54049 13.1098 2.61086C13.0395 2.68123 13 2.77667 13 2.87619V3.25143C12.6022 3.25143 12.2206 3.40957 11.9393 3.69105C11.658 3.97253 11.5 4.35431 11.5 4.75239C11.5 5.15046 11.658 5.53224 11.9393 5.81372C12.2206 6.0952 12.6022 6.25334 13 6.25334H13.75C13.9489 6.25334 14.1397 6.33241 14.2803 6.47315C14.421 6.61389 14.5 6.80478 14.5 7.00382C14.5 7.20285 14.421 7.39374 14.2803 7.53448C14.1397 7.67522 13.9489 7.75429 13.75 7.75429ZM13.375 10.7562C14.3392 10.7562 15.2817 10.4701 16.0834 9.93409C16.8851 9.39808 17.5099 8.63622 17.8789 7.74487C18.2479 6.85351 18.3444 5.87269 18.1563 4.92643C17.9682 3.98017 17.5039 3.11098 16.8221 2.42876C16.1404 1.74655 15.2717 1.28196 14.3261 1.09373C13.3804 0.905511 12.4002 1.00211 11.5094 1.37133C10.6186 1.74054 9.85726 2.36578 9.32159 3.16797C8.78591 3.97017 8.5 4.9133 8.5 5.8781C8.50159 7.17136 9.01571 8.41121 9.92961 9.32568C10.8435 10.2402 12.0826 10.7546 13.375 10.7562ZM13.375 1.75048C14.1908 1.75048 14.9884 1.99256 15.6667 2.44611C16.3451 2.89966 16.8738 3.5443 17.186 4.29853C17.4982 5.05275 17.5799 5.88268 17.4207 6.68336C17.2616 7.48404 16.8687 8.21951 16.2918 8.79677C15.7149 9.37403 14.9799 9.76715 14.1797 9.92641C13.3796 10.0857 12.5502 10.0039 11.7964 9.69153C11.0427 9.37912 10.3984 8.85007 9.94519 8.17128C9.49193 7.4925 9.25 6.69447 9.25 5.8781C9.25119 4.78375 9.68617 3.73457 10.4595 2.96075C11.2328 2.18693 12.2813 1.75167 13.375 1.75048ZM24.625 12.1071H21.625C21.3712 12.1076 21.1251 12.194 20.9266 12.3521C20.7281 12.5103 20.5889 12.731 20.5315 12.9784L16.3143 11.683C15.7706 11.5171 15.1879 11.5314 14.653 11.7236L14.0253 11.9487L11.083 11.3025C10.4615 11.1658 9.81403 11.2079 9.2155 11.4241L5.41225 12.796C5.32632 12.5917 5.18206 12.4174 4.99754 12.2949C4.81303 12.1723 4.59647 12.107 4.375 12.1071H1.375C1.27554 12.1071 1.18016 12.1466 1.10983 12.217C1.03951 12.2873 1 12.3828 1 12.4823V19.9871C1 20.0866 1.03951 20.182 1.10983 20.2524C1.18016 20.3228 1.27554 20.3623 1.375 20.3623H4.375C4.56014 20.3621 4.74237 20.3161 4.90551 20.2286C5.06866 20.141 5.20768 20.0145 5.31025 19.8602C6.69744 21.6202 8.45981 23.0481 10.4688 24.0396L12.0872 24.8366C12.3332 24.9589 12.6069 25.0142 12.881 24.9969C13.155 24.9796 13.4197 24.8904 13.6483 24.7383C13.877 24.5861 14.0615 24.3763 14.1834 24.1301C14.3052 23.8839 14.3601 23.6099 14.3425 23.3357C14.4441 23.3619 14.5482 23.3773 14.653 23.3815C14.7558 23.3813 14.8583 23.3708 14.959 23.3499C15.2874 23.2832 15.5836 23.1075 15.7998 22.8513C16.0159 22.5951 16.1393 22.2734 16.15 21.9383C16.3632 22.0583 16.6029 22.1236 16.8475 22.1282C16.9501 22.128 17.0523 22.1175 17.1528 22.0967C17.5024 22.0256 17.8149 21.8314 18.0336 21.5494C18.2523 21.2674 18.3626 20.9162 18.3445 20.5597C18.6348 20.632 18.9407 20.6094 19.2172 20.4951C19.4938 20.3809 19.7265 20.181 19.8812 19.9248C19.9939 19.7545 20.0705 19.563 20.1063 19.3619H20.5128C20.5434 19.6361 20.6737 19.8894 20.8787 20.0738C21.0837 20.2582 21.3493 20.3609 21.625 20.3623H24.625C24.7245 20.3623 24.8198 20.3228 24.8902 20.2524C24.9605 20.182 25 20.0866 25 19.9871V12.4823C25 12.3828 24.9605 12.2873 24.8902 12.217C24.8198 12.1466 24.7245 12.1071 24.625 12.1071ZM4.75 19.2366C4.75 19.3361 4.71049 19.4315 4.64016 19.5019C4.56984 19.5723 4.47446 19.6118 4.375 19.6118H1.75V12.8575H4.375C4.47446 12.8575 4.56984 12.8971 4.64016 12.9674C4.71049 13.0378 4.75 13.1333 4.75 13.2328V19.2366ZM19.2557 19.515C19.2016 19.5974 19.1318 19.6682 19.0503 19.7236C18.9688 19.7789 18.8773 19.8177 18.7808 19.8376C18.6843 19.8575 18.5849 19.8583 18.4882 19.8397C18.3914 19.8212 18.2993 19.7838 18.217 19.7296L14.7347 17.4354L14.5743 17.6793C14.5497 17.6959 14.5286 17.7172 14.5123 17.7419C14.4959 17.7666 14.4846 17.7943 14.479 17.8234L14.3223 18.0621L14.6095 18.2512C14.6132 18.2512 14.6155 18.258 14.6193 18.261L17.263 20.0036C17.4255 20.1146 17.5379 20.285 17.576 20.4782C17.614 20.6714 17.5747 20.8718 17.4664 21.0362C17.3582 21.2006 17.1897 21.3159 16.9974 21.3572C16.805 21.3985 16.6041 21.3624 16.438 21.2569L15.4915 20.6332L15.481 20.625L13.18 19.109H13.174L12.9557 18.9649C12.8727 18.9121 12.7723 18.8941 12.6761 18.9148C12.5799 18.9354 12.4956 18.993 12.4415 19.0753C12.3874 19.1575 12.3677 19.2577 12.3868 19.3542C12.4058 19.4508 12.462 19.5361 12.5433 19.5916L15.073 21.2584C15.1948 21.341 15.2896 21.4576 15.3456 21.5937C15.4016 21.7298 15.4164 21.8794 15.3881 22.0239C15.3598 22.1684 15.2897 22.3013 15.1864 22.4062C15.0832 22.5111 14.9514 22.5832 14.8075 22.6137C14.6128 22.6536 14.4102 22.6144 14.2443 22.5049L11.7048 20.8313C11.6636 20.8033 11.6174 20.7837 11.5686 20.7737C11.5199 20.7637 11.4696 20.7635 11.4208 20.7731C11.3719 20.7827 11.3255 20.802 11.2842 20.8298C11.2429 20.8575 11.2075 20.8932 11.1801 20.9348C11.1528 20.9764 11.1339 21.0231 11.1247 21.072C11.1156 21.1209 11.1162 21.1712 11.1266 21.2199C11.1371 21.2686 11.1571 21.3147 11.1855 21.3556C11.214 21.3965 11.2502 21.4313 11.2922 21.458L11.4242 21.5451C11.428 21.5451 11.4303 21.5526 11.4347 21.5556L13.2347 22.7406C13.4187 22.851 13.5521 23.0291 13.6064 23.2367C13.6607 23.4444 13.6316 23.665 13.5253 23.8515C13.419 24.0379 13.244 24.1753 13.0377 24.2341C12.8315 24.293 12.6103 24.2687 12.4218 24.1665L10.7995 23.3642C8.68963 22.3225 6.86931 20.7758 5.5 18.8613V13.5615L9.469 12.1311C9.93472 11.9634 10.4383 11.9307 10.9218 12.0365L12.7015 12.4275L11.4145 12.8921C11.0192 13.0275 10.6938 13.3145 10.51 13.69C10.3261 14.0655 10.2989 14.4987 10.4342 14.8943C10.5696 15.2899 10.8565 15.6155 11.2317 15.7994C11.607 15.9834 12.0399 16.0106 12.4352 15.8752L14.218 15.2966L19.042 18.4749C19.1313 18.5338 19.2069 18.6112 19.2638 18.7018C19.3207 18.7924 19.3576 18.8941 19.372 19.0002C19.3726 19.0185 19.3744 19.0368 19.3773 19.055C19.3879 19.2172 19.3452 19.3793 19.2557 19.515ZM20.5 18.6137H20.05C19.943 18.2993 19.7339 18.0299 19.456 17.8482L14.482 14.5701C14.4351 14.5392 14.3818 14.5192 14.3261 14.5117C14.2704 14.5042 14.2137 14.5093 14.1603 14.5266L12.2057 15.1615C12.054 15.2109 11.8912 15.2153 11.737 15.174C11.5829 15.1327 11.444 15.0475 11.3372 14.9288C11.2464 14.8283 11.1816 14.7069 11.1488 14.5753C11.1159 14.4438 11.116 14.3062 11.1489 14.1746C11.1818 14.0431 11.2466 13.9217 11.3375 13.8212C11.4284 13.7207 11.5427 13.6441 11.6702 13.5983L14.9095 12.429C15.2916 12.2916 15.7078 12.2816 16.096 12.4005L20.5 13.7544V18.6137ZM24.25 19.6118H21.625C21.5255 19.6118 21.4302 19.5723 21.3598 19.5019C21.2895 19.4315 21.25 19.3361 21.25 19.2366V13.2328C21.25 13.1333 21.2895 13.0378 21.3598 12.9674C21.4302 12.8971 21.5255 12.8575 21.625 12.8575H24.25V19.6118Z" fill="white" stroke="white" stroke-width="0.5"/>
</svg>
