<svg width="24" height="24" viewBox="0 0 24 24" fill="none" xmlns="http://www.w3.org/2000/svg">
<path fill-rule="evenodd" clip-rule="evenodd" d="M1.41435 3.46854C1.19522 3.19463 1.19522 2.80542 1.41435 2.5315L2.61435 1.03151C2.87311 0.70806 3.34507 0.655619 3.66852 0.914376C3.99197 1.17313 4.04441 1.64511 3.78565 1.96854L3.56047 2.25002H6C6.41421 2.25002 6.75 2.58582 6.75 3.00003C6.75 3.41425 6.41421 3.75003 6 3.75003H3.56047L3.78565 4.0315C4.04441 4.35495 3.99197 4.82692 3.66852 5.08567C3.34508 5.34443 2.87311 5.292 2.61435 4.96854L1.41435 3.46854ZM22.5857 21.4686C22.8048 21.1947 22.8048 20.8055 22.5857 20.5316L21.3857 19.0316C21.1269 18.7081 20.6549 18.6557 20.3315 18.9144C20.008 19.1732 19.9556 19.6451 20.2143 19.9686L20.4395 20.2501H18C17.5858 20.2501 17.25 20.5859 17.25 21.0001C17.25 21.4143 17.5858 21.7501 18 21.7501H20.4395L20.2143 22.0316C19.9556 22.355 20.008 22.827 20.3315 23.0857C20.6549 23.3445 21.1269 23.292 21.3857 22.9686L22.5857 21.4686ZM12 4.75005C7.99594 4.75005 4.75 7.996 4.75 12.0001C4.75 16.0042 7.99594 19.2501 12 19.2501C16.0041 19.2501 19.25 16.0042 19.25 12.0001C19.25 7.996 16.0041 4.75005 12 4.75005ZM3.25 12.0001C3.25 7.16757 7.16751 3.25006 12 3.25006C16.8325 3.25006 20.75 7.16757 20.75 12.0001C20.75 16.8326 16.8325 20.7501 12 20.7501C7.16751 20.7501 3.25 16.8326 3.25 12.0001Z" fill="white" stroke="white" stroke-width="0.3"/>
<path fill-rule="evenodd" clip-rule="evenodd" d="M12 5.87012C12.4142 5.87012 12.75 6.2059 12.75 6.62012V7.37012H14C14.4142 7.37012 14.75 7.7059 14.75 8.12012C14.75 8.53433 14.4142 8.87012 14 8.87012H12C11.3096 8.87012 10.75 9.42976 10.75 10.1201V11.3701H14C14.4142 11.3701 14.75 11.7059 14.75 12.1201V14.1201C14.75 15.3789 13.9043 16.4401 12.75 16.7666V17.6201C12.75 18.0343 12.4142 18.3701 12 18.3701C11.5858 18.3701 11.25 18.0343 11.25 17.6201V16.8701H10C9.58579 16.8701 9.25 16.5343 9.25 16.1201C9.25 15.7059 9.58579 15.3701 10 15.3701H12C12.6904 15.3701 13.25 14.8105 13.25 14.1201V12.8701H10C9.58579 12.8701 9.25 12.5343 9.25 12.1201V10.1201C9.25 8.86134 10.0957 7.8001 11.25 7.47363V6.62012C11.25 6.2059 11.5858 5.87012 12 5.87012Z" fill="white" stroke="white" stroke-width="0.3"/>
</svg>
