<svg width="24" height="24" viewBox="0 0 24 24" fill="none" xmlns="http://www.w3.org/2000/svg">
<path d="M21.2923 5.71663L21.4031 5.81184L21.5476 5.8325C22.0914 5.9102 22.5899 6.18529 22.9495 6.60803C23.3093 7.03092 23.5053 7.57253 23.4999 8.13203H23.4999V8.1369V21.2006C23.4999 21.8122 23.2595 22.3976 22.8333 22.8284C22.4073 23.2591 21.8307 23.5 21.2307 23.5H2.76922C2.16914 23.5 1.59253 23.2591 1.16655 22.8285C0.740378 22.3976 0.5 21.8122 0.5 21.2006V8.13879C0.504397 7.58537 0.705596 7.0528 1.06566 6.63823C1.42598 6.22336 1.92107 5.95451 2.45981 5.87939L2.62867 5.85585L2.74796 5.73404L7.36184 1.02328C7.61434 0.770238 7.95437 0.629216 8.30765 0.629216C8.6613 0.629216 9.00169 0.770543 9.25427 1.02411C9.25444 1.02427 9.2546 1.02443 9.25476 1.0246L10.8045 2.59119L11.1125 2.90261L11.4618 2.63817L13.9264 0.771922L13.9266 0.771724C14.1714 0.586097 14.4707 0.490846 14.7752 0.500694C15.0796 0.510543 15.3724 0.624959 15.6052 0.826198L15.6062 0.827066L21.2923 5.71663ZM22.1537 17.035H22.6537V16.535V12.8025V12.3025H22.1537H20.3076C19.6836 12.3025 19.0863 12.5531 18.6467 12.9975C18.2073 13.4417 17.9614 14.0429 17.9614 14.6688C17.9614 15.2946 18.2073 15.8959 18.6467 16.34C19.0863 16.7844 19.6836 17.035 20.3076 17.035H22.1537ZM15.0983 1.48993L14.7941 1.2239L14.4702 1.46553L12.181 3.17314L11.7202 3.51687L12.1245 3.92556L13.8691 5.68916L14.0158 5.83753H14.2245H18.7384H20.0696L19.0675 4.96115L15.0983 1.48993ZM8.66311 1.63598L8.30765 1.27664L7.95218 1.63598L4.63836 4.98589L3.7959 5.83753H4.99382H11.6215H12.8194L11.9769 4.98589L8.66311 1.63598ZM22.1537 11.4363H22.6537V10.9363V8.1369C22.6537 7.75855 22.5051 7.39461 22.2388 7.12545C21.9724 6.85609 21.6098 6.70377 21.2307 6.70377H2.76922C2.39003 6.70377 2.02749 6.85609 1.76104 7.12544C1.49477 7.39461 1.34614 7.75855 1.34614 8.1369V21.2006C1.34614 21.579 1.49477 21.9429 1.76104 22.2121C2.02749 22.4814 2.39004 22.6338 2.76922 22.6338H21.2307C21.6098 22.6338 21.9724 22.4814 22.2388 22.2121C22.5051 21.9429 22.6537 21.579 22.6537 21.2006V18.4013V17.9013H22.1537H20.3076C19.4627 17.9013 18.6513 17.562 18.0522 16.9564C17.4529 16.3506 17.1153 15.5278 17.1153 14.6688C17.1153 13.8097 17.4529 12.9869 18.0522 12.3811C18.6513 11.7755 19.4627 11.4363 20.3076 11.4363H22.1537Z" fill="white" stroke="white"/>
<path d="M20.7307 14.6659L20.7307 14.6659V14.6688C20.7307 14.7854 20.6848 14.8961 20.6048 14.977C20.5251 15.0576 20.418 15.1019 20.3076 15.1019C20.1971 15.1019 20.0901 15.0576 20.0103 14.977C19.9312 14.8969 19.8854 14.7875 19.8845 14.6722C19.887 14.5525 19.9331 14.439 20.0125 14.353C20.0715 14.2942 20.1456 14.2547 20.2254 14.2385C20.3067 14.222 20.3911 14.2303 20.4681 14.2626C20.5451 14.2949 20.6117 14.3501 20.6588 14.4218C20.7059 14.4937 20.7312 14.5787 20.7307 14.6659Z" fill="white" stroke="white"/>
</svg>
