<svg width="150" height="151" viewBox="0 0 150 151" fill="none" xmlns="http://www.w3.org/2000/svg">
<g id="Budget Balance" clip-path="url(#clip0_4651_683832)">
<path id="Vector" d="M105.495 133.212H98.0769C97.628 133.248 97.2091 133.452 96.9036 133.783C96.5982 134.113 96.4285 134.547 96.4285 134.998C96.4285 135.448 96.5982 135.882 96.9036 136.213C97.2091 136.544 97.628 136.747 98.0769 136.783H105.495C105.943 136.747 106.362 136.544 106.668 136.213C106.973 135.882 107.143 135.448 107.143 134.998C107.143 134.547 106.973 134.113 106.668 133.783C106.362 133.452 105.943 133.248 105.495 133.212ZM51.9231 133.212H44.5055C44.0566 133.248 43.6377 133.452 43.3322 133.783C43.0267 134.113 42.8571 134.547 42.8571 134.998C42.8571 135.448 43.0267 135.882 43.3322 136.213C43.6377 136.544 44.0566 136.747 44.5055 136.783H51.9231C52.372 136.747 52.7909 136.544 53.0964 136.213C53.4018 135.882 53.5715 135.448 53.5715 134.998C53.5715 134.547 53.4018 134.113 53.0964 133.783C52.7909 133.452 52.372 133.248 51.9231 133.212ZM92.8571 133.212H57.1429C56.6693 133.212 56.215 133.4 55.8802 133.735C55.5453 134.07 55.3571 134.524 55.3571 134.998C55.3571 135.471 55.5453 135.925 55.8802 136.26C56.215 136.595 56.6693 136.783 57.1429 136.783H71.375V138.569H64.2857C63.8121 138.569 63.3579 138.757 63.023 139.092C62.6881 139.427 62.5 139.881 62.5 140.355C62.5 140.828 62.6881 141.283 63.023 141.617C63.3579 141.952 63.8121 142.14 64.2857 142.14H86.6071C87.0807 142.14 87.5349 141.952 87.8698 141.617C88.2047 141.283 88.3929 140.828 88.3929 140.355C88.3929 139.881 88.2047 139.427 87.8698 139.092C87.5349 138.757 87.0807 138.569 86.6071 138.569H78.625V136.783H92.8571C93.3307 136.783 93.7849 136.595 94.1198 136.26C94.4547 135.925 94.6429 135.471 94.6429 134.998C94.6429 134.524 94.4547 134.07 94.1198 133.735C93.7849 133.4 93.3307 133.212 92.8571 133.212Z" fill="#48989c"/>
<path id="Vector_2" d="M24.1071 93.0335C24.5807 93.0335 25.0349 92.8454 25.3698 92.5105C25.7047 92.1756 25.8928 91.7214 25.8929 91.2478V89.7865C25.8542 89.2708 26.0198 88.7606 26.3538 88.3659C26.6878 87.9712 27.1636 87.7235 27.6786 87.6764H63.329L65.3379 84.105H48.1548C53.612 82.4625 58.4664 78.3409 58.8868 71.4246C59.3333 64.0974 56.1361 58.183 52.2671 52.6296C50.4469 50.0182 48.3298 47.9625 46.5427 45.4C46.8103 45.2177 47.0231 44.9659 47.1584 44.6718C47.2937 44.3776 47.3463 44.0522 47.3106 43.7304C47.2748 43.4086 47.1521 43.1026 46.9556 42.8453C46.7591 42.588 46.4962 42.3891 46.1952 42.27C46.5004 40.3698 46.991 38.504 47.6597 36.6994C48.1679 35.5957 49.8029 33.6411 49.3699 32.2204C49.2571 31.9636 49.0665 31.7489 48.8249 31.6064C48.5834 31.4639 48.3032 31.401 48.0239 31.4264C47.9287 31.426 47.8336 31.4339 47.7397 31.4499C45.9753 31.7641 44.8903 34.5555 43.0854 34.5555C42.9049 34.5548 42.7253 34.528 42.5524 34.476C41.7379 34.2361 41.4979 33.0081 40.8022 32.5875C40.6659 32.5 40.5079 32.452 40.346 32.4491C39.6012 32.449 39.0337 33.5566 38.5195 34.104C38.3361 34.3339 38.1071 34.5235 37.8469 34.6609C37.5867 34.7982 37.301 34.8803 37.0076 34.902C36.7565 34.899 36.5092 34.8396 36.2841 34.7281C35.4684 34.3406 34.8045 33.5577 33.9512 33.2803C33.8627 33.2522 33.7703 33.2379 33.6773 33.2381C33.5469 33.2398 33.4181 33.2674 33.2983 33.3192C33.1785 33.371 33.0702 33.4459 32.9796 33.5398C32.8889 33.6336 32.8178 33.7445 32.7702 33.866C32.7226 33.9874 32.6995 34.1171 32.7023 34.2476C32.8073 35.06 33.1446 35.8248 33.6737 36.4503C33.6737 36.4503 34.7605 38.0459 35.6701 42.1451C35.2481 42.1539 34.8429 42.3125 34.527 42.5925C34.2112 42.8726 34.0053 43.2559 33.9461 43.6739C33.887 44.0919 33.9784 44.5173 34.2041 44.874C34.4299 45.2307 34.7751 45.4955 35.1781 45.6211C33.4752 47.9974 31.4969 50.3028 29.876 52.6295C26.0073 58.1829 22.8086 64.0973 23.2563 71.4246C23.6762 78.3409 28.5313 82.4625 33.9883 84.1049H27.6786C26.2157 84.1508 24.8307 84.7744 23.8266 85.8393C22.8225 86.9041 22.2813 88.3234 22.3214 89.7864V91.2478C22.3214 91.7214 22.5096 92.1756 22.8445 92.5105C23.1793 92.8454 23.6335 93.0335 24.1071 93.0335ZM40.2838 37.3102C40.6706 37.5708 41.0952 37.7703 41.5427 37.9017C42.0435 38.0502 42.563 38.1261 43.0854 38.1269C43.2083 38.1269 43.329 38.1229 43.4477 38.1149C43.0804 39.5262 42.7864 41.0141 42.5844 42.1407H39.3208C39.0636 40.8415 38.7336 39.5577 38.3324 38.2955C39.0412 38.0983 39.7043 37.7635 40.2838 37.3102ZM26.821 71.2068C26.4288 64.7882 29.466 59.4662 32.8064 54.671C33.6092 53.5186 34.5161 52.3601 35.4762 51.1335C36.6977 49.5732 37.9606 47.9597 39.0742 46.263L39.4358 45.7121H42.4903L42.8028 46.2161C43.9552 47.9998 45.2408 49.6939 46.6485 51.2839C47.6095 52.4211 48.5172 53.4953 49.3367 54.6711C52.6766 59.465 55.7132 64.7864 55.322 71.2079C54.8676 78.6816 47.6722 81.0939 43.4931 81.3409C41.9097 81.4361 40.322 81.4378 38.7384 81.3462L38.6507 81.341C34.4705 81.0939 27.2749 78.6815 26.821 71.2068ZM86.671 87.6764H122.321C122.836 87.7235 123.312 87.9712 123.646 88.3659C123.98 88.7606 124.146 89.2708 124.107 89.7865V91.2478C124.107 91.7214 124.295 92.1756 124.63 92.5105C124.965 92.8454 125.419 93.0335 125.893 93.0335C126.366 93.0335 126.821 92.8454 127.156 92.5105C127.49 92.1756 127.679 91.7214 127.679 91.2478V89.7865C127.719 88.3234 127.177 86.9041 126.173 85.8393C125.169 84.7745 123.784 84.1508 122.321 84.105H116.012C121.469 82.4625 126.324 78.3409 126.744 71.4246C127.19 64.0974 123.993 58.183 120.124 52.6296C118.304 50.0182 116.187 47.9625 114.4 45.4C114.667 45.2177 114.88 44.9659 115.016 44.6718C115.151 44.3776 115.203 44.0522 115.168 43.7304C115.132 43.4086 115.009 43.1026 114.813 42.8453C114.616 42.588 114.353 42.3891 114.052 42.27C114.358 40.3698 114.848 38.504 115.517 36.6994C116.025 35.5957 117.66 33.6411 117.227 32.2204C117.114 31.9636 116.924 31.7489 116.682 31.6064C116.441 31.4639 116.16 31.401 115.881 31.4264C115.786 31.426 115.691 31.4339 115.597 31.4499C113.832 31.7641 112.747 34.5555 110.943 34.5555C110.762 34.5548 110.582 34.528 110.409 34.476C109.595 34.2361 109.355 33.0081 108.659 32.5875C108.523 32.5 108.365 32.452 108.203 32.4491C107.458 32.449 106.891 33.5566 106.377 34.104C106.193 34.3339 105.964 34.5235 105.704 34.6609C105.444 34.7982 105.158 34.8803 104.865 34.902C104.614 34.899 104.366 34.8396 104.141 34.7281C103.325 34.3406 102.662 33.5577 101.808 33.2803C101.72 33.2522 101.627 33.2379 101.534 33.2381C101.404 33.2398 101.275 33.2674 101.155 33.3192C101.036 33.3709 100.927 33.4459 100.837 33.5398C100.746 33.6336 100.675 33.7445 100.627 33.866C100.58 33.9874 100.557 34.1171 100.559 34.2476C100.664 35.06 101.002 35.8248 101.531 36.4503C101.531 36.4503 102.618 38.0459 103.527 42.1451C103.105 42.1539 102.7 42.3125 102.384 42.5925C102.068 42.8726 101.862 43.2559 101.803 43.6739C101.744 44.0919 101.836 44.5173 102.061 44.874C102.287 45.2307 102.632 45.4955 103.035 45.6211C101.332 47.9974 99.354 50.3028 97.7331 52.6295C93.8644 58.1829 90.6656 64.0973 91.1134 71.4246C91.5333 78.3409 96.3884 82.4625 101.845 84.1049H84.6621L86.671 87.6764ZM108.141 37.3102C108.528 37.5708 108.952 37.7703 109.4 37.9017C109.901 38.0503 110.42 38.1261 110.943 38.1269C111.065 38.1269 111.186 38.1229 111.305 38.1149C110.938 39.5262 110.644 41.0141 110.441 42.1407H107.178C106.921 40.8415 106.591 39.5577 106.189 38.2955C106.898 38.0983 107.561 37.7635 108.141 37.3102ZM94.6782 71.2068C94.286 64.7882 97.3231 59.4662 100.664 54.671C101.466 53.5186 102.373 52.3601 103.333 51.1336C104.555 49.5732 105.818 47.9597 106.931 46.263L107.293 45.7121H110.347L110.66 46.216C111.812 47.9998 113.098 49.6939 114.506 51.2839C115.467 52.4212 116.374 53.4953 117.194 54.6711C120.534 59.4651 123.57 64.7863 123.179 71.2079C122.725 78.6815 115.529 81.0939 111.35 81.341C109.767 81.4361 108.179 81.4379 106.596 81.3462L106.508 81.341C102.328 81.0939 95.132 78.6815 94.6782 71.2068Z" fill="#48989c"/>
<path id="Vector_3" d="M107.143 76.0692C107.143 76.5428 107.331 76.997 107.666 77.3319C108.001 77.6668 108.455 77.8549 108.929 77.8549C109.402 77.8549 109.856 77.6668 110.191 77.3319C110.526 76.997 110.714 76.5428 110.714 76.0692V75.2212C111.18 75.138 111.637 75.0126 112.08 74.8467C114.848 73.7996 116.227 71.2893 115.356 68.8749C114.383 66.1902 111.712 65.5162 109.565 64.9747C108.121 64.6111 106.757 64.2667 106.227 63.4916C106.068 63.2885 105.978 63.0402 105.969 62.7824C105.96 62.5246 106.034 62.2707 106.179 62.0573C106.829 61.1749 108.598 60.9508 110.009 61.1818C110.562 61.2663 111.087 61.4853 111.536 61.8196C111.985 62.1539 112.345 62.5933 112.585 63.0992C112.656 63.3229 112.77 63.5304 112.921 63.7099C113.072 63.8894 113.257 64.0373 113.466 64.1451C113.674 64.253 113.902 64.3187 114.136 64.3385C114.37 64.3582 114.605 64.3317 114.829 64.2605C115.052 64.1892 115.26 64.0745 115.439 63.923C115.618 63.7715 115.766 63.5862 115.873 63.3776C115.981 63.169 116.046 62.9412 116.066 62.7074C116.085 62.4735 116.058 62.238 115.987 62.0145C115.558 60.8983 114.847 59.9126 113.923 59.154C112.998 58.3955 111.893 57.8901 110.714 57.6874V56.4263C110.714 55.9527 110.526 55.4985 110.191 55.1636C109.856 54.8288 109.402 54.6406 108.929 54.6406C108.455 54.6406 108.001 54.8288 107.666 55.1636C107.331 55.4985 107.143 55.9527 107.143 56.4263V57.7026C105.627 57.9309 104.256 58.7287 103.308 59.9332C102.715 60.7404 102.392 61.7149 102.387 62.7168C102.382 63.7187 102.695 64.6964 103.281 65.5092C104.572 67.3987 106.761 67.9507 108.692 68.4381C110.546 68.9054 111.694 69.2507 111.998 70.0886C112.251 70.7896 111.231 71.3494 110.818 71.5055C108.729 72.2929 105.913 71.3163 105.236 69.5716C105.151 69.3527 105.024 69.1526 104.862 68.9828C104.7 68.8131 104.506 68.6769 104.292 68.5821C104.077 68.4873 103.846 68.4357 103.611 68.4304C103.377 68.4251 103.143 68.466 102.924 68.5509C102.706 68.6359 102.506 68.7631 102.336 68.9253C102.167 69.0875 102.031 69.2816 101.936 69.4964C101.842 69.7112 101.79 69.9426 101.785 70.1772C101.78 70.4118 101.822 70.6451 101.907 70.8638C102.382 71.9327 103.105 72.8733 104.015 73.6077C104.925 74.3422 105.998 74.8495 107.143 75.0877V76.0692ZM39.2857 76.0692C39.2857 76.5428 39.4739 76.997 39.8087 77.3319C40.1436 77.6668 40.5978 77.8549 41.0714 77.8549C41.545 77.8549 41.9992 77.6668 42.3341 77.3319C42.669 76.997 42.8571 76.5428 42.8571 76.0692V75.2212C43.3227 75.138 43.7797 75.0126 44.2226 74.8467C46.991 73.7996 48.3695 71.2893 47.4993 68.8749C46.5262 66.1902 43.8547 65.5162 41.7079 64.9747C40.264 64.6111 38.9003 64.2667 38.3702 63.4916C38.2112 63.2885 38.1209 63.0402 38.1121 62.7824C38.1033 62.5246 38.1766 62.2707 38.3214 62.0573C38.9718 61.1749 40.7418 60.9508 42.1517 61.1818C42.7051 61.2663 43.2294 61.4853 43.6785 61.8196C44.1275 62.1539 44.4877 62.5933 44.7274 63.0992C44.8712 63.5504 45.1884 63.926 45.6092 64.1433C46.0299 64.3606 46.5197 64.4019 46.9709 64.258C47.4221 64.1142 47.7976 63.797 48.015 63.3763C48.2323 62.9555 48.2735 62.4657 48.1297 62.0145C47.701 60.8983 46.9897 59.9126 46.0654 59.154C45.1411 58.3955 44.0356 57.8901 42.8571 57.6874V56.4263C42.8571 55.9527 42.669 55.4985 42.3341 55.1636C41.9992 54.8288 41.545 54.6406 41.0714 54.6406C40.5978 54.6406 40.1436 54.8288 39.8087 55.1636C39.4739 55.4985 39.2857 55.9527 39.2857 56.4263V57.7026C37.7701 57.931 36.3987 58.7288 35.451 59.9333C34.8574 60.7404 34.535 61.715 34.5301 62.7169C34.5252 63.7188 34.8382 64.6964 35.4239 65.5093C36.7153 67.3987 38.9038 67.9507 40.8351 68.4381C42.6889 68.9054 43.8372 69.2507 44.1406 70.0887C44.3935 70.7897 43.3742 71.3495 42.9609 71.5055C40.8718 72.2929 38.0563 71.3163 37.3788 69.5716C37.2941 69.3527 37.1672 69.1527 37.0052 68.9829C36.8432 68.8131 36.6493 68.6769 36.4346 68.5821C36.2199 68.4873 35.9887 68.4358 35.7541 68.4304C35.5194 68.4251 35.2861 68.4661 35.0673 68.551C34.8485 68.6359 34.6486 68.7631 34.4791 68.9253C34.3095 69.0876 34.1736 69.2816 34.0791 69.4965C33.9846 69.7113 33.9333 69.9426 33.9283 70.1772C33.9233 70.4118 33.9645 70.6452 34.0497 70.8638C34.5249 71.9327 35.2475 72.8733 36.1579 73.6077C37.0684 74.3422 38.1405 74.8495 39.2857 75.0877V76.0692Z" fill="#48989c"/>
<path id="Vector_4" d="M1.78571 129.64C2.77194 129.64 3.57143 128.841 3.57143 127.855C3.57143 126.868 2.77194 126.069 1.78571 126.069C0.799491 126.069 0 126.868 0 127.855C0 128.841 0.799491 129.64 1.78571 129.64Z" fill="#48989c"/>
<path id="Vector_5" d="M9.82142 126.069H7.14285C6.66925 126.069 6.21505 126.257 5.88016 126.592C5.54528 126.927 5.35714 127.381 5.35714 127.855C5.35714 128.329 5.54528 128.783 5.88016 129.118C6.21505 129.453 6.66925 129.641 7.14285 129.641H9.82142C10.295 129.641 10.7492 129.453 11.0841 129.118C11.419 128.783 11.6071 128.329 11.6071 127.855C11.6071 127.381 11.419 126.927 11.0841 126.592C10.7492 126.257 10.295 126.069 9.82142 126.069ZM142.857 126.069H140.179C139.705 126.069 139.251 126.257 138.916 126.592C138.581 126.927 138.393 127.381 138.393 127.855C138.393 128.329 138.581 128.783 138.916 129.118C139.251 129.453 139.705 129.641 140.179 129.641H142.857C143.331 129.641 143.785 129.453 144.12 129.118C144.455 128.783 144.643 128.329 144.643 127.855C144.643 127.381 144.455 126.927 144.12 126.592C143.785 126.257 143.331 126.069 142.857 126.069Z" fill="#48989c"/>
<path id="Vector_6" d="M148.214 129.64C149.201 129.64 150 128.841 150 127.855C150 126.868 149.201 126.069 148.214 126.069C147.228 126.069 146.429 126.868 146.429 127.855C146.429 128.841 147.228 129.64 148.214 129.64Z" fill="#48989c"/>
<path id="Vector_7" d="M134.573 126.069H122.321V124.283H126.786C128.206 124.282 129.568 123.717 130.572 122.712C131.576 121.708 132.141 120.346 132.143 118.926V111.783C132.141 110.363 131.576 109.001 130.572 107.997C129.568 106.993 128.206 106.428 126.786 106.426H89.2857V103.748C89.2842 102.327 88.7193 100.966 87.7149 99.9612C86.7106 98.9569 85.3489 98.392 83.9286 98.3904H76.7857V93.9261H83.0357C83.3475 93.9262 83.6538 93.8446 83.9243 93.6895C84.1948 93.5344 84.4199 93.3111 84.5773 93.042C84.7347 92.7729 84.8189 92.4673 84.8215 92.1555C84.8241 91.8437 84.745 91.5367 84.5921 91.265L76.5564 76.9793C76.4011 76.7031 76.175 76.4733 75.9015 76.3133C75.628 76.1533 75.3169 76.069 75 76.069C74.6831 76.069 74.372 76.1533 74.0985 76.3133C73.825 76.4733 73.5989 76.7031 73.4436 76.9793L65.4079 91.265C65.255 91.5367 65.1759 91.8437 65.1785 92.1555C65.1811 92.4673 65.2653 92.7729 65.4227 93.042C65.5801 93.3111 65.8053 93.5344 66.0757 93.6895C66.3462 93.8446 66.6525 93.9262 66.9643 93.9261H73.2143V98.3904H66.0714C64.6511 98.392 63.2894 98.9569 62.2851 99.9612C61.2808 100.966 60.7158 102.327 60.7143 103.748V106.426H23.2143C21.794 106.428 20.4322 106.993 19.4279 107.997C18.4236 109.001 17.8587 110.363 17.8571 111.783V118.926C17.8587 120.346 18.4236 121.708 19.4279 122.712C20.4322 123.717 21.794 124.282 23.2143 124.283H27.6786V126.069H15.4274C15.1734 126.036 14.9152 126.057 14.67 126.132C14.4249 126.206 14.1985 126.332 14.006 126.501C13.8135 126.67 13.6592 126.878 13.5535 127.112C13.4479 127.345 13.3932 127.599 13.3932 127.855C13.3932 128.111 13.4479 128.364 13.5535 128.598C13.6592 128.831 13.8135 129.039 14.006 129.208C14.1985 129.377 14.4249 129.503 14.67 129.578C14.9152 129.652 15.1734 129.674 15.4274 129.64H134.573C134.827 129.674 135.085 129.652 135.33 129.578C135.575 129.503 135.801 129.377 135.994 129.208C136.187 129.039 136.341 128.831 136.446 128.598C136.552 128.364 136.607 128.111 136.607 127.855C136.607 127.599 136.552 127.345 136.446 127.112C136.341 126.878 136.187 126.67 135.994 126.501C135.801 126.332 135.575 126.206 135.33 126.132C135.085 126.057 134.827 126.036 134.573 126.069ZM70.0178 90.3547L75 81.4968L79.9822 90.3547L70.0178 90.3547ZM64.2857 103.748C64.2863 103.274 64.4747 102.82 64.8094 102.486C65.1442 102.151 65.598 101.962 66.0714 101.962H83.9286C84.402 101.962 84.8558 102.151 85.1906 102.486C85.5253 102.82 85.7137 103.274 85.7143 103.748V106.426H64.2857V103.748ZM23.2143 120.712C22.7409 120.711 22.287 120.523 21.9523 120.188C21.6175 119.853 21.4292 119.4 21.4286 118.926V111.783C21.4292 111.31 21.6175 110.856 21.9523 110.521C22.287 110.187 22.7409 109.998 23.2143 109.998H126.786C127.259 109.998 127.713 110.187 128.048 110.521C128.382 110.856 128.571 111.31 128.571 111.783V118.926C128.571 119.4 128.382 119.853 128.048 120.188C127.713 120.523 127.259 120.711 126.786 120.712H23.2143ZM106.25 126.069H43.75V124.283H106.25V126.069ZM31.25 126.069V124.283H40.1786V126.069H31.25ZM109.821 126.069V124.283H118.75V126.069H109.821ZM63.3929 30.3101C63.9226 30.3101 64.4405 30.153 64.881 29.8586C65.3215 29.5643 65.6648 29.146 65.8675 28.6565C66.0703 28.1671 66.1233 27.6285 66.02 27.1089C65.9166 26.5893 65.6615 26.1121 65.2869 25.7375C64.9123 25.3628 64.435 25.1077 63.9154 25.0044C63.3958 24.901 62.8573 24.9541 62.3678 25.1568C61.8784 25.3595 61.46 25.7029 61.1657 26.1434C60.8714 26.5838 60.7143 27.1017 60.7143 27.6315C60.7151 28.3416 60.9976 29.0225 61.4997 29.5246C62.0019 30.0268 62.6827 30.3092 63.3929 30.3101ZM63.3929 26.2922C63.6577 26.2922 63.9167 26.3707 64.1369 26.5179C64.3572 26.6651 64.5288 26.8742 64.6302 27.119C64.7316 27.3637 64.7581 27.633 64.7064 27.8928C64.6547 28.1526 64.5272 28.3912 64.3399 28.5785C64.1526 28.7658 63.9139 28.8934 63.6541 28.945C63.3943 28.9967 63.1251 28.9702 62.8803 28.8688C62.6356 28.7675 62.4264 28.5958 62.2793 28.3756C62.1321 28.1553 62.0536 27.8964 62.0536 27.6315C62.0539 27.2764 62.1951 26.9359 62.4462 26.6849C62.6973 26.4338 63.0378 26.2926 63.3929 26.2922ZM145.361 46.1583C145.008 46.1583 144.663 46.263 144.369 46.4592C144.076 46.6554 143.847 46.9343 143.712 47.2606C143.576 47.5869 143.541 47.946 143.61 48.2924C143.679 48.6388 143.849 48.9569 144.099 49.2067C144.348 49.4564 144.667 49.6265 145.013 49.6954C145.359 49.7643 145.718 49.7289 146.045 49.5938C146.371 49.4586 146.65 49.2297 146.846 48.9361C147.042 48.6424 147.147 48.2972 147.147 47.944C147.147 47.4706 146.958 47.0167 146.623 46.6819C146.289 46.3471 145.835 46.1588 145.361 46.1583ZM145.361 48.8368C145.185 48.8368 145.012 48.7845 144.865 48.6864C144.718 48.5883 144.604 48.4488 144.536 48.2857C144.469 48.1225 144.451 47.943 144.486 47.7698C144.52 47.5966 144.605 47.4375 144.73 47.3126C144.855 47.1878 145.014 47.1027 145.187 47.0683C145.36 47.0338 145.54 47.0515 145.703 47.1191C145.866 47.1867 146.006 47.3011 146.104 47.4479C146.202 47.5948 146.254 47.7674 146.254 47.944C146.254 48.1807 146.16 48.4077 145.992 48.5751C145.825 48.7425 145.598 48.8366 145.361 48.8368ZM108.036 16.2476C107.683 16.2476 107.337 16.3523 107.044 16.5485C106.75 16.7447 106.521 17.0236 106.386 17.3499C106.251 17.6762 106.215 18.0353 106.284 18.3816C106.353 18.728 106.523 19.0462 106.773 19.296C107.023 19.5457 107.341 19.7158 107.687 19.7847C108.034 19.8536 108.393 19.8182 108.719 19.6831C109.045 19.5479 109.324 19.319 109.52 19.0254C109.717 18.7317 109.821 18.3865 109.821 18.0333C109.821 17.5598 109.633 17.1059 109.298 16.7712C108.963 16.4364 108.509 16.2481 108.036 16.2476ZM108.036 18.9261C107.859 18.9261 107.687 18.8738 107.54 18.7757C107.393 18.6775 107.278 18.5381 107.211 18.375C107.143 18.2118 107.126 18.0323 107.16 17.8591C107.194 17.6859 107.28 17.5268 107.404 17.4019C107.529 17.2771 107.688 17.192 107.862 17.1576C108.035 17.1231 108.214 17.1408 108.377 17.2084C108.541 17.276 108.68 17.3904 108.778 17.5372C108.876 17.6841 108.929 17.8567 108.929 18.0333C108.928 18.27 108.834 18.497 108.667 18.6644C108.499 18.8318 108.272 18.9259 108.036 18.9261ZM127.679 32.0958C127.325 32.0958 126.98 32.2005 126.686 32.3967C126.393 32.5929 126.164 32.8718 126.029 33.1981C125.894 33.5244 125.858 33.8835 125.927 34.2299C125.996 34.5763 126.166 34.8944 126.416 35.1442C126.666 35.3939 126.984 35.564 127.33 35.6329C127.677 35.7018 128.036 35.6664 128.362 35.5313C128.688 35.3961 128.967 35.1672 129.163 34.8736C129.36 34.5799 129.464 34.2347 129.464 33.8815C129.464 33.4081 129.275 32.9542 128.941 32.6194C128.606 32.2846 128.152 32.0963 127.679 32.0958ZM127.679 34.7743C127.502 34.7743 127.329 34.722 127.183 34.6239C127.036 34.5258 126.921 34.3863 126.854 34.2232C126.786 34.06 126.768 33.8805 126.803 33.7073C126.837 33.5341 126.922 33.375 127.047 33.2501C127.172 33.1253 127.331 33.0402 127.504 33.0058C127.678 32.9713 127.857 32.989 128.02 33.0566C128.183 33.1242 128.323 33.2386 128.421 33.3854C128.519 33.5323 128.571 33.7049 128.571 33.8815C128.571 34.1182 128.477 34.3452 128.31 34.5126C128.142 34.68 127.915 34.7741 127.679 34.7743ZM34.6471 24.2833C34.6471 23.9301 34.5423 23.5848 34.3461 23.2912C34.1499 22.9975 33.871 22.7686 33.5447 22.6335C33.2184 22.4983 32.8594 22.463 32.513 22.5319C32.1666 22.6008 31.8484 22.7708 31.5987 23.0206C31.3489 23.2703 31.1788 23.5885 31.1099 23.9349C31.041 24.2813 31.0764 24.6403 31.2116 24.9666C31.3467 25.2929 31.5756 25.5718 31.8693 25.768C32.1629 25.9643 32.5082 26.069 32.8613 26.069C33.3348 26.0684 33.7887 25.8801 34.1234 25.5454C34.4582 25.2106 34.6465 24.7567 34.6471 24.2833ZM31.9685 24.2833C31.9685 24.1067 32.0209 23.9341 32.119 23.7872C32.2171 23.6404 32.3565 23.526 32.5197 23.4584C32.6828 23.3908 32.8623 23.3731 33.0355 23.4076C33.2087 23.442 33.3678 23.5271 33.4927 23.6519C33.6176 23.7768 33.7026 23.9359 33.737 24.1091C33.7715 24.2823 33.7538 24.4618 33.6862 24.625C33.6187 24.7881 33.5042 24.9275 33.3574 25.0257C33.2106 25.1238 33.0379 25.1761 32.8613 25.1761C32.6246 25.1759 32.3977 25.0817 32.2303 24.9144C32.0629 24.747 31.9687 24.52 31.9685 24.2833Z" fill="#48989c"/>
<path id="Vector_8" d="M6.26161 43.4402L7.58928 41.6937L6.75089 41.2188L5.89911 43.1741H5.87053L5.00536 41.233L4.15178 41.7214L5.46518 43.4259V43.4545L3.41161 43.1884V44.1384L5.47946 43.8732V43.9009L4.15178 45.6054L4.94821 46.108L5.85714 44.1384H5.88393L6.72232 46.0946L7.60268 45.5911L6.26161 43.9152V43.8866L8.37053 44.1384V43.1884L6.26161 43.4679V43.4402Z" fill="#48989c"/>
<path id="Vector_9" d="M12.2723 14.9162L11.508 15.8975L11.967 16.1877L12.4902 15.0528H12.5054L12.9884 16.1796L13.4955 15.8903L12.7232 14.9243V14.9082L13.9375 15.0528V14.5064L12.7232 14.6671V14.651L13.4875 13.6457L13.0045 13.3716L12.5143 14.4984H12.4982L11.9991 13.3796L11.508 13.6618L12.2643 14.643V14.6591L11.0812 14.5064V15.0528L12.2723 14.9002V14.9162Z" fill="#48989c"/>
<path id="Vector_10" d="M147.147 11.7511V10.8189L145.079 11.0931V11.0654L146.38 9.35287L145.558 8.8877L144.722 10.8056H144.695L143.846 8.9002L143.009 9.38055L144.297 11.052V11.0797L142.282 10.8189V11.7511L144.311 11.4904V11.5181L143.009 13.1895L143.79 13.6832L144.681 11.7511H144.708L145.53 13.6689L146.394 13.1761L145.079 11.5314V11.5038L147.147 11.7511Z" fill="#48989c"/>
<path id="Vector_11" d="M85.0009 9.76382L86.1241 8.28704L85.4152 7.88525L84.6938 9.53972H84.6696L83.9375 7.89686L83.2161 8.31025L84.3277 9.75222V9.77633L82.5893 9.55132V10.3549L84.3393 10.1308V10.1549L83.2161 11.596L83.8893 12.0219L84.658 10.3549H84.6813L85.3911 12.0103L86.1357 11.5844L85.0009 10.1656V10.1424L86.7857 10.3549V9.55132L85.0009 9.78793V9.76382Z" fill="#48989c"/>
</g>
<defs>
<clipPath id="clip0_4651_683832">
<rect width="150" height="150" fill="white" transform="translate(0 0.0126953)"/>
</clipPath>
</defs>
</svg>
