<svg width="151" height="151" viewBox="0 0 151 151" fill="none" xmlns="http://www.w3.org/2000/svg">
<g id="Quality Badge">
<path id="Vector" opacity="0.3" d="M62.9444 46.874C62.9444 46.874 62.9444 69.2629 49.9999 69.2629H62.9444V46.874ZM66.861 50.0129C66.861 50.0129 65.8888 63.7629 95.7499 63.7629C95.7499 63.7629 103.583 63.7351 103.417 68.0407C103.417 68.0407 100.194 70.6796 96.5833 70.6796C92.9722 70.6796 70.7499 69.2351 70.7499 69.2351L65.7222 66.5962V50.0129H66.861Z" fill="#48989c"/>
<path id="Vector_2" d="M123.278 132.929L105.389 129.707L102.639 147.651L77.2777 112.151C78.2777 111.846 79.2222 111.29 80.0277 110.485L81.75 108.762C83.6389 106.846 86.5 106.29 89 107.318L91.2777 108.262C94.6666 109.679 98.5555 108.04 99.9722 104.651L100.889 102.429C100.972 102.262 101.028 102.096 101.139 101.929L123.278 132.929ZM70.6389 110.512C71.4444 111.318 72.3889 111.874 73.3889 112.179L48.0277 147.679L45.2777 129.735L27.3889 132.957L49.5555 101.901C49.6389 102.068 49.7222 102.262 49.8055 102.457L50.75 104.735C52.1666 108.124 56.0555 109.735 59.4444 108.318L61.6666 107.401C64.1666 106.374 67.0277 106.929 68.9166 108.846L70.6389 110.512Z" fill="#48989c"/>
<g id="Group">
<path id="Vector_3" d="M129.278 63.2349C130.806 61.7071 131.639 59.7071 131.639 57.5405C131.639 55.3738 130.806 53.3738 129.278 51.846L127.556 50.1238C126.056 48.6238 125.583 46.346 126.417 44.3738L127.361 42.1238C128.194 40.1516 128.194 37.9571 127.361 35.9571C126.528 33.9571 125 32.4294 123 31.596L120.778 30.6794C118.806 29.8738 117.528 27.9571 117.528 25.8183V23.4294C117.528 18.9849 113.917 15.3738 109.472 15.3738H107C104.861 15.3738 102.944 14.096 102.139 12.1238L101.194 9.87381C99.9444 6.84603 97.0277 4.90158 93.75 4.90158C92.6944 4.90158 91.6666 5.09603 90.6666 5.5127L88.4444 6.42936C87.8055 6.70714 87.1111 6.84603 86.4166 6.84603C85 6.84603 83.6944 6.29047 82.6944 5.29047L81 3.59603C79.5 2.09603 77.4722 1.2627 75.3333 1.2627C73.1944 1.2627 71.1666 2.09603 69.6388 3.62381L67.9166 5.34603C66.9166 6.34603 65.6111 6.90158 64.1944 6.90158C63.5 6.90158 62.8333 6.7627 62.1944 6.5127L59.9444 5.56825C58.9722 5.15158 57.9166 4.95714 56.8611 4.95714C53.5833 4.95714 50.6666 6.90158 49.4166 9.92936L48.5 12.1516C47.6944 14.1238 45.7777 15.4016 43.6388 15.4016H41.25C36.8055 15.4016 33.1944 19.0127 33.1944 23.4571V25.9016C33.1944 28.0405 31.9166 29.9571 29.9444 30.7627L27.6666 31.7071C25.6944 32.5405 24.1388 34.0683 23.3055 36.0683C22.4722 38.0683 22.5 40.2349 23.3055 42.2349L24.2222 44.4571C25.0555 46.4294 24.5833 48.6794 23.0833 50.2071L21.3889 51.9016C19.8611 53.4294 19.0277 55.4294 19.0277 57.596C19.0277 59.7627 19.8611 61.7627 21.3889 63.2905L23.1111 65.0127C24.6111 66.5127 25.0833 68.7627 24.25 70.7627L23.3055 73.0405C22.4722 75.0127 22.4722 77.2071 23.3055 79.2071C24.1388 81.1794 25.6666 82.7349 27.6666 83.5683L29.8889 84.4849C31.8611 85.2905 33.1388 87.2071 33.1388 89.346V91.7349C33.1388 96.1794 36.75 99.7905 41.1944 99.7905H43.6388C45.6111 99.7905 47.3888 100.874 48.3055 102.624C48.3888 102.763 48.4444 102.902 48.5 103.04L49.4444 105.318C50.6944 108.346 53.6111 110.29 56.8889 110.29C57.9444 110.29 58.9722 110.096 59.9722 109.679L62.1944 108.763C62.8333 108.485 63.5277 108.374 64.2222 108.374C65.6388 108.374 66.9444 108.929 67.9444 109.929L69.6388 111.624C70.5555 112.54 71.7222 113.235 72.9722 113.624C73.75 113.874 74.5277 113.985 75.3333 113.985C76.1388 113.985 76.9444 113.874 77.6944 113.624C78.9444 113.235 80.0833 112.54 81.0277 111.624L82.75 109.902C83.75 108.902 85.0555 108.346 86.4722 108.346C87.1666 108.346 87.8333 108.485 88.5 108.735L90.75 109.679C91.7222 110.096 92.7777 110.29 93.8333 110.29C97.1111 110.29 100.028 108.346 101.278 105.318L102.194 103.096C102.25 102.957 102.306 102.818 102.389 102.679C103.306 100.929 105.083 99.8183 107.083 99.8183H109.472C113.917 99.8183 117.528 96.2071 117.528 91.7627V89.3183C117.528 87.1794 118.806 85.2627 120.778 84.4571L123.056 83.5127C125.028 82.6794 126.583 81.1516 127.417 79.1516C128.25 77.1516 128.25 74.9849 127.417 72.9849L126.5 70.7627C125.667 68.7905 126.139 66.5405 127.639 65.0127L129.278 63.2349ZM125.611 62.9849C123.306 65.2905 122.611 68.7349 123.861 71.7627L124.778 73.9849C125.306 75.2905 125.306 76.7071 124.778 78.0127C124.25 79.3183 123.222 80.3183 121.917 80.8738L119.639 81.8183C116.639 83.0683 114.694 85.9849 114.694 89.2627V91.7071C114.694 94.6238 112.333 96.9849 109.417 96.9849H107.028C104 96.9849 101.278 98.6516 99.8611 101.346C99.75 101.54 99.6666 101.763 99.5833 101.957L98.6666 104.179C97.8611 106.152 95.9444 107.429 93.8055 107.429C93.1111 107.429 92.4444 107.29 91.8055 107.04L89.5555 106.096C88.5833 105.679 87.5277 105.485 86.4722 105.485C84.3333 105.485 82.3055 106.318 80.7777 107.846L79.0555 109.568C78.4444 110.179 77.6944 110.624 76.8888 110.874C75.8888 111.179 74.8055 111.179 73.7777 110.874C72.9444 110.624 72.2222 110.179 71.6111 109.568L69.9166 107.874C68.3888 106.346 66.3888 105.513 64.2222 105.513C63.1666 105.513 62.1111 105.707 61.1388 106.124L58.9166 107.04C58.2777 107.318 57.5833 107.457 56.8889 107.457C54.75 107.457 52.8333 106.179 52.0277 104.207L51.0833 101.957C51 101.735 50.8889 101.513 50.7777 101.29C49.3889 98.6238 46.6666 96.9849 43.6666 96.9849H41.2222C38.3055 96.9849 35.9444 94.6238 35.9444 91.7071V89.3183C35.9444 86.0405 34 83.1238 30.9722 81.8738L28.75 80.9571C27.4444 80.4294 26.4444 79.4016 25.8889 78.096C25.3611 76.7905 25.3611 75.3738 25.8889 74.0683L26.8333 71.7905C28.0833 68.7627 27.3889 65.346 25.0833 63.0405L23.3611 61.3183C22.3611 60.3183 21.8055 59.0127 21.8055 57.596C21.8055 56.1794 22.3611 54.8738 23.3611 53.8738L25.0555 52.1794C27.3611 49.8738 28.0555 46.4294 26.8055 43.4016L25.8889 41.1794C25.3611 39.8738 25.3611 38.4571 25.8889 37.1516C26.4166 35.846 27.4444 34.846 28.75 34.2905L31.0277 33.346C34.0277 32.096 35.9722 29.1794 35.9722 25.9294V23.4849C35.9722 20.5683 38.3333 18.2071 41.25 18.2071H43.6388C46.9166 18.2071 49.8333 16.2627 51.0833 13.2349L52 11.0127C52.8055 9.04047 54.7222 7.7627 56.8611 7.7627C57.5555 7.7627 58.2222 7.90158 58.8611 8.15158L61.1111 9.09603C62.0833 9.5127 63.1111 9.70714 64.1944 9.70714C66.3333 9.70714 68.3611 8.87381 69.8888 7.34603L71.6111 5.62381C72.6111 4.62381 73.9444 4.06825 75.3333 4.06825C76.7222 4.06825 78.0555 4.62381 79.0555 5.62381L80.75 7.31825C82.2777 8.84603 84.2777 9.67936 86.4444 9.67936C87.5 9.67936 88.5555 9.48492 89.5277 9.06825L91.75 8.15158C92.3888 7.87381 93.0833 7.73492 93.7777 7.73492C95.9166 7.73492 97.8333 9.0127 98.6388 10.9849L99.5833 13.2349C100.833 16.2627 103.75 18.2071 107 18.2071H109.444C112.361 18.2071 114.722 20.5683 114.722 23.4849V25.846C114.722 29.1238 116.667 32.0405 119.694 33.2905L121.917 34.2071C123.222 34.7349 124.222 35.7627 124.778 37.0683C125.306 38.3738 125.306 39.7905 124.778 41.096L123.833 43.346C122.583 46.3738 123.278 49.7905 125.583 52.1238L127.306 53.846C128.306 54.846 128.861 56.1516 128.861 57.5683C128.861 58.9849 128.306 60.2905 127.306 61.2905L125.611 62.9849Z" fill="#48989c"/>
<path id="Vector_4" d="M112.278 60.5959C112.278 60.5125 112.306 60.4292 112.306 60.3459C112.306 60.207 112.333 60.0403 112.333 59.9014C112.333 59.7348 112.361 59.5681 112.361 59.4014C112.361 59.3736 112.361 59.3459 112.361 59.3181C112.389 58.7348 112.417 58.1514 112.417 57.5403C112.417 56.9292 112.389 56.3459 112.361 55.7625C112.361 55.7348 112.361 55.707 112.361 55.707C112.361 55.5403 112.333 55.3736 112.333 55.1792C112.333 55.0403 112.306 54.8736 112.306 54.7348C112.306 54.6514 112.278 54.5681 112.278 54.4848C112.25 54.2348 112.25 54.0125 112.222 53.7625V53.7348C111.361 45.2625 107.667 37.4292 101.556 31.3181C95.25 25.0125 87.0555 21.2348 78.2222 20.5681C78.1944 20.5681 78.1944 20.5681 78.1666 20.5681C77.9166 20.5403 77.6944 20.5403 77.4444 20.5125C77.3611 20.5125 77.2777 20.5125 77.1944 20.4848C77.0277 20.4848 76.8611 20.4848 76.6944 20.457C76.5555 20.457 76.3888 20.457 76.25 20.4292C76.2222 20.4292 76.1666 20.4292 76.1388 20.4292C75.8611 20.4292 75.6111 20.4292 75.3333 20.4292C75.0833 20.4292 74.8333 20.4292 74.5833 20.4292C74.5277 20.4292 74.4722 20.4292 74.4166 20.4292C74.2777 20.4292 74.1666 20.4292 74.0277 20.457C73.8333 20.457 73.6666 20.457 73.4722 20.4848C73.4166 20.4848 73.3333 20.4848 73.2777 20.4848C64.1666 20.9848 55.6388 24.7625 49.1388 31.2903C42.1388 38.2903 38.2777 47.5959 38.2777 57.4848C38.2777 67.3736 42.1388 76.6792 49.1388 83.6792C55.6944 90.2348 64.25 94.0125 73.4444 94.4847C73.7222 94.5125 74 94.5125 74.2777 94.5125C74.3055 94.5125 74.3611 94.5125 74.3889 94.5125C74.6944 94.5125 75.0277 94.5125 75.3333 94.5125H75.3611C75.6666 94.5125 75.9722 94.5125 76.2777 94.5125C76.3333 94.5125 76.3888 94.5125 76.4444 94.5125C76.6944 94.5125 76.9722 94.4847 77.2222 94.4847C77.25 94.4847 77.25 94.4847 77.2777 94.4847C86.4444 94.0125 95 90.207 101.528 83.6792C107.639 77.5681 111.333 69.7348 112.194 61.2625C112.222 61.0959 112.25 60.8459 112.278 60.5959ZM109.583 59.2625C109.583 59.4292 109.556 59.5959 109.556 59.7625C109.556 59.9014 109.528 60.0125 109.528 60.1514C109.528 60.2348 109.5 60.3181 109.5 60.4014C109.472 60.6236 109.472 60.8459 109.444 61.0403V61.0681C107.722 77.7348 94.0555 90.9014 77.1666 91.7903C77.1389 91.7903 77.1388 91.7903 77.1111 91.7903C76.8611 91.7903 76.6111 91.8181 76.3888 91.8181C76.3333 91.8181 76.2777 91.8181 76.25 91.8181C75.9722 91.8181 75.6944 91.8181 75.3889 91.8181H75.3611C75.0555 91.8181 74.7777 91.8181 74.4722 91.8181C74.4444 91.8181 74.4166 91.8181 74.3611 91.8181C74.1111 91.8181 73.8333 91.7903 73.5833 91.7903C55.5 90.8736 41.0555 75.8736 41.0555 57.5403C41.0555 39.5125 55.0277 24.707 72.6944 23.3459C72.9166 23.3181 73.1666 23.3181 73.3888 23.2903C73.4444 23.2903 73.5277 23.2903 73.5833 23.2903C73.75 23.2903 73.9166 23.2903 74.0833 23.2625C74.2222 23.2625 74.3333 23.2625 74.4722 23.2348C74.5 23.2348 74.5555 23.2348 74.5833 23.2348C74.8333 23.2348 75.0833 23.2348 75.3333 23.2348C75.5833 23.2348 75.8611 23.2348 76.1111 23.2348C76.1388 23.2348 76.1666 23.2348 76.1944 23.2348C76.3333 23.2348 76.4722 23.2348 76.6111 23.2625C76.75 23.2625 76.9166 23.2625 77.0555 23.2903C77.1389 23.2903 77.2222 23.2903 77.3055 23.3181C77.5277 23.3181 77.75 23.3459 77.9444 23.3459C77.9722 23.3459 77.9722 23.3459 78 23.3459C94.4722 24.6236 107.75 37.6236 109.417 53.9848C109.417 54.0125 109.417 54.0125 109.417 54.0403C109.444 54.2625 109.444 54.457 109.472 54.6792C109.472 54.7625 109.5 54.8459 109.5 54.9292C109.5 55.0403 109.528 55.1792 109.528 55.3181C109.583 56.0681 109.611 56.7903 109.611 57.5403C109.611 58.1236 109.611 58.6792 109.583 59.2625Z" fill="#48989c"/>
<path id="Vector_5" d="M102.167 51.7626C102.944 50.957 103.444 49.8459 103.444 48.6237C103.444 46.1237 101.417 44.0959 98.9166 44.0959H84.9722L86.9166 36.2904C87.5278 33.8737 86.3889 31.4015 84.1389 30.2626C83.3889 29.9015 82.6111 29.707 81.7778 29.707C79.75 29.707 77.9444 30.8181 77.0555 32.6237L71.0555 44.6515C70.25 46.2348 68.6666 47.2348 66.8611 47.2348H65.7222V45.4848C65.7222 44.707 65.1111 44.0959 64.3333 44.0959H48.6111C47.8333 44.0959 47.2222 44.707 47.2222 45.4848V70.6515C47.2222 71.4293 47.8333 72.0404 48.6111 72.0404H64.3333C65.1111 72.0404 65.7222 71.4293 65.7222 70.6515V69.6515C69.5 71.207 73.5833 72.0404 77.6666 72.0404H98.9444C101.444 72.0404 103.472 70.0126 103.472 67.5126C103.472 66.2904 103 65.1793 102.194 64.3737C102.972 63.5681 103.472 62.457 103.472 61.2348C103.472 60.0126 103 58.9015 102.194 58.0959C102.972 57.2904 103.472 56.1793 103.472 54.957C103.444 53.707 102.972 52.5959 102.167 51.7626ZM62.9444 69.2626H50V46.8737H62.9444V48.6237V67.4848V69.2626ZM95.7778 53.1515H98.9166C99.8889 53.1515 100.667 53.9293 100.667 54.9015C100.667 55.8737 99.8889 56.6515 98.9166 56.6515H95.7778C95 56.6515 94.3889 57.2626 94.3889 58.0404C94.3889 58.8181 95 59.4293 95.7778 59.4293H98.9166C99.8889 59.4293 100.667 60.207 100.667 61.1793C100.667 62.1515 99.8889 62.9293 98.9166 62.9293H95.7778C95 62.9293 94.3889 63.5404 94.3889 64.3181C94.3889 65.0959 95 65.707 95.7778 65.707H98.9166C99.8889 65.707 100.667 66.4848 100.667 67.457C100.667 68.4293 99.8889 69.207 98.9166 69.207H77.6389C73.5278 69.207 69.4444 68.2904 65.6944 66.5681V50.0126H66.8333C69.6666 50.0126 72.2222 48.4293 73.5 45.9015L79.5 33.8737C79.9166 33.0126 80.7778 32.4848 81.75 32.4848C82.1389 32.4848 82.5278 32.5681 82.8611 32.7626C83.9166 33.2904 84.4722 34.457 84.1666 35.6237L81.7778 45.1793C81.6666 45.5959 81.7778 46.0404 82.0278 46.3737C82.2778 46.707 82.6944 46.9015 83.1111 46.9015H98.8333C99.8055 46.9015 100.583 47.6793 100.583 48.6515C100.583 49.6237 99.8055 50.4015 98.8333 50.4015H95.6944C94.9166 50.4015 94.3055 51.0126 94.3055 51.7904C94.3055 52.5681 95 53.1515 95.7778 53.1515Z" fill="#48989c"/>
</g>
<g id="Group_2">
<path id="Vector_6" d="M77.4999 102.068C76.7222 102.068 76.0833 101.457 76.0277 100.679C75.9999 99.8738 76.611 99.1794 77.4166 99.1516C78.361 99.0961 79.3055 99.0405 80.2222 98.9294C81.0277 98.8461 81.7499 99.4016 81.861 100.207C81.9444 101.013 81.3888 101.735 80.5833 101.846C79.5833 101.957 78.5833 102.041 77.5833 102.096C77.5277 102.068 77.4999 102.068 77.4999 102.068ZM71.6666 101.957C71.6388 101.957 71.5833 101.957 71.5555 101.957C70.5555 101.874 69.5555 101.763 68.5555 101.596C67.7499 101.485 67.1944 100.735 67.3333 99.9294C67.4444 99.1239 68.1944 98.5961 68.9999 98.7072C69.9166 98.8461 70.861 98.9572 71.8055 99.0405C72.611 99.0961 73.2222 99.8183 73.1388 100.624C73.0555 101.402 72.4166 101.957 71.6666 101.957ZM86.111 100.763C85.4722 100.763 84.861 100.318 84.6944 99.6516C84.4999 98.8739 84.9722 98.0683 85.7499 97.8738C86.6666 97.6516 87.5555 97.3738 88.4444 97.0683C89.2222 96.8183 90.0277 97.235 90.3055 97.985C90.5555 98.7627 90.1388 99.5683 89.3888 99.8461C88.4444 100.152 87.4722 100.457 86.4999 100.707C86.361 100.735 86.2222 100.763 86.111 100.763ZM63.111 100.374C62.9722 100.374 62.8333 100.346 62.6944 100.318C61.7499 100.041 60.7777 99.7072 59.8333 99.3739C59.0833 99.0961 58.6944 98.2627 58.9722 97.485C59.2499 96.735 60.0833 96.3461 60.861 96.6238C61.7222 96.9572 62.6388 97.235 63.5277 97.5127C64.3055 97.735 64.7499 98.5683 64.5277 99.3461C64.3333 99.9572 63.7499 100.374 63.111 100.374ZM94.3055 97.735C93.7499 97.735 93.2499 97.4294 92.9999 96.9016C92.6388 96.1794 92.9444 95.2905 93.6666 94.9294C94.4999 94.5127 95.3333 94.0683 96.1388 93.5961C96.8333 93.1794 97.7222 93.4294 98.1388 94.1238C98.5555 94.8183 98.3055 95.7072 97.611 96.1238C96.7499 96.6238 95.861 97.0961 94.9444 97.5405C94.7222 97.6794 94.4999 97.735 94.3055 97.735ZM55.0277 97.0405C54.8055 97.0405 54.5555 96.985 54.3333 96.8739C53.4444 96.4016 52.5833 95.9016 51.7222 95.3738C51.0277 94.9572 50.8333 94.0405 51.2499 93.3461C51.6666 92.6516 52.5833 92.4572 53.2777 92.8738C54.0555 93.3738 54.8888 93.8461 55.7222 94.2905C56.4444 94.6794 56.6944 95.5683 56.3333 96.2627C56.0555 96.7627 55.5555 97.0405 55.0277 97.0405ZM101.694 93.1239C101.25 93.1239 100.833 92.9294 100.528 92.5683C100.028 91.9294 100.139 91.0127 100.778 90.5127C101.528 89.9294 102.25 89.3461 102.944 88.7072C103.555 88.1794 104.472 88.235 105 88.8183C105.528 89.4294 105.472 90.3461 104.889 90.8739C104.139 91.5405 103.361 92.1794 102.583 92.7905C102.333 93.0127 102 93.1239 101.694 93.1239ZM47.8055 92.1794C47.4722 92.1794 47.1388 92.0683 46.861 91.8461C46.0833 91.2072 45.3333 90.5405 44.611 89.8461C44.0277 89.2905 43.9999 88.3738 44.5555 87.7627C45.111 87.1516 46.0277 87.1516 46.6388 87.7072C47.3055 88.3461 48.0277 88.985 48.7499 89.5683C49.361 90.0961 49.4722 91.0127 48.9444 91.6238C48.6388 92.0127 48.2222 92.1794 47.8055 92.1794ZM108.028 87.1239C107.694 87.1239 107.361 87.0127 107.083 86.7627C106.472 86.235 106.389 85.3183 106.917 84.7072C107.528 83.985 108.111 83.2627 108.667 82.5127C109.139 81.8738 110.083 81.735 110.722 82.2072C111.361 82.6794 111.5 83.6238 111.028 84.2627C110.444 85.0683 109.805 85.8461 109.139 86.5961C108.833 86.9572 108.417 87.1239 108.028 87.1239ZM41.6944 85.985C41.2777 85.985 40.8333 85.7905 40.5555 85.4294C39.9166 84.6516 39.3333 83.8461 38.7499 83.0127C38.2777 82.3461 38.4444 81.4294 39.1111 80.985C39.7777 80.5127 40.6944 80.6794 41.1388 81.3461C41.6666 82.1238 42.2499 82.8738 42.8333 83.5961C43.3333 84.235 43.2499 85.1516 42.611 85.6516C42.3333 85.8738 42.0277 85.985 41.6944 85.985ZM113 79.985C112.75 79.985 112.528 79.9294 112.278 79.7905C111.583 79.4016 111.305 78.5127 111.722 77.7905C112.167 76.985 112.611 76.1239 113 75.2905C113.333 74.5683 114.222 74.235 114.944 74.5961C115.667 74.9294 116 75.8183 115.639 76.5405C115.222 77.4294 114.75 78.3461 114.278 79.2072C114.028 79.7072 113.528 79.985 113 79.985ZM36.9444 78.6516C36.4166 78.6516 35.8888 78.3739 35.6388 77.8461C35.1944 76.9572 34.7499 76.0405 34.361 75.1239C34.0555 74.3739 34.3888 73.5127 35.1388 73.2072C35.8888 72.9016 36.7499 73.235 37.0555 73.985C37.4166 74.8461 37.8333 75.7072 38.2499 76.5405C38.611 77.2627 38.3333 78.1516 37.611 78.5127C37.4166 78.5961 37.1666 78.6516 36.9444 78.6516ZM116.444 71.9572C116.305 71.9572 116.139 71.9294 116 71.9016C115.222 71.6516 114.805 70.8461 115.055 70.0683C115.333 69.1794 115.583 68.2627 115.805 67.3461C116 66.5683 116.778 66.0683 117.583 66.2627C118.361 66.4572 118.861 67.235 118.667 68.0405C118.444 69.0127 118.167 69.985 117.861 70.9294C117.667 71.5683 117.083 71.9572 116.444 71.9572ZM33.7777 70.5127C33.1388 70.5127 32.5555 70.0961 32.3611 69.4294C32.0833 68.4572 31.8611 67.485 31.6666 66.5127C31.4999 65.7072 32.0277 64.9572 32.8055 64.7905C33.6111 64.6239 34.361 65.1516 34.5277 65.9294C34.7222 66.8461 34.9444 67.7627 35.1944 68.6516C35.4166 69.4294 34.9444 70.235 34.1666 70.4572C34.0277 70.5127 33.9166 70.5127 33.7777 70.5127ZM118.222 63.4294C118.167 63.4294 118.111 63.4294 118.083 63.4294C117.278 63.3461 116.694 62.6239 116.778 61.8183C116.861 60.9016 116.944 59.9572 116.972 59.0127C117 58.2072 117.694 57.5683 118.472 57.5961C119.278 57.6239 119.917 58.2905 119.889 59.0961C119.861 60.0961 119.778 61.0961 119.694 62.0961C119.583 62.8739 118.944 63.4294 118.222 63.4294ZM32.3333 61.9294C31.5555 61.9294 30.9166 61.3461 30.8611 60.5683C30.8055 59.5683 30.7499 58.5683 30.7499 57.5683V57.4572C30.7499 56.6516 31.4166 55.985 32.2222 55.985C33.0277 55.985 33.6944 56.6516 33.6944 57.4572V57.5683C33.6944 58.485 33.7222 59.4572 33.7777 60.3739C33.8333 61.1794 33.2222 61.8739 32.4166 61.9294C32.3888 61.9294 32.361 61.9294 32.3333 61.9294ZM118.222 54.7072C117.472 54.7072 116.833 54.1516 116.778 53.3739C116.694 52.4572 116.555 51.5127 116.417 50.5961C116.278 49.7905 116.833 49.0405 117.611 48.9016C118.417 48.7627 119.167 49.3183 119.305 50.0961C119.472 51.0961 119.611 52.0961 119.694 53.0683C119.778 53.8739 119.194 54.5961 118.389 54.6794C118.333 54.7072 118.278 54.7072 118.222 54.7072ZM32.6388 53.1239C32.5833 53.1239 32.4999 53.1239 32.4444 53.0961C31.6388 52.985 31.0833 52.235 31.1944 51.4572C31.3333 50.4572 31.4999 49.4572 31.6944 48.485C31.8611 47.6794 32.6388 47.1794 33.4166 47.3461C34.2222 47.5127 34.7222 48.2905 34.5555 49.0683C34.361 49.985 34.1944 50.9016 34.0833 51.8461C33.9722 52.5683 33.3611 53.1239 32.6388 53.1239ZM116.5 46.1516C115.889 46.1516 115.305 45.7627 115.111 45.1238C114.833 44.235 114.528 43.3461 114.194 42.4572C113.889 41.7072 114.278 40.8461 115.028 40.5683C115.778 40.2627 116.639 40.6516 116.917 41.4016C117.278 42.3461 117.611 43.2905 117.917 44.235C118.167 45.0127 117.722 45.8183 116.944 46.0683C116.778 46.1516 116.639 46.1516 116.5 46.1516ZM34.6944 44.6516C34.5277 44.6516 34.3611 44.6238 34.1944 44.5683C33.4444 44.2905 33.0277 43.4572 33.3055 42.7072C33.6388 41.7627 33.9999 40.8183 34.4166 39.9016C34.7499 39.1516 35.6111 38.8183 36.3333 39.1516C37.0833 39.485 37.4166 40.3461 37.0833 41.0683C36.7222 41.9294 36.3611 42.7905 36.0555 43.6794C35.8611 44.2627 35.2777 44.6516 34.6944 44.6516ZM113.055 38.1516C112.528 38.1516 112.028 37.8739 111.778 37.4016C111.333 36.5961 110.833 35.7627 110.333 34.985C109.889 34.3183 110.083 33.4016 110.778 32.9572C111.444 32.5127 112.361 32.7072 112.805 33.4016C113.361 34.235 113.861 35.1239 114.361 35.985C114.75 36.6794 114.5 37.5961 113.778 37.985C113.528 38.0683 113.305 38.1516 113.055 38.1516ZM38.4166 36.7627C38.1666 36.7627 37.8888 36.7072 37.6666 36.5405C36.9722 36.1239 36.7499 35.235 37.1666 34.5405C37.6944 33.6794 38.2222 32.8461 38.8055 32.0127C39.2777 31.3461 40.1944 31.1794 40.8333 31.6516C41.4999 32.1239 41.6666 33.0405 41.1944 33.6794C40.6666 34.4572 40.1388 35.235 39.6666 36.0405C39.3888 36.5127 38.9166 36.7627 38.4166 36.7627ZM108.083 30.985C107.667 30.985 107.25 30.8183 106.972 30.485C106.361 29.7627 105.722 29.0683 105.083 28.4016C104.528 27.8183 104.528 26.9016 105.111 26.3183C105.694 25.7627 106.611 25.7627 107.194 26.3461C107.889 27.0683 108.583 27.7905 109.222 28.5683C109.75 29.1794 109.667 30.0961 109.055 30.6239C108.75 30.8739 108.417 30.985 108.083 30.985ZM43.6388 29.7905C43.2777 29.7905 42.9166 29.6516 42.6388 29.4016C42.0555 28.8461 41.9999 27.9294 42.5555 27.3183C43.2222 26.5961 43.9444 25.8739 44.6666 25.1794C45.2499 24.6239 46.1944 24.6516 46.7499 25.235C47.3055 25.8183 47.2777 26.7627 46.6944 27.3183C46.0277 27.9572 45.361 28.6239 44.7222 29.3183C44.4444 29.6516 44.0277 29.7905 43.6388 29.7905ZM101.75 24.9572C101.444 24.9572 101.111 24.8461 100.861 24.6516C100.111 24.0683 99.361 23.5127 98.5833 23.0127C97.9166 22.5683 97.7222 21.6516 98.1944 20.985C98.6388 20.3183 99.5555 20.1239 100.222 20.5961C101.055 21.1516 101.861 21.735 102.667 22.3739C103.305 22.8739 103.417 23.7905 102.917 24.4294C102.639 24.7627 102.194 24.9572 101.75 24.9572ZM50.1666 24.0127C49.7222 24.0127 49.2499 23.7905 48.9722 23.4016C48.4999 22.735 48.6388 21.8183 49.3055 21.3461C50.111 20.7627 50.9722 20.2072 51.8055 19.6794C52.4999 19.2627 53.3888 19.4572 53.8333 20.1516C54.2499 20.8461 54.0555 21.735 53.361 22.1794C52.5555 22.6794 51.7777 23.2072 51.0277 23.735C50.7777 23.9294 50.4722 24.0127 50.1666 24.0127ZM94.361 20.3461C94.1388 20.3461 93.9166 20.2905 93.7222 20.2072C92.8888 19.7905 92.0277 19.4016 91.1666 19.0405C90.4166 18.735 90.0555 17.8739 90.361 17.1239C90.6666 16.3739 91.5277 16.0127 92.2777 16.3183C93.1944 16.7072 94.111 17.1239 95.0277 17.5683C95.7499 17.9294 96.0555 18.8183 95.6944 19.5405C95.4444 20.0405 94.9166 20.3461 94.361 20.3461ZM57.7222 19.6516C57.1666 19.6516 56.6388 19.3183 56.3888 18.7905C56.0555 18.0405 56.3888 17.1794 57.1388 16.8461C58.0555 16.4294 58.9999 16.0405 59.9166 15.7072C60.6666 15.4294 61.5277 15.8183 61.8055 16.5683C62.0833 17.3183 61.6944 18.1794 60.9444 18.4572C60.0555 18.7905 59.1944 19.1239 58.3333 19.5127C58.1388 19.6239 57.9444 19.6516 57.7222 19.6516ZM86.1944 17.2905C86.0833 17.2905 85.9444 17.2627 85.8333 17.235C84.9166 17.0127 83.9999 16.7905 83.0833 16.6239C82.2777 16.485 81.7777 15.7072 81.9166 14.9016C82.0555 14.0961 82.8333 13.5961 83.6388 13.735C84.611 13.9294 85.611 14.1516 86.5833 14.4016C87.361 14.5961 87.8333 15.4016 87.6388 16.1794C87.4444 16.8461 86.861 17.2905 86.1944 17.2905ZM66.0277 16.9294C65.361 16.9294 64.7499 16.4572 64.611 15.7905C64.4444 15.0127 64.9444 14.2072 65.7222 14.0405C66.6944 13.8183 67.6944 13.6516 68.6944 13.485C69.4999 13.3739 70.2499 13.9294 70.361 14.7072C70.4722 15.5127 69.9166 16.2627 69.1388 16.3739C68.2222 16.5127 67.2777 16.6794 66.361 16.8739C66.2222 16.9016 66.111 16.9294 66.0277 16.9294ZM77.5833 15.9572C77.5555 15.9572 77.5277 15.9572 77.4999 15.9572C76.5833 15.9016 75.611 15.9016 74.6944 15.9016H74.6666C73.861 15.9016 73.2222 15.2627 73.1944 14.4572C73.1944 13.6516 73.8333 12.985 74.6388 12.9572C75.6388 12.9294 76.6388 12.9572 77.6388 13.0127C78.4444 13.0683 79.0555 13.735 79.0277 14.5405C78.9999 15.3739 78.361 15.9572 77.5833 15.9572Z" fill="#48989c"/>
</g>
</g>
</svg>
