<svg width="151" height="151" viewBox="0 0 151 151" fill="none" xmlns="http://www.w3.org/2000/svg">
<g id="Return on Investment">
<path id="Vector" d="M73.902 12.5862L82.5049 21.1891C83.3873 22.0715 84.7108 22.0715 85.5931 21.1891C86.4755 20.3068 86.4755 18.9832 85.5931 18.1009L80.9608 13.4685C109.196 16.1156 132.578 37.9538 136.549 66.1891C136.77 67.292 137.873 68.1744 138.975 67.9538C140.078 67.7332 140.961 66.6303 140.74 65.5273C136.549 35.7479 112.505 12.5862 83.1667 9.27734L88.6814 6.40969C89.7843 5.74793 90.2255 4.4244 89.5637 3.32146C89.1226 2.21852 87.799 1.99793 86.6961 2.43911L74.5637 9.05675C74.1226 9.27734 73.6814 9.71852 73.4608 10.6009C73.2402 11.2626 73.4608 11.9244 73.902 12.5862ZM148.02 83.395L141.181 73.6891C140.961 73.2479 140.299 72.8068 139.637 72.8068C138.975 72.8068 138.314 73.0273 137.873 73.4685L129.27 82.0715C128.387 82.9538 128.387 84.2773 129.27 85.1597C130.152 86.042 131.475 86.042 132.358 85.1597L136.99 80.5273C134.343 108.983 112.505 132.366 84.049 136.336C82.9461 136.557 82.0637 137.66 82.0637 138.763C82.2843 140.086 83.3873 140.748 84.4902 140.748C114.931 136.557 138.314 111.63 141.181 81.4097L144.49 85.8215C145.152 86.7038 146.475 86.9244 147.578 86.2626C148.461 85.8215 148.681 84.4979 148.02 83.395ZM77.2108 137.66L67.5049 127.954C66.6226 127.071 65.299 127.071 64.4167 127.954C63.5343 128.836 63.5343 130.16 64.4167 131.042L69.9314 136.557C42.1373 134.13 18.9755 112.513 14.7843 84.4979C14.5637 83.395 13.4608 82.5126 12.3579 82.7332C11.2549 82.9538 10.3726 84.0567 10.5931 85.1597C15.0049 114.498 38.8284 137.219 67.5049 140.969L61.9902 143.836C60.8873 144.277 60.4461 145.601 61.1079 146.704C61.549 147.807 62.8726 148.248 63.9755 147.586L76.7696 141.189C77.652 140.748 77.8726 140.086 77.8726 139.204C77.652 138.763 77.652 138.101 77.2108 137.66ZM11.6961 77.2185C12.1373 77.2185 12.799 76.9979 13.2402 76.5568L22.2843 67.5126C23.1667 66.6303 23.1667 65.3068 22.2843 64.4244C21.402 63.542 20.0784 63.542 19.1961 64.4244L14.1226 69.4979C16.549 41.7038 37.2843 18.7626 65.0784 14.1303C66.1814 13.9097 67.0637 12.8068 66.8431 11.4832C66.8431 10.3803 65.7402 9.49793 64.6373 9.71852C34.8579 14.792 12.799 38.8362 9.93138 68.395L6.84315 63.7626C6.18138 62.6597 4.85785 62.4391 3.75491 63.1009C2.87256 63.7626 2.65197 65.3068 3.31373 66.1891L9.93138 76.3362C10.3726 76.9979 11.0343 77.2185 11.6961 77.2185ZM37.5049 75.0126C37.5049 96.1891 54.7108 113.395 75.6667 113.395C96.6226 113.395 113.828 96.1891 113.828 75.0126C113.828 53.8362 96.6226 36.6303 75.6667 36.6303C54.7108 36.6303 37.5049 53.8362 37.5049 75.0126ZM109.417 75.0126C109.417 93.7626 94.1961 108.983 75.6667 108.983C57.1373 108.983 41.9167 93.7626 41.9167 75.0126C41.9167 56.2626 57.1373 41.042 75.6667 41.042C94.1961 41.042 109.417 56.2626 109.417 75.0126Z" fill="#48989c"/>
<path id="Vector_2" d="M74.3432 50.5273V53.395C70.5932 53.6156 67.5049 54.7185 65.0784 56.9244C62.652 59.1303 61.549 61.7773 61.549 65.3068C61.549 68.8362 62.652 71.2626 64.6373 73.0273C66.6226 74.792 69.9314 76.1156 74.3432 77.2185V88.6891C70.8137 88.0274 67.5049 86.4832 64.1961 83.6156L60.0049 88.6891C64.1961 92.4391 69.049 94.645 74.3432 95.0862V99.4979H78.0931V95.3068C82.0637 95.0862 85.3726 93.9832 87.799 91.7773C90.2255 89.5715 91.3284 86.9244 91.3284 83.395C91.3284 79.8656 90.2255 77.4391 88.2402 75.4538C86.0343 73.6891 82.7255 72.145 78.3137 71.0421H78.0931V60.0126C81.1814 60.4538 83.8284 61.5568 86.4755 63.5421L90.2255 58.0273C86.4755 55.3803 82.2843 53.8362 78.0931 53.6156V50.5273H74.3432ZM74.3432 69.9391C72.1373 69.2773 70.5931 68.395 69.9314 67.7332C69.049 67.0715 68.8284 65.9685 68.8284 64.645C68.8284 63.3215 69.2696 62.2185 70.3726 61.3362C71.4755 60.4538 72.799 60.0126 74.5637 59.7921V69.9391H74.3432ZM82.9461 80.5273C83.8284 81.4097 84.2696 82.5126 84.2696 83.8362C84.2696 85.1597 83.8284 86.2626 82.7255 87.145C81.6226 88.0273 80.0784 88.6891 78.3137 88.6891V78.1009C80.5196 78.9832 82.0637 79.645 82.9461 80.5273Z" fill="#48989c"/>
</g>
</svg>
